<svg width="110" height="90" viewBox="0 0 110 90" fill="none" xmlns="http://www.w3.org/2000/svg">
<g clip-path="url(#clip0_10_199)">
<mask id="path-1-inside-1_10_199" fill="white">
<path d="M21.4888 74.8092C21.4842 74.0481 21.4706 73.2893 21.4819 72.5283C21.4865 72.1466 21.3501 71.9774 20.9545 71.9889C20.293 72.0072 19.6315 72.0026 18.97 71.9889C18.6086 71.982 18.4722 72.1283 18.3585 72.4871C18.0516 73.4448 18.8586 74.1441 18.7609 75.0789C19.7134 74.6264 20.6136 74.7704 21.5024 74.7955C21.4956 75.4995 21.5092 76.2034 21.4706 76.9073C21.4456 77.3805 21.6138 77.5564 22.0866 77.5382C22.7595 77.5107 23.4324 77.5313 24.1053 77.5313C24.3008 78.3884 24.4531 79.17 24.6736 79.9334C24.7213 80.1002 25.0032 80.3014 25.1873 80.3105C25.8079 80.338 26.4331 80.2991 27.0559 80.2557C27.1628 80.2488 27.3469 80.098 27.3515 80.0088C27.3742 79.1997 27.3651 78.3884 27.3651 77.5313C26.4535 77.5313 25.642 77.513 24.8304 77.5382C24.4031 77.5519 24.2553 77.3919 24.2758 76.9759C24.2985 76.464 24.303 75.9451 24.2644 75.4355C24.2417 75.1589 24.2576 74.7704 23.8143 74.7704C23.0391 74.7704 22.2662 74.7955 21.491 74.8115L21.4888 74.8092ZM50.2612 19.2249C50.2612 20.002 50.2453 20.7791 50.2817 21.5539C50.2885 21.7093 50.4931 21.979 50.6181 21.9835C51.3865 22.0247 52.1571 22.0041 52.9686 22.0041V19.2432H50.243C50.2498 18.5781 50.2589 17.913 50.2658 17.2479C50.2726 16.5782 50.343 16.5074 51.0296 16.5028C51.5024 16.5005 51.9775 16.4914 52.4503 16.5028C52.8573 16.5142 53.08 16.3474 53.0073 15.9291C52.8573 15.0675 52.6799 14.2127 52.5231 13.3968C51.5797 13.0516 50.8704 13.6825 50.0748 13.8287C49.9657 13.8493 49.8566 14.167 49.8429 14.3521C49.8111 14.8252 49.8088 15.3052 49.8384 15.7783C49.8725 16.336 49.6088 16.5211 49.0973 16.5028C48.6245 16.4868 48.1494 16.5097 47.6765 16.496C47.2923 16.4845 47.0855 16.6834 47.1014 17.0353C47.1219 17.4559 47.2037 17.8764 47.2946 18.2901C47.3606 18.5941 47.4856 18.8843 47.572 19.1426C46.5445 19.3277 45.6261 19.5014 44.7054 19.6523C44.3712 19.7071 44.2235 19.9426 44.4099 20.1528C44.8873 20.6922 44.7827 21.3139 44.7872 21.9287C44.7895 22.2967 44.9736 22.4384 45.3169 22.4384C45.867 22.4361 46.4149 22.4384 46.965 22.4384C47.3515 22.4384 47.5515 22.2669 47.5424 21.8533C47.5288 21.2065 47.5538 20.5596 47.5333 19.9128C47.5197 19.4534 47.6993 19.2592 48.163 19.2637C48.8609 19.2706 49.561 19.2409 50.2589 19.2272L50.2612 19.2249ZM6.98319 66.7596C6.96273 66.0419 6.93545 65.3219 6.92182 64.6043C6.915 64.282 6.83543 64.0352 6.4558 64.0329C5.57378 64.0306 4.69176 64.0329 3.74382 64.0329C3.76655 64.4169 3.65971 64.8763 3.83475 65.0614C4.25757 65.5094 4.13482 66.0053 4.17119 66.499C4.20984 67.0247 4.02116 67.2715 3.45739 67.2372C2.8027 67.1984 2.14573 67.2281 1.50013 67.2281V69.9936C1.8343 69.9936 2.11618 69.9936 2.39806 69.9936C4.14391 69.9936 4.18256 69.9936 4.15528 68.2612C4.14164 67.4315 4.8077 66.7664 5.64653 66.7915C6.0989 66.8053 6.55128 66.7618 7.00365 66.7458C6.97637 67.1207 6.92636 67.4978 6.92636 67.8726C6.91954 69.861 6.79679 69.9936 4.8077 69.9456C4.33486 69.9342 4.15755 70.1376 4.16892 70.5924C4.18256 71.1066 4.16892 71.6209 4.17119 72.1351C4.17119 72.558 3.98478 72.7591 3.54605 72.7408C2.9982 72.7202 2.4458 72.7111 1.90022 72.7545C1.74337 72.766 1.48194 72.9717 1.47512 73.1019C1.43193 73.8036 1.44102 74.5098 1.47058 75.2138C1.47512 75.3212 1.66608 75.5086 1.77292 75.5132C2.54809 75.536 3.32782 75.5497 4.10072 75.5063C4.58492 75.4789 4.66448 75.1886 4.49854 74.6995C4.34396 74.2447 4.26439 73.7624 4.18483 73.2848C4.11891 72.8939 4.33032 72.7317 4.70995 72.7362C5.39192 72.7431 6.07389 72.7454 6.75587 72.7362C7.16278 72.7294 7.34691 72.9282 7.34691 73.3213C7.34691 73.8173 7.33327 74.3133 7.35146 74.8069C7.36964 75.3189 7.12413 75.5406 6.63766 75.5429C6.14437 75.5452 5.65107 75.5223 5.16232 75.568C4.97819 75.5863 4.67358 75.7532 4.65766 75.8811C4.57355 76.5371 4.55082 77.2022 4.53491 77.8673C4.52582 78.1987 4.69631 78.4044 5.06458 78.377C5.6488 78.3335 6.23302 78.3061 6.81497 78.2581C7.18324 78.2284 7.34009 77.993 7.34236 77.6387C7.34464 77.1428 7.36964 76.6468 7.34009 76.1531C7.31054 75.6914 7.53559 75.5406 7.94023 75.5383C8.41306 75.536 8.88817 75.5383 9.361 75.5337C9.86112 75.5292 10.1362 75.3166 10.1089 74.7681C10.0839 74.2561 10.1044 73.7396 10.1021 73.2253C10.1021 72.4825 9.81565 72.2311 9.09731 72.3774C8.86316 72.4254 8.63584 72.526 8.41988 72.6357C7.73109 72.9785 6.99229 72.5785 6.94455 71.8106C6.91727 71.3558 6.92181 70.8964 6.92863 70.4393C6.94 69.8107 7.11504 69.6233 7.74246 69.6005C8.21529 69.5822 8.6904 69.589 9.16323 69.5936C9.51331 69.5959 9.68608 69.4496 9.67926 69.0817C9.66789 68.5286 9.67244 67.9777 9.67926 67.4246C9.68381 66.9424 9.46103 66.7504 8.97683 66.7687C8.31759 66.7938 7.6538 66.7687 6.99001 66.7641L6.98319 66.7596ZM58.6904 18.8089C59.5792 18.8181 60.4703 18.8432 61.3592 18.8272C61.7093 18.8204 61.9593 18.7106 61.6683 18.265C61.4797 17.977 61.366 17.6296 61.2728 17.2936C61.0568 16.5211 61.732 15.6434 62.5185 15.6412C62.8209 15.6412 63.1323 15.6023 63.4256 15.6572C63.6665 15.7029 64.0303 15.808 64.0894 15.9749C64.303 16.5897 64.4349 17.2365 64.5395 17.8833C64.5622 18.0296 64.3917 18.313 64.253 18.3632C63.7188 18.5507 63.1687 18.7335 62.6117 18.7975C61.907 18.8798 61.7502 18.9758 61.7365 19.6957C61.7275 20.1711 61.7275 20.6488 61.7275 21.1242C61.7275 21.451 61.5979 21.6087 61.2478 21.5836C60.8886 21.5584 60.5272 21.5676 60.168 21.5813C58.9518 21.6247 58.92 21.659 58.92 22.8635C58.92 23.0737 58.92 23.2817 58.92 23.492C58.92 24.3148 58.4835 24.7536 57.6447 24.7719C57.3424 24.7788 57.0377 24.7719 56.7354 24.7742C56.3399 24.7742 56.158 24.9685 56.1716 25.3753C56.1876 25.8507 56.1739 26.3283 56.1762 26.8037C56.1762 27.5237 56.2603 27.6128 56.99 27.622C57.6106 27.6288 58.2335 27.622 58.8927 27.622C58.8041 28.5636 59.6929 29.2607 59.2087 30.3303H56.3876C56.4058 30.7189 56.4035 30.9611 56.4308 31.2011C56.4808 31.6194 56.5808 32.0353 56.6013 32.4559C56.624 32.945 56.4081 33.1873 55.8602 33.1964C55.2783 33.2055 54.694 33.3404 54.1212 33.4615C54.0212 33.4821 53.9075 33.7084 53.8984 33.8455C53.8688 34.282 53.887 34.7209 53.8848 35.1597C53.8848 36.2339 53.7779 36.3367 52.6708 36.339C52.1685 36.339 51.6661 36.339 51.1159 36.339C51.1159 37.1138 51.1455 37.7606 51.1 38.4029C51.0841 38.6268 50.9295 38.924 50.7477 39.0314C50.4385 39.2142 50.0634 39.2942 49.7065 39.3742C49.4633 39.4291 49.1928 39.4611 48.9564 39.4062C48.5745 39.3171 48.4199 39.4565 48.3949 39.8107C48.3335 40.6564 48.2789 41.5043 48.2221 42.35C47.4333 42.3317 46.6468 42.2951 45.8602 42.3134C45.7465 42.3157 45.5488 42.5671 45.5397 42.7134C45.5033 43.3168 45.526 43.9247 45.5238 44.5327C45.5238 44.8709 45.6511 45.0698 46.0193 45.0652C46.5854 45.0583 47.1514 45.0583 47.7174 45.0652C48.0721 45.0698 48.2448 44.8961 48.2426 44.551C48.238 43.8127 48.2221 43.0745 48.213 42.3363C48.9609 42.2791 49.7065 42.1969 50.4544 42.1763C50.9159 42.1649 51.0978 41.9934 51.0841 41.5318C51.0659 40.9055 51.0887 40.277 51.1 39.6485C51.1069 39.2988 51.2523 39.0931 51.6411 39.0999C52.1889 39.1114 52.739 39.0748 53.2869 39.0931C53.6779 39.1068 53.8961 39.3262 53.887 39.7445C53.8802 40.181 53.8575 40.6221 53.9007 41.0564C53.9257 41.3169 54.0643 41.566 54.1666 41.8632C52.9846 41.9294 51.7956 41.5683 50.9341 42.6814C51.5888 43.1019 51.3865 43.7396 51.4342 44.3201C51.4751 44.8275 51.2069 44.9989 50.7772 45.0149C50.3226 45.0332 49.8679 45.0286 49.4156 45.0218C48.9064 45.0126 48.6449 45.2161 48.6768 45.7692C48.7063 46.32 48.6768 46.8731 48.6859 47.4239C48.6904 47.7187 48.5676 47.833 48.2789 47.8216C47.9198 47.8079 47.5583 47.7964 47.2014 47.8261C46.3308 47.8993 45.9352 48.3427 45.9352 49.2135C45.9352 49.5746 45.9193 49.938 45.9398 50.2991C45.9671 50.8042 45.7556 51.0213 45.2487 51.003C44.594 50.9825 43.9393 50.9985 43.2096 50.9985C43.2096 51.7961 43.2346 52.5161 43.1914 53.2314C43.1801 53.412 42.9846 53.6954 42.8232 53.7365C42.0593 53.94 41.2796 54.0748 40.459 54.2439C40.459 55.0027 40.459 55.7387 40.459 56.4746C40.459 56.8403 40.6408 56.9569 40.9977 56.9409C41.5456 56.9134 42.0957 56.9272 42.6436 56.9386C43.0778 56.9477 43.4278 57.1146 43.4983 57.5854C43.5665 58.0494 43.5983 58.5225 43.612 58.991C43.6256 59.4618 43.4233 59.7269 42.8982 59.7041C42.2435 59.6744 41.5865 59.6972 40.9886 59.6972C40.8818 60.6732 40.7841 61.5531 40.6886 62.433C40.0066 62.433 39.3246 62.4193 38.6449 62.4445C38.2608 62.4582 38.0903 62.2593 38.0221 61.9371C37.9061 61.3885 37.8129 60.8354 37.7129 60.2846C37.5947 59.6424 37.3719 59.5578 36.7718 59.7909C36.3535 59.9532 35.8966 60.0401 35.4488 60.0881C35.0532 60.1315 34.86 60.2892 34.86 60.6869C34.86 61.2011 34.86 61.7131 34.86 62.2273C34.86 62.689 35.0464 62.9176 35.542 62.9016C36.349 62.8741 37.156 62.8947 38.0357 62.8947C38.0357 63.6261 38.0312 64.2866 38.0357 64.9471C38.0425 65.6031 38.1744 65.7356 38.8041 65.6602C39.2678 65.6031 39.7429 65.5368 40.1771 65.3768C40.4021 65.2922 40.6954 65.002 40.7068 64.7894C40.75 64.0009 40.6886 63.2078 40.6681 62.417C41.4433 62.4239 42.2207 62.4559 42.9959 62.4307C43.4142 62.417 43.5961 62.5953 43.6074 62.9747C43.6233 63.5644 43.6142 64.154 43.6142 64.746C43.6142 65.0797 43.4483 65.2191 43.1141 65.21C42.6413 65.1962 42.1594 65.2602 41.6956 65.194C41.0659 65.1048 40.8613 65.4408 40.775 65.9596C40.7545 66.0899 40.7454 66.227 40.7613 66.3573C40.8341 67.0041 40.9182 67.6486 41.0068 68.3846C40.1044 68.3846 39.2064 68.3983 38.3085 68.364C38.2107 68.3594 38.0562 68.0692 38.0448 67.9023C38.0107 67.3332 38.0266 66.7618 38.0334 66.1905C38.038 65.8111 37.8788 65.6282 37.4901 65.6351C36.9423 65.6465 36.3921 65.6465 35.842 65.6351C35.4215 65.6259 35.2714 65.8339 35.2805 66.2316C35.2919 66.7641 35.2987 67.2989 35.2805 67.8315C35.2646 68.252 35.4351 68.4189 35.8488 68.4074C36.3967 68.3914 36.9468 68.4074 37.4969 68.4029C37.7947 68.4029 37.9834 68.4783 38.0448 68.8303C38.1766 69.5936 38.3608 70.3456 38.5313 71.1432C39.2019 71.1432 39.8429 71.1318 40.484 71.1478C40.9409 71.1592 41.2182 71.3603 41.1955 71.8837C41.1705 72.4528 41.2001 73.0265 41.1864 73.5979C41.1773 73.9407 41.2728 74.0596 41.6524 74.0139C42.2117 73.943 42.7845 73.9224 43.3483 73.9636C43.5529 73.9796 43.8347 74.1876 43.9189 74.3818C44.1166 74.8344 44.2644 75.3235 44.3417 75.8126C44.4758 76.6674 44.3508 76.7839 43.4983 76.7885C43.0255 76.7885 42.5504 76.7954 42.0775 76.7885C41.3524 76.7748 41.216 76.6354 41.216 75.9246C41.216 75.3212 41.216 74.7178 41.216 74.071C40.4362 74.0321 39.7406 73.9887 39.045 73.9659C38.6381 73.9521 38.4222 74.1167 38.4563 74.583C38.4972 75.1132 38.4858 75.6503 38.4585 76.1805C38.4358 76.6377 38.6518 76.7954 39.0678 76.7908C39.5406 76.7839 40.0157 76.8022 40.4885 76.7885C40.9818 76.7748 41.3615 76.9645 41.4728 77.4467C41.5774 77.8947 41.6206 78.3724 41.607 78.8318C41.5911 79.3689 41.8184 79.5471 42.3139 79.5312C42.8436 79.5152 43.3733 79.5312 43.9052 79.5312C44.2235 79.5312 44.3849 79.6614 44.3735 80.0134C44.3553 80.6031 44.3621 81.1927 44.3712 81.7847C44.3781 82.1504 44.1985 82.3058 43.8552 82.3058C43.4006 82.3058 42.9459 82.2898 42.4913 82.3149C41.9252 82.3447 41.6365 82.6578 41.6229 83.2223C41.6115 83.6794 41.6183 84.1365 41.6229 84.5936C41.6274 85.3044 41.8934 85.5993 42.6027 85.4644C44.7895 85.0484 46.9923 84.9936 49.2041 85.0439C49.3746 85.0484 49.5451 85.0507 49.7156 85.0439C49.8838 85.0347 50.0498 85.0096 50.2771 84.9844C50.2771 84.2942 50.268 83.6314 50.2794 82.9686C50.2908 82.3195 50.6863 81.9195 51.3296 81.8898C51.5365 81.8807 51.7456 81.8875 51.9548 81.8875C53.0232 81.8875 53.0277 81.8875 53.0232 82.9869C53.0141 84.7125 53.3801 85.1261 51.0318 85.0484C50.4908 85.0302 50.2976 85.3433 50.2817 85.8187C50.268 86.2758 50.3044 86.7352 50.2703 87.1877C50.2339 87.6654 50.4294 87.8391 50.8886 87.8254C51.4751 87.8071 52.0616 87.814 52.6504 87.8254C53.2778 87.8368 53.4551 88.0219 53.4574 88.6322C53.4597 89.1076 53.4165 89.5898 53.4778 90.0583C53.5051 90.2595 53.7324 90.584 53.8893 90.5955C54.6349 90.6526 55.3851 90.6206 56.1898 90.6206C56.1898 89.5738 56.2057 88.6825 56.1716 87.7934C56.1671 87.6745 55.9102 87.4551 55.7875 87.4665C55.3646 87.5077 54.9327 87.5831 54.5349 87.7294C53.8643 87.9785 53.2278 87.8002 53.1005 87.1306C52.9732 86.4723 53.0187 85.7684 53.0709 85.0919C53.0823 84.9433 53.4415 84.733 53.6574 84.7102C54.1826 84.6531 54.719 84.717 55.2442 84.6713C55.4192 84.6576 55.717 84.4656 55.7215 84.3491C55.7443 83.5171 55.7056 82.6852 55.6874 81.8533C56.3853 81.8647 57.0832 81.8738 57.7811 81.883C58.4494 81.8921 58.554 82.0041 58.6404 82.6578C58.7154 83.2292 58.8177 83.796 58.9495 84.3559C58.9791 84.4816 59.1769 84.6508 59.2974 84.653C59.9179 84.6622 60.5408 84.6348 61.1614 84.5913C61.2546 84.5845 61.3683 84.4565 61.4251 84.3582C61.8798 83.5583 61.6843 82.7058 61.5956 81.867C61.5865 81.7756 61.4183 81.6864 61.3092 81.627C60.7181 81.3116 60.1498 81.451 59.6042 81.7458C59.0314 82.0544 58.745 81.9904 58.6563 81.3916C58.5495 80.6671 58.5335 79.9265 58.5335 79.1906C58.5335 78.8683 58.7222 78.6512 59.1223 78.6741C59.6884 78.7061 60.2589 78.6786 60.825 78.6832C61.1955 78.6855 61.3887 78.5187 61.3865 78.137C61.3865 77.5656 61.3819 76.9942 61.3865 76.4228C61.391 76.0617 61.2182 75.9063 60.8659 75.9109C60.2976 75.9177 59.7293 75.9269 59.161 75.9086C58.7654 75.8949 58.6154 76.0731 58.6222 76.4525C58.6313 77.0033 58.6427 77.5587 58.6108 78.1073C58.5995 78.2878 58.5017 78.5507 58.3653 78.6215C57.7538 78.9301 57.1423 79.2203 56.399 79.1289C55.9148 79.0672 55.7352 78.8821 55.742 78.4272C55.7488 78.009 55.7465 77.5907 55.742 77.1702C55.7352 76.6674 55.4715 76.3931 54.9805 76.3771C54.3758 76.3588 53.7688 76.3634 53.1619 76.3771C52.7231 76.3862 52.4776 76.6308 52.564 77.0696C52.6572 77.5542 52.8209 78.0227 52.9573 78.4981C53.0959 78.9803 53.4551 79.1129 53.9075 79.1083C54.5054 79.1015 55.1032 79.1083 55.6965 79.1083V81.8601C54.9782 81.867 54.2576 81.8693 53.5392 81.8784C53.171 81.883 52.9891 81.755 53.0118 81.339C53.0437 80.7699 53.0118 80.1962 53.0141 79.6249C53.0141 79.2706 52.8504 79.1015 52.4958 79.106C51.8138 79.1106 51.1319 79.0923 50.4499 79.1129C49.8816 79.1312 49.7338 79.4603 49.902 79.9905C50.0793 80.5482 50.1703 81.1379 50.268 81.7184C50.3362 82.1321 50.1089 82.3058 49.7065 82.3012C49.0428 82.2944 48.3812 82.2921 47.7174 82.3012C47.2787 82.3081 47.115 82.0727 47.115 81.6658C47.115 81.1699 47.131 80.6739 47.1105 80.1802C47.09 79.682 47.3151 79.522 47.7925 79.5083C48.2539 79.4946 48.729 79.426 49.1655 79.282C49.4178 79.1997 49.7793 78.9415 49.7997 78.7312C49.8748 77.9656 49.8293 77.1862 49.8293 76.3634C49.0723 76.3634 48.3949 76.3497 47.7174 76.368C47.2764 76.3794 47.0991 76.1874 47.1128 75.7554C47.1264 75.2618 47.1332 74.7635 47.1128 74.2698C47.0923 73.7899 47.2696 73.5613 47.772 73.5865C48.263 73.6093 48.7586 73.6093 49.2496 73.5842C49.877 73.5499 50.0907 73.2048 49.8861 72.6288C49.8429 72.5077 49.8452 72.3683 49.8316 72.238C49.702 71.0244 49.4065 70.757 48.1971 70.7524C47.8948 70.7524 47.5901 70.7364 47.2878 70.7524C46.9195 70.773 46.7741 70.6084 46.7786 70.2496C46.7877 69.6782 46.7854 69.1068 46.7786 68.5354C46.7741 68.156 46.9355 67.98 47.3265 67.9892C47.8561 68.0029 48.3881 67.9869 48.9177 67.9892C49.3201 67.9937 49.5019 67.8018 49.4974 67.3995C49.4906 66.771 49.5224 66.1425 49.4929 65.5139C49.4678 64.9814 49.7452 64.8054 50.2021 64.794C50.6568 64.7848 51.1114 64.7848 51.566 64.7917C52.073 64.7986 52.3458 64.5997 52.3094 64.0443C52.2798 63.6078 52.3321 63.1667 52.2958 62.7324C52.2503 62.1862 52.4458 61.9576 53.0027 61.9965C53.4938 62.0308 53.9871 62.0011 54.4803 62.0033C54.8441 62.0056 55.0532 61.8548 55.0487 61.4662C55.0418 60.7806 55.0509 60.0949 55.0327 59.4093C55.0214 58.9704 54.5144 58.6276 54.178 58.8699C53.6256 59.2653 53.0368 59.2881 52.414 59.2424C52.0321 59.2127 51.8161 59.4024 51.8798 59.7841C51.9639 60.2915 52.0639 60.8011 52.2276 61.2857C52.3821 61.7405 52.2844 61.9942 51.8002 61.9988C50.9114 62.0079 50.0202 61.9782 49.1314 61.9668L49.1473 61.9851C49.1473 61.0731 49.1473 60.1612 49.1496 59.2493L49.1337 59.263C49.852 59.2561 50.5704 59.2401 51.291 59.2447C51.6911 59.247 51.882 59.087 51.8729 58.671C51.8593 58.0425 51.8934 57.414 51.8616 56.7877C51.8343 56.2392 52.073 56.0472 52.5913 56.0632C53.246 56.0838 53.9007 56.0678 54.6145 56.0678C54.6145 55.3227 54.6417 54.6576 54.6054 53.9971C54.5758 53.4577 54.7941 53.2931 55.3033 53.3183C55.958 53.3503 56.6149 53.3251 57.3401 53.3251C57.3401 52.4475 57.3287 51.6544 57.3446 50.859C57.3537 50.3928 57.5265 50.0843 58.0857 50.1162C58.7404 50.1528 59.3974 50.1254 60.0452 50.1254V47.3645H58.2903C56.9241 47.3645 56.9195 47.3645 56.9241 45.9954C56.9309 44.3498 56.7763 44.647 58.2653 44.6241C59.9907 44.599 59.8293 44.8686 59.7838 43.0791C59.7634 42.302 59.968 41.7672 60.7272 41.5546C61.0591 41.4609 61.416 41.4312 61.7638 41.4335C62.4867 41.4358 62.5413 41.5043 62.5458 42.2151C62.5504 42.7088 62.5595 43.2048 62.5435 43.6985C62.5322 44.0276 62.6345 44.1921 62.9891 44.1876C63.7279 44.1761 64.4644 44.1876 65.2032 44.183C65.6442 44.183 65.7602 43.9087 65.6806 43.5385C65.5692 43.0151 65.4101 42.5031 65.2919 41.982C65.2055 41.6049 65.0259 41.4015 64.6054 41.4175C63.9325 41.4426 63.2573 41.4243 62.5276 41.4243C62.5276 40.6884 62.5163 40.0256 62.5322 39.3628C62.5435 38.8851 62.3276 38.6794 61.8616 38.6817C61.1819 38.684 60.5022 38.6703 59.8225 38.6634L59.8429 38.684C59.7134 38.1834 59.577 37.6829 59.4542 37.1801C59.1996 36.131 59.3837 35.8499 60.2862 35.9185C60.6818 35.9482 61.0796 35.9185 61.4751 35.9253C61.9161 35.9322 62.123 35.7242 62.1162 35.2785C62.1071 34.746 62.1435 34.2135 62.1071 33.6832C62.073 33.1964 62.3299 33.1233 62.7186 33.1141C62.9846 33.1073 63.2528 33.0433 63.5142 32.9838C63.8097 32.9176 64.1053 32.8444 64.3871 32.7393C64.5508 32.6776 64.8122 32.545 64.8122 32.4422C64.8282 31.6125 64.7918 30.7806 64.7736 29.9509C65.6011 29.9624 66.4285 29.9829 67.2537 29.9692C67.3583 29.9692 67.5447 29.7749 67.5492 29.6675C67.5742 28.879 67.5629 28.0905 67.5629 27.2471H66.258C64.9214 27.2471 64.935 27.2471 64.9168 28.5659C64.91 29.0321 64.8304 29.4961 64.785 29.9624C64.0484 29.9784 63.3119 30.0286 62.5799 29.9829C62.414 29.9715 62.1616 29.6355 62.1366 29.4275C62.073 28.9019 62.123 28.3648 62.1139 27.8322C62.1071 27.4323 62.273 27.2357 62.6868 27.2449C63.2346 27.2586 63.787 27.2791 64.3326 27.2289C64.5122 27.2106 64.8191 26.9729 64.8168 26.8403C64.8077 26.2689 64.7509 25.6884 64.6213 25.133C64.519 24.6896 64.5849 24.4908 65.0532 24.4519C65.6533 24.4016 66.2558 24.3605 66.8559 24.3285C67.5219 24.2942 67.7493 23.9308 67.5265 23.3023C67.4106 22.9755 67.3333 22.6258 67.306 22.2807C67.2287 21.2522 67.2492 21.2522 68.2812 21.2407C68.8564 21.2339 69.4337 21.2019 70.0521 21.179V18.5849C70.709 18.5232 71.3274 18.4958 71.9343 18.3998C72.6163 18.2924 72.7686 18.0684 72.7709 17.369C72.7709 16.7245 72.7709 16.0823 72.7709 15.3852C73.055 15.3555 73.2914 15.3143 73.5301 15.3075C73.9848 15.296 74.4394 15.3029 74.8918 15.3006C75.3192 15.3006 75.5556 15.1338 75.526 14.6515C75.4965 14.1578 75.5147 13.6619 75.5215 13.1682C75.5306 12.6997 75.7215 12.4597 76.2467 12.4437C76.7627 12.4277 77.2901 12.3226 77.7788 12.1603C77.9766 12.094 78.2085 11.7763 78.2221 11.5592C78.2721 10.821 78.2335 10.0782 78.2289 9.33536L78.213 9.35364C78.8518 9.34907 79.4951 9.30336 80.1294 9.35364C80.8682 9.41307 81.0182 9.32164 81.0227 8.59941C81.0227 8.12402 81.0068 7.64634 81.0273 7.17095C81.0478 6.71384 80.8863 6.51043 80.4044 6.52871C79.7429 6.55614 79.0769 6.55614 78.4176 6.515C78.2585 6.50586 78.0016 6.30702 77.9789 6.16531C77.8925 5.58936 77.8538 5.00197 77.847 4.41688C77.8425 4.00548 77.6697 3.81806 77.2787 3.80435C76.7309 3.78607 76.1807 3.78835 75.6329 3.75407C75.2533 3.73121 75.1259 3.90263 75.1328 4.25689C75.1419 4.75285 75.1009 5.24881 75.1419 5.7402C75.1851 6.25902 74.9123 6.53557 74.4872 6.6567C74.003 6.79612 73.4983 6.91954 72.9982 6.93097C72.4572 6.94468 72.3026 7.16181 72.3321 7.66234C72.3594 8.13773 72.3162 8.61541 72.3435 9.08852C72.3731 9.56391 72.1707 9.72619 71.7161 9.72847C71 9.73304 70.2817 9.78104 69.5679 9.81075V6.99725H66.865C66.865 7.70348 66.8877 8.364 66.8582 9.02224C66.8354 9.51363 67.0082 9.69876 67.506 9.69647C68.1994 9.6919 68.8904 9.75818 69.5838 9.79475C69.5906 10.4987 69.6474 11.2049 69.5838 11.902C69.5588 12.1626 69.2996 12.5191 69.0632 12.6151C68.5472 12.8185 67.9811 12.9099 67.4287 12.9922C67.0855 13.0448 66.8627 12.8619 66.8673 12.4688C66.8741 11.8792 66.8604 11.2872 66.8718 10.6975C66.8786 10.309 66.6968 10.1422 66.324 10.1422C65.7943 10.1422 65.2623 10.149 64.7327 10.1422C64.3099 10.1353 64.103 10.3113 64.1189 10.7547C64.1348 11.2301 64.0984 11.7077 64.128 12.1831C64.1598 12.6928 63.9848 12.9259 63.4506 12.8894C62.9596 12.8551 62.464 12.9054 61.973 12.8757C61.5183 12.8505 61.3751 13.0425 61.391 13.4768C61.4137 14.1418 61.3819 14.8092 61.4024 15.4766C61.416 15.9177 61.2387 16.096 60.7977 16.0823C60.1044 16.0617 59.4087 16.0777 58.6677 16.0777C58.6677 17.0239 58.6677 17.897 58.6677 18.7678C57.8925 18.7838 57.1196 18.8112 56.3444 18.8135C55.9875 18.8135 55.7556 18.9163 55.7579 19.3186C55.7579 20.0408 55.7397 20.7653 55.7647 21.4876C55.7806 21.9881 56.0921 22.1367 56.524 21.9287C56.7695 21.8121 57.0446 21.7276 57.3151 21.7001C57.7084 21.6613 58.1107 21.7047 58.5063 21.675C58.6495 21.6636 58.8973 21.547 58.9041 21.467C58.9314 21.0739 58.9814 20.6419 58.8541 20.2854C58.6745 19.7894 58.4472 19.3369 58.7131 18.8112L58.6904 18.8089ZM10.5158 83.8874C11.2933 83.8874 11.957 83.8714 12.6186 83.8942C13.0573 83.9102 13.246 83.732 13.2369 83.2954C13.2255 82.7423 13.2164 82.1892 13.2505 81.6384C13.2596 81.467 13.3687 81.2545 13.5006 81.147C14.0575 80.6854 14.7259 80.6305 15.4147 80.6991C15.8398 80.7425 15.9989 80.5208 15.9989 80.1277C15.9989 79.5746 15.9852 79.0215 16.0034 78.4707C16.0171 78.0798 15.8534 77.9084 15.4692 77.9198C14.9395 77.9358 14.4099 77.9541 13.8802 77.9541C13.1937 77.9541 12.9209 77.705 12.8595 77.0148C12.8277 76.6559 12.8277 76.2925 12.8368 75.9314C12.8527 75.3303 12.7345 75.1955 12.1253 75.1841C11.7275 75.1772 11.3296 75.1772 10.9318 75.1841C10.343 75.1978 10.1157 75.4218 10.1021 76.0183C10.0907 76.5714 10.0703 77.1245 10.1089 77.6753C10.1407 78.1393 9.94296 78.2924 9.52013 78.2855C8.97001 78.2787 8.42216 78.2855 7.87203 78.2924C7.51058 78.2992 7.32191 78.4547 7.34236 78.8569C7.36964 79.3689 7.38101 79.8877 7.34009 80.3997C7.29463 80.9779 7.56287 81.1356 8.0789 81.115C8.64721 81.0922 9.21779 81.1356 9.78383 81.1036C10.3271 81.0739 10.5431 81.291 10.5226 81.8327C10.4976 82.4932 10.5158 83.1537 10.5158 83.8874ZM6.49445 56.9134C6.49445 57.2746 6.4899 57.6357 6.49445 57.9991C6.50126 58.3602 6.66721 58.5956 7.04684 58.543C7.46057 58.4859 7.89476 58.4356 8.26985 58.2688C8.91545 57.9831 9.24507 58.1316 9.27917 58.8424C9.29963 59.279 9.28826 59.7178 9.28599 60.1543C9.2769 61.4731 9.3951 61.2423 8.15846 61.2674C6.21938 61.3063 6.52172 60.9154 6.49445 63.0204C6.49445 63.0958 6.4899 63.1758 6.50581 63.249C6.61265 63.7175 6.85816 64.0398 7.38328 64.0443C8.00843 64.0489 8.63129 64.0443 9.25644 64.0558C9.54968 64.0603 9.65198 63.9278 9.64516 63.6375C9.63152 63.0478 9.63379 62.4582 9.64516 61.8685C9.65653 61.2445 10.0089 60.8811 10.6181 60.8629C11.0159 60.8514 11.4137 60.872 11.8116 60.8583C12.2594 60.8423 12.414 61.064 12.4026 61.4891C12.3867 62.0216 12.4162 62.5564 12.3935 63.0867C12.3776 63.4752 12.5254 63.6535 12.9118 63.6489C13.5165 63.6421 14.1235 63.6421 14.7281 63.6489C15.0327 63.6535 15.1851 63.5324 15.1828 63.2147C15.176 62.5862 15.1828 61.9576 15.1782 61.3314C15.176 61.016 15.0418 60.84 14.6918 60.8583C14.3144 60.8789 13.9348 60.8629 13.5551 60.8629C12.4413 60.8606 12.1071 60.5292 12.098 59.423C12.0904 58.556 12.5117 58.1217 13.3619 58.1202C14.96 58.1156 14.8713 58.3213 14.8577 56.6255C14.8463 55.133 15.0441 55.3501 13.5529 55.3387C12.0139 55.3273 12.0139 55.3364 12.0139 56.8974C12.0139 57.6989 11.6153 58.0996 10.8182 58.0996C9.78913 58.0996 9.27462 57.5869 9.27462 56.5615C9.27462 55.7448 8.86392 55.3364 8.04252 55.3364C7.01047 55.3364 6.4952 55.8636 6.49672 56.918L6.49445 56.9134ZM28.2539 31.5782V34.5129C28.9768 34.4534 29.6543 34.362 30.334 34.3506C30.8 34.3437 30.9841 34.1883 30.9682 33.7175C30.9455 33.0204 30.9614 32.321 30.9614 31.6262H33.712C33.712 32.3416 33.7279 33.0067 33.7074 33.6695C33.6915 34.1632 33.8825 34.3552 34.3803 34.3255C34.9282 34.2912 35.4783 34.3369 36.0262 34.3049C36.1626 34.2957 36.4035 34.1289 36.4058 34.0306C36.4353 33.0684 36.424 32.1039 36.424 31.0411C36.1785 31.1348 36.0352 31.208 35.8807 31.2423C35.3828 31.3565 34.885 31.5142 34.3826 31.5417C33.9461 31.5645 33.6574 31.3223 33.7052 30.7874C33.7484 30.2778 33.6984 29.7589 33.7188 29.247C33.7325 28.8973 33.5938 28.7784 33.2528 28.7876C32.6277 28.8059 32.0025 28.7967 31.3796 28.7899C30.6522 28.783 30.5499 28.6825 30.5476 27.9762C30.5454 27.4803 30.5385 26.9866 30.5476 26.4906C30.5545 26.1158 30.3908 25.917 30.0134 25.9147C29.4451 25.9124 28.8768 25.9147 28.3108 25.9147C27.9266 25.9147 27.7766 26.1158 27.7856 26.4929C27.7993 27.0254 27.8084 27.5603 27.7834 28.0905C27.7606 28.5636 27.9902 28.7487 28.4222 28.7579C28.8768 28.767 29.3315 28.7784 29.7838 28.7693C30.2248 28.7602 30.5295 28.991 30.6522 29.3681C30.8159 29.8641 30.9182 30.3852 30.9864 30.904C31.0478 31.3702 30.7886 31.5919 30.3135 31.5828C29.6543 31.5691 28.9927 31.5782 28.2539 31.5782ZM25.7284 43.0425C24.9214 43.6299 24.0484 43.4105 23.2096 43.4608C22.8322 43.4836 22.6936 43.2962 22.689 42.9579C22.6822 42.5008 22.6072 42.0254 22.7095 41.5935C22.8004 41.2072 23.0096 40.7181 23.3164 40.5444C23.7211 40.3159 24.2735 40.2976 24.7645 40.2884C25.2919 40.2793 25.4715 40.0164 25.4806 39.5593C25.4942 39.0268 25.4669 38.4943 25.4897 37.9617C25.5056 37.5915 25.326 37.5092 25.0077 37.5161C24.4031 37.5275 23.7961 37.5343 23.1914 37.5138C22.8232 37.5001 22.6822 37.6349 22.6913 38.0075C22.7072 38.7114 22.6936 39.4154 22.6913 40.1193C22.6913 40.5261 22.539 40.7501 22.0821 40.725C21.5547 40.6953 21.0205 40.741 20.4931 40.7113C20.0453 40.6861 19.8748 40.8758 19.8839 41.3078C19.8952 41.8403 19.8793 42.3728 19.8861 42.9054C19.8929 43.2939 19.7702 43.4973 19.3292 43.4676C18.7836 43.431 18.2312 43.4722 17.6834 43.4539C17.3128 43.4425 17.1651 43.6139 17.1651 43.9613C17.1651 44.6835 17.1491 45.408 17.1696 46.1303C17.1855 46.6331 17.5742 46.8754 17.9743 46.5897C18.4744 46.2331 19.0109 46.208 19.5724 46.2171C19.7861 46.2217 19.9998 46.2171 20.2839 46.2171C19.9384 45.2778 19.7088 44.4253 20.0521 43.4562C20.5817 43.4562 21.1273 43.4562 21.6729 43.4562C22.7709 43.4562 23.2551 44.0047 23.1391 45.1223C23.1255 45.2526 23.0778 45.3829 23.0709 45.5132C23.0437 45.952 23.1641 46.2491 23.6938 46.2217C24.203 46.1943 24.7168 46.1965 25.226 46.2217C25.7102 46.2468 25.8625 45.9908 25.8625 45.568C25.8625 44.9212 25.8716 44.2744 25.8579 43.6276C25.8534 43.4493 25.7806 43.2711 25.7261 43.0425H25.7284ZM11.7525 49.394C11.7161 49.5174 11.6911 49.5563 11.6956 49.5906C11.8297 50.4774 11.923 51.371 12.1207 52.2441C12.2344 52.7469 12.6436 52.6601 13.0368 52.5046C13.3915 52.3652 13.7688 52.1984 14.1348 52.1984C14.669 52.1961 14.8395 51.9835 14.8236 51.4853C14.8077 50.9733 14.8191 50.4568 14.8372 49.9448C14.8486 49.586 15.0146 49.394 15.4101 49.41C15.9193 49.4329 16.4353 49.4443 16.9423 49.3986C17.1219 49.3826 17.4287 49.1883 17.431 49.0695C17.4469 48.4227 17.4219 47.7713 17.3287 47.1336C17.3037 46.9622 16.9946 46.7154 16.8036 46.7039C16.0193 46.6559 15.2305 46.6834 14.4099 46.6834C14.4099 47.4285 14.3985 48.1141 14.4144 48.7975C14.4258 49.2386 14.2417 49.4146 13.8052 49.4032C13.1255 49.3849 12.4458 49.3986 11.7525 49.3986V49.394ZM102.707 51.0328C102.707 51.9378 102.689 52.788 102.716 53.6383C102.728 54.004 102.957 54.2554 103.351 54.1845C104.083 54.0519 104.812 53.8988 105.533 53.7114C105.851 53.6291 105.919 53.3343 105.842 53.0257C105.681 52.3721 105.515 51.7207 105.342 51.035H102.707V51.0328ZM29.5474 66.0647C29.6383 66.8875 29.7406 67.5823 29.777 68.2817C29.7929 68.604 29.8407 68.796 30.1976 68.8005C30.8022 68.8051 31.4092 68.8485 32.0116 68.8074C32.1889 68.796 32.4844 68.5674 32.4935 68.4211C32.5504 67.6258 32.5595 66.8258 32.5367 66.0282C32.5254 65.6259 32.0593 65.5139 31.4183 65.6785C30.9477 65.7996 30.4635 65.8613 29.9861 65.955C29.7884 65.9939 29.5929 66.051 29.5429 66.0647H29.5474ZM60.2362 56.0998C60.2362 55.1239 60.243 54.2736 60.2294 53.4234C60.2294 53.3023 60.1589 53.1492 60.068 53.0715C59.9566 52.9777 59.777 52.8795 59.6497 52.9023C59.0428 53.012 58.4449 53.1926 57.8357 53.2863C57.5015 53.3389 57.2992 53.4257 57.306 53.7937C57.3151 54.3834 57.2833 54.9776 57.3469 55.5604C57.3674 55.7547 57.6242 56.0632 57.7902 56.0747C58.5926 56.1295 59.4019 56.0998 60.2362 56.0998ZM25.5738 34.6751C25.3624 33.7221 25.2192 32.9518 25.0009 32.1999C24.9555 32.0422 24.6418 31.8822 24.4417 31.8639C23.8984 31.8182 23.3483 31.8639 22.8004 31.8434C22.4572 31.8296 22.3117 31.9759 22.3117 32.3028C22.3117 32.9678 22.2935 33.6306 22.3276 34.2935C22.3344 34.426 22.5299 34.6546 22.6458 34.6591C23.5801 34.6889 24.5144 34.6751 25.5761 34.6751H25.5738ZM75.9307 20.7036C75.9307 20.0545 75.9102 19.3163 75.9398 18.5804C75.9557 18.185 75.7852 18.0913 75.4397 18.0981C74.8168 18.1118 74.1939 18.0981 73.5688 18.1004C72.8027 18.1004 72.4799 18.4958 72.8209 19.1746C73.105 19.7391 73.2278 20.2854 73.2255 20.8979C73.2255 20.9848 73.4688 21.163 73.5779 21.147C74.328 21.0282 75.0714 20.8705 75.9307 20.7036ZM15.0418 86.6186C15.0418 86.6186 15.0418 86.6209 15.0418 86.6232C15.3055 86.6232 15.5715 86.6095 15.8352 86.6255C16.2512 86.6529 16.4694 86.4518 16.399 86.0541C16.2785 85.3707 16.1262 84.6896 15.9375 84.0222C15.9011 83.8965 15.6306 83.7685 15.4647 83.764C14.9623 83.748 14.4599 83.8074 13.9552 83.812C13.5665 83.8143 13.2687 83.9331 13.246 84.3628C13.221 84.8542 13.2096 85.3524 13.2573 85.8415C13.3028 86.3055 13.5915 86.5958 14.0803 86.6163C14.4008 86.63 14.7213 86.6186 15.0418 86.6186ZM3.76655 61.272C2.94136 61.272 2.18665 61.2445 1.43875 61.2948C1.28872 61.304 1.04775 61.5965 1.03866 61.7702C0.993195 62.5107 0.993195 63.2558 1.03866 63.994C1.05003 64.1655 1.28417 64.4283 1.45466 64.4672C2.25485 64.6386 2.97092 64.3826 3.60061 63.8821C3.68699 63.8135 3.75746 63.6672 3.75973 63.5552C3.77337 62.8353 3.76655 62.113 3.76655 61.272ZM75.1987 66.9355C75.9739 66.7756 76.599 66.6498 77.2196 66.515C77.6629 66.419 77.9721 66.2019 77.9539 65.6785C77.938 65.2237 77.9266 64.7666 77.9584 64.314C77.9925 63.8249 77.7425 63.6741 77.3196 63.6718C76.7922 63.6718 76.2626 63.6809 75.7352 63.6672C75.3078 63.6581 75.1078 63.8432 75.1169 64.2775C75.1282 64.8077 75.1078 65.3402 75.1214 65.8705C75.1305 66.2179 75.1714 66.5653 75.201 66.9355H75.1987ZM96.8195 39.8427C96.8195 40.853 96.8059 41.7992 96.8422 42.7431C96.8468 42.8345 97.1787 43.0036 97.3378 42.9808C97.9357 42.8939 98.5222 42.7157 99.12 42.6265C99.4224 42.5808 99.5633 42.4734 99.561 42.1717C99.561 41.5638 99.5656 40.9558 99.561 40.3479C99.561 39.9959 99.3678 39.8382 99.0246 39.8405C98.3267 39.845 97.6288 39.8405 96.8195 39.8405V39.8427ZM40.6386 28.4219C40.6386 28.4082 40.6408 28.3968 40.6431 28.383C40.9455 28.383 41.2569 28.4242 41.5479 28.3671C41.7115 28.3351 41.9593 28.1522 41.9684 28.0219C42.0321 27.2083 42.0321 26.3901 42.0662 25.5764C42.0798 25.2656 41.9207 25.1559 41.6502 25.197C41.0637 25.2884 40.4772 25.389 39.8952 25.5033C39.3997 25.6015 39.1951 25.9055 39.2837 26.4198C39.3178 26.6232 39.2814 26.838 39.2905 27.046C39.311 27.4574 39.1882 28.0356 39.4065 28.2391C39.6565 28.4722 40.2135 28.3739 40.6363 28.4196L40.6386 28.4219ZM87.6083 63.3221C87.3242 63.3221 87.04 63.3381 86.7581 63.3175C86.3444 63.2878 86.133 63.4684 86.1853 63.8798C86.258 64.4512 86.3353 65.0271 86.4694 65.5871C86.5604 65.9619 86.8127 66.1699 87.2651 66.1105C87.7106 66.051 88.1721 66.0693 88.6222 66.1013C89.0837 66.1356 89.3042 65.9368 89.3178 65.4957C89.3314 65.0591 89.3428 64.6203 89.3178 64.1838C89.2837 63.6238 88.9655 63.3404 88.404 63.3244C88.1403 63.3175 87.8743 63.3244 87.6083 63.3244V63.3221ZM107.847 40.6381C107.847 40.6381 107.827 40.6381 107.817 40.6381C107.842 40.9581 107.815 41.2964 107.911 41.5935C107.977 41.7992 108.193 42.0643 108.381 42.1031C108.984 42.2243 109.602 42.254 110.216 42.3134C110.327 42.3248 110.466 42.3431 110.55 42.2883C111.055 41.9592 111.009 41.4243 111 40.9238C110.991 40.4278 111.073 39.781 110.489 39.6165C109.816 39.4268 109.084 39.4154 108.377 39.4154C108.199 39.4154 107.967 39.7399 107.865 39.9616C107.779 40.149 107.847 40.4073 107.847 40.6358V40.6381ZM96.7581 48.4752C97.6356 48.5209 98.3903 48.5301 99.1382 48.6101C99.627 48.6626 99.9157 48.5118 99.8588 48.0204C99.7634 47.1953 99.5906 46.3794 99.4701 45.6663C98.7154 45.7006 97.9652 45.7212 97.2151 45.7806C97.0923 45.7897 96.8877 45.9588 96.8786 46.0663C96.8172 46.8525 96.7945 47.6433 96.7581 48.4729V48.4752ZM67.6265 25.7135C67.6265 26.0175 67.6197 26.3215 67.6265 26.6255C67.6402 27.2608 67.9902 27.4803 68.5381 27.1397C68.9723 26.87 69.3951 26.7466 69.902 26.8037C70.0362 26.8197 70.3112 26.63 70.3226 26.5135C70.3931 25.821 70.434 25.1239 70.4181 24.4291C70.4158 24.2965 70.1248 24.1205 69.9361 24.0611C69.7293 23.9948 69.486 24.0405 69.261 24.0405C68.1698 24.0405 67.6242 24.5982 67.6242 25.7135H67.6265ZM69.3246 32.7416C69.552 32.7416 69.7793 32.721 70.0021 32.7461C70.5499 32.8033 70.7568 32.545 70.734 32.0216C70.7181 31.6628 70.7363 31.3017 70.7295 30.9406C70.7159 30.3235 70.4044 29.9966 69.8066 29.9829C69.2974 29.9715 68.7859 30.0104 68.2812 29.9715C67.8266 29.9349 67.6856 30.1749 67.6424 30.552C67.6242 30.7029 67.6288 30.8537 67.6265 31.0068C67.5924 32.6227 67.7106 32.7439 69.3246 32.7439V32.7416ZM58.1948 8.88282C58.1948 8.46457 58.2312 8.04174 58.1744 7.63263C58.1562 7.49321 57.8879 7.26466 57.7652 7.28294C57.1196 7.38122 56.474 7.51378 55.8511 7.71034C55.6693 7.76748 55.4692 8.06917 55.451 8.27487C55.3965 8.8394 55.4465 9.41307 55.426 9.98217C55.4101 10.4461 55.6397 10.5855 56.0534 10.5604C56.4854 10.533 56.9195 10.5056 57.3515 10.4987C58.1698 10.485 58.1926 10.4667 58.1926 9.62562C58.1926 9.37878 58.1926 9.13194 58.1926 8.88511L58.1948 8.88282ZM66.8468 77.0422C66.8468 76.7771 66.8354 76.5097 66.8491 76.2445C66.8695 75.8423 66.699 75.6343 66.2921 75.6389C65.8193 75.6412 65.3465 75.6229 64.8782 75.6549C64.4076 75.6892 64.1189 75.9429 64.1212 76.4548C64.1234 77.0239 64.1371 77.593 64.1166 78.1621C64.103 78.5598 64.2962 78.7106 64.6531 78.7221C64.8236 78.7289 64.9918 78.7266 65.1623 78.7266C66.6036 78.7175 66.9309 78.6969 66.8445 77.0399L66.8468 77.0422ZM93.0164 51.7207C92.6777 51.7207 92.3367 51.7298 91.998 51.7184C91.5569 51.7024 91.3637 51.9264 91.4047 52.3424C91.4615 52.9069 91.5069 53.4783 91.6365 54.0268C91.7252 54.3993 91.9479 54.7193 92.4435 54.6325C92.8845 54.5571 93.3324 54.4839 93.7779 54.4702C94.1712 54.4588 94.3758 54.2988 94.4212 53.9171C94.4508 53.6726 94.494 53.4303 94.494 53.1857C94.5 52.1649 94.0068 51.6765 93.0141 51.7207H93.0164ZM76.749 72.3294V72.3248C77.1651 72.3248 77.5833 72.3568 77.9948 72.3066C78.138 72.2883 78.3835 72.0483 78.3653 71.95C78.2562 71.3283 78.1107 70.709 77.922 70.1079C77.8129 69.7605 77.5879 69.4931 77.131 69.5296C76.6422 69.5685 76.1489 69.5593 75.6579 69.5319C75.2805 69.5113 75.1373 69.7102 75.1282 70.0324C75.1123 70.6404 75.1169 71.2483 75.1237 71.8563C75.1259 72.174 75.276 72.3454 75.6147 72.334C75.9921 72.3203 76.3694 72.3317 76.749 72.3317V72.3294ZM107.815 34.1038C107.815 34.6683 107.849 35.3699 107.802 36.0647C107.774 36.467 107.899 36.6338 108.277 36.6384C108.9 36.6453 109.525 36.6339 110.148 36.6453C110.495 36.6521 110.618 36.4693 110.618 36.1516C110.618 35.4294 110.629 34.7071 110.614 33.9872C110.604 33.5347 110.323 33.3335 109.909 33.4592C109.266 33.6512 108.627 33.8546 107.815 34.1038ZM21.4751 79.1769C21.4751 78.7975 21.491 78.4158 21.4706 78.0387C21.4456 77.5473 21.2751 77.4719 20.8386 77.6799C20.5886 77.7987 20.318 77.9267 20.0498 77.9427C18.7177 78.0227 18.7177 78.009 18.7177 79.3414C18.7177 79.3803 18.7177 79.4169 18.7177 79.4557C18.7313 80.8728 18.5631 80.6831 19.9611 80.6899C21.4774 80.6991 21.4774 80.6899 21.4751 79.1769ZM34.7463 25.4804C34.7372 25.517 34.7281 25.5558 34.7168 25.5924C34.6031 25.5924 34.4917 25.5924 34.3781 25.5924C33.3596 25.5924 33.3528 25.5924 33.3846 26.6323C33.3937 26.9317 33.3846 27.2746 33.5188 27.5214C33.6938 27.8414 33.5961 28.4173 34.2053 28.4082C34.7691 28.4013 35.3351 28.4288 35.8943 28.3876C36.0716 28.3739 36.3717 28.1956 36.3808 28.0722C36.4331 27.4346 36.4194 26.7877 36.4012 26.1455C36.399 26.0472 36.2694 25.8987 36.1694 25.8667C35.7011 25.7204 35.2214 25.6061 34.7463 25.4804ZM70.0066 81.1539C70.0066 81.9721 70.0157 82.7515 70.0021 83.5286C69.9975 83.8302 70.1225 83.9285 70.409 83.924C71.1273 83.9148 71.8479 83.908 72.5663 83.9262C72.9573 83.9354 73.055 83.7823 72.9959 83.4097C72.8982 82.804 72.8641 82.1847 72.7436 81.5836C72.7118 81.419 72.4754 81.1813 72.323 81.1722C71.5911 81.1287 70.8545 81.1539 70.0066 81.1539ZM69.7111 75.6229C69.8566 76.56 69.9839 77.3782 70.1225 78.2878C70.7863 78.3152 71.4956 78.3472 72.2048 78.3701C72.6072 78.3838 72.7754 78.1872 72.7572 77.7736C72.7322 77.2045 72.7368 76.6354 72.7572 76.0663C72.7709 75.7097 72.6549 75.5452 72.2821 75.5429C71.6229 75.5383 70.9636 75.4835 70.3067 75.4857C70.0725 75.4857 69.8384 75.5932 69.7134 75.6252L69.7111 75.6229ZM103.628 42.6105C103.967 42.6105 104.31 42.6357 104.644 42.5968C104.771 42.5831 104.978 42.4323 104.985 42.334C105.042 41.5226 105.096 40.7067 105.074 39.8953C105.062 39.5433 104.878 39.2462 104.401 39.5525C104.148 39.7148 103.819 39.8062 103.516 39.8267C102.291 39.9136 102.289 39.8976 102.289 41.1204C102.289 41.1386 102.289 41.1592 102.289 41.1775C102.289 42.0811 102.734 42.5587 103.626 42.6105H103.628ZM91.6024 60.0423C92.514 60.0812 93.3392 60.1178 94.1644 60.1475C94.5485 60.1612 94.7577 60.0995 94.6236 59.5852C94.4872 59.0687 94.519 58.5042 94.4917 57.9602C94.4758 57.6334 94.3712 57.4163 94.0075 57.3911C93.4051 57.3523 92.8004 57.3248 92.2025 57.2426C91.857 57.1946 91.7343 57.3728 91.7161 57.6334C91.6615 58.3876 91.6411 59.1441 91.6024 60.0401V60.0423ZM34.86 54.1959C34.86 55.0142 34.8373 55.7707 34.8804 56.5226C34.8895 56.6666 35.1578 56.8974 35.3169 56.9089C35.9557 56.9546 36.6036 56.9523 37.2423 56.9089C37.3947 56.8997 37.6424 56.6666 37.6538 56.5226C37.6993 55.8804 37.6902 55.2313 37.6606 54.5868C37.6538 54.4519 37.4697 54.2165 37.3606 54.2142C36.5513 54.1822 35.742 54.1959 34.86 54.1959ZM73.4347 1.01142C73.1505 1.01142 72.8641 1.03428 72.5822 1.00685C72.1366 0.963424 71.9457 1.11198 72.0389 1.58509C72.1526 2.17248 72.2003 2.77357 72.3526 3.35181C72.3958 3.51866 72.6845 3.71521 72.8754 3.73121C73.4779 3.77921 74.0871 3.73578 74.6918 3.75407C75.0373 3.7655 75.1055 3.59637 75.0987 3.29925C75.0873 2.785 75.0919 2.27075 75.0964 1.75651C75.1009 1.24683 74.8918 0.967996 74.344 1.00914C74.0416 1.02971 73.7393 1.01371 73.4347 1.01371V1.01142ZM25.6965 74.7887C25.8738 74.7887 26.1216 74.7658 26.3649 74.7932C26.8718 74.8504 27.0218 74.6195 27.0127 74.135C26.9991 73.4539 27.0446 72.7728 27.0718 72.0917C27.0855 71.774 26.9855 71.55 26.6286 71.6026C26.2057 71.6666 25.7784 71.7352 25.3715 71.8586C24.2849 72.1854 24.2894 72.1969 24.2894 73.3808C24.2894 73.4379 24.2894 73.495 24.2894 73.5522C24.2894 74.3247 24.6615 74.7277 25.4056 74.7612C25.4806 74.7658 25.5556 74.7749 25.6988 74.7864L25.6965 74.7887ZM29.6952 74.375C30.684 74.375 31.6365 74.3841 32.589 74.359C32.6708 74.359 32.8254 74.119 32.8118 74.007C32.7299 73.3533 32.6367 72.6974 32.4844 72.0574C32.4458 71.8974 32.1798 71.7055 31.998 71.6803C31.4387 71.6072 30.8704 71.6209 30.3067 71.5775C29.9702 71.55 29.8134 71.6803 29.7997 72.0163C29.7725 72.734 29.7361 73.4516 29.6952 74.375ZM41.8297 22.4406C41.7547 21.5836 41.6911 20.7539 41.5956 19.9266C41.5865 19.8397 41.3751 19.7209 41.2546 19.714C40.5954 19.6774 39.9361 19.65 39.2769 19.6706C39.1428 19.6751 38.9155 19.8854 38.9041 20.0157C38.8495 20.6579 38.8541 21.3024 38.8382 21.947C38.8291 22.2989 38.9723 22.4566 39.3451 22.4475C40.1544 22.4269 40.9636 22.4406 41.832 22.4406H41.8297ZM55.035 66.2613C55.035 65.2938 54.5538 64.81 53.5915 64.81C53.5529 64.81 53.5165 64.81 53.4778 64.81C52.6852 64.81 52.2889 65.2145 52.2889 66.0236C52.2889 66.1196 52.2889 66.2133 52.2889 66.3093C52.3026 67.6623 52.0571 67.6669 53.6347 67.6623C55.2919 67.6555 55.01 67.74 55.0327 66.2636L55.035 66.2613ZM35.717 77.1451C35.717 77.961 35.7079 78.7883 35.7306 79.6157C35.7329 79.7026 35.933 79.8511 36.0443 79.8557C36.8582 79.8763 37.6743 79.8786 38.4881 79.8603C38.8132 79.8534 38.9405 79.6934 38.8245 79.3255C38.6608 78.8066 38.5176 78.2718 38.4608 77.7347C38.4131 77.2845 38.1971 77.1451 37.8038 77.1451C37.1446 77.1451 36.4831 77.1451 35.7147 77.1451H35.717ZM78.2767 76.5668C78.2767 75.6434 77.8152 75.1818 76.8923 75.1818C75.3078 75.1841 75.5056 75.0469 75.5033 76.5897C75.501 78.1164 75.3374 77.9518 76.8695 77.9541C77.8061 77.9557 78.2752 77.4932 78.2767 76.5668ZM99.9475 52.6349C99.9475 51.774 99.536 51.3436 98.7131 51.3436C97.6735 51.3436 97.1544 51.8571 97.156 52.884C97.156 54.1777 97.1696 54.2005 98.4335 54.1891C99.8316 54.1754 99.9702 54.5433 99.9475 52.6372V52.6349ZM4.50081 79.922C4.50081 79.5791 4.50536 79.2363 4.50081 78.8935C4.49172 78.2855 4.20074 78.1278 3.62106 78.3518C3.24371 78.4981 2.83907 78.6421 2.44352 78.6535C1.96614 78.6672 1.79792 78.8729 1.79565 79.3026C1.7911 79.8351 1.8002 80.3677 1.79338 80.9002C1.78883 81.3002 1.95023 81.4944 2.37078 81.4784C2.90045 81.4579 3.43239 81.4556 3.95978 81.4784C4.39397 81.4967 4.52809 81.2956 4.50536 80.8933C4.4849 80.5711 4.50081 80.2465 4.50081 79.922ZM17.5492 49.4329C17.5492 50.2305 17.5265 50.9688 17.5674 51.707C17.5765 51.867 17.7947 52.1435 17.9289 52.1504C18.6972 52.1938 19.4701 52.1709 20.2908 52.1709V49.4329H17.5515H17.5492ZM65.2192 38.6497V35.9665H62.564V38.6497H65.2192ZM47.1059 15.1178C47.1059 14.1777 46.6634 13.7076 45.7784 13.7076C44.3576 13.7076 44.3508 13.7076 44.3599 15.1063C44.369 16.6491 44.1394 16.496 45.7511 16.5005C46.6543 16.5036 47.1059 16.0427 47.1059 15.1178ZM80.6749 65.0157C80.6749 65.3197 80.6886 65.6236 80.6704 65.9253C80.6499 66.2682 80.7863 66.403 81.1296 66.3916C81.657 66.3733 82.1889 66.3573 82.714 66.3961C83.2869 66.4373 83.5119 66.2156 83.4278 65.6442C83.396 65.4202 83.4233 65.1894 83.4233 64.9608C83.4165 63.4432 83.587 63.6032 82.0548 63.5987C81.1334 63.5971 80.6727 64.0695 80.6727 65.0157H80.6749ZM86.1512 60.4423C86.9968 60.4423 87.7311 60.4423 88.4676 60.4423C88.7609 60.4423 88.9132 60.3143 88.9041 59.9898C88.8882 59.3818 88.9359 58.7716 88.8768 58.1682C88.8586 57.9877 88.5904 57.7042 88.4153 57.686C87.8175 57.6265 87.206 57.6357 86.6058 57.6814C86.4467 57.6928 86.1807 57.9168 86.1716 58.0539C86.1284 58.8242 86.1512 59.599 86.1512 60.4423ZM67.281 82.8818C67.281 82.5961 67.2628 82.3104 67.2855 82.027C67.3174 81.6316 67.156 81.467 66.7672 81.483C66.4081 81.4967 66.0489 81.4784 65.6897 81.4853C64.5667 81.5059 64.4394 81.2179 64.4508 82.7241C64.4644 84.5342 64.3735 84.1891 65.9398 84.2097C67.5561 84.2302 67.2583 84.2645 67.2833 82.8795L67.281 82.8818ZM28.6199 43.0219C28.6199 43.8676 28.5995 44.6424 28.6404 45.4126C28.6472 45.5429 28.9177 45.7509 29.0768 45.7623C29.677 45.8034 30.2839 45.7692 30.8864 45.7829C31.2182 45.7897 31.3842 45.648 31.3865 45.3212C31.391 44.6949 31.4092 44.0687 31.3706 43.4448C31.3615 43.2985 31.1569 43.0471 31.0318 43.0402C30.2476 43.0036 29.4588 43.0219 28.6199 43.0219ZM43.4006 90.9977C44.9441 91 44.7941 91.1051 44.7872 89.6332C44.7804 88.0631 44.9873 88.2276 43.4074 88.2231C42.4799 88.22 42.0162 88.6809 42.0162 89.6058C42.0162 90.5307 42.4776 90.9954 43.4006 91V90.9977ZM58.4881 16.0708C58.4881 15.2183 58.5063 14.4435 58.4699 13.671C58.4653 13.543 58.238 13.3305 58.1016 13.3236C57.481 13.2871 56.8536 13.2711 56.2376 13.3305C56.058 13.3465 55.7761 13.6162 55.7579 13.7944C55.6965 14.375 55.692 14.9715 55.7579 15.552C55.7806 15.7417 56.0739 16.0343 56.2626 16.048C56.9718 16.1074 57.6879 16.0708 58.4858 16.0708H58.4881ZM102.739 45.5452V48.041H105.374V45.4789C104.603 45.4789 103.887 45.4766 103.171 45.4812C103.041 45.4812 102.912 45.52 102.741 45.5452H102.739Z"/>
</mask>
<path d="M21.4888 74.8092C21.4842 74.0481 21.4706 73.2893 21.4819 72.5283C21.4865 72.1466 21.3501 71.9774 20.9545 71.9889C20.293 72.0072 19.6315 72.0026 18.97 71.9889C18.6086 71.982 18.4722 72.1283 18.3585 72.4871C18.0516 73.4448 18.8586 74.1441 18.7609 75.0789C19.7134 74.6264 20.6136 74.7704 21.5024 74.7955C21.4956 75.4995 21.5092 76.2034 21.4706 76.9073C21.4456 77.3805 21.6138 77.5564 22.0866 77.5382C22.7595 77.5107 23.4324 77.5313 24.1053 77.5313C24.3008 78.3884 24.4531 79.17 24.6736 79.9334C24.7213 80.1002 25.0032 80.3014 25.1873 80.3105C25.8079 80.338 26.4331 80.2991 27.0559 80.2557C27.1628 80.2488 27.3469 80.098 27.3515 80.0088C27.3742 79.1997 27.3651 78.3884 27.3651 77.5313C26.4535 77.5313 25.642 77.513 24.8304 77.5382C24.4031 77.5519 24.2553 77.3919 24.2758 76.9759C24.2985 76.464 24.303 75.9451 24.2644 75.4355C24.2417 75.1589 24.2576 74.7704 23.8143 74.7704C23.0391 74.7704 22.2662 74.7955 21.491 74.8115L21.4888 74.8092ZM50.2612 19.2249C50.2612 20.002 50.2453 20.7791 50.2817 21.5539C50.2885 21.7093 50.4931 21.979 50.6181 21.9835C51.3865 22.0247 52.1571 22.0041 52.9686 22.0041V19.2432H50.243C50.2498 18.5781 50.2589 17.913 50.2658 17.2479C50.2726 16.5782 50.343 16.5074 51.0296 16.5028C51.5024 16.5005 51.9775 16.4914 52.4503 16.5028C52.8573 16.5142 53.08 16.3474 53.0073 15.9291C52.8573 15.0675 52.6799 14.2127 52.5231 13.3968C51.5797 13.0516 50.8704 13.6825 50.0748 13.8287C49.9657 13.8493 49.8566 14.167 49.8429 14.3521C49.8111 14.8252 49.8088 15.3052 49.8384 15.7783C49.8725 16.336 49.6088 16.5211 49.0973 16.5028C48.6245 16.4868 48.1494 16.5097 47.6765 16.496C47.2923 16.4845 47.0855 16.6834 47.1014 17.0353C47.1219 17.4559 47.2037 17.8764 47.2946 18.2901C47.3606 18.5941 47.4856 18.8843 47.572 19.1426C46.5445 19.3277 45.6261 19.5014 44.7054 19.6523C44.3712 19.7071 44.2235 19.9426 44.4099 20.1528C44.8873 20.6922 44.7827 21.3139 44.7872 21.9287C44.7895 22.2967 44.9736 22.4384 45.3169 22.4384C45.867 22.4361 46.4149 22.4384 46.965 22.4384C47.3515 22.4384 47.5515 22.2669 47.5424 21.8533C47.5288 21.2065 47.5538 20.5596 47.5333 19.9128C47.5197 19.4534 47.6993 19.2592 48.163 19.2637C48.8609 19.2706 49.561 19.2409 50.2589 19.2272L50.2612 19.2249ZM6.98319 66.7596C6.96273 66.0419 6.93545 65.3219 6.92182 64.6043C6.915 64.282 6.83543 64.0352 6.4558 64.0329C5.57378 64.0306 4.69176 64.0329 3.74382 64.0329C3.76655 64.4169 3.65971 64.8763 3.83475 65.0614C4.25757 65.5094 4.13482 66.0053 4.17119 66.499C4.20984 67.0247 4.02116 67.2715 3.45739 67.2372C2.8027 67.1984 2.14573 67.2281 1.50013 67.2281V69.9936C1.8343 69.9936 2.11618 69.9936 2.39806 69.9936C4.14391 69.9936 4.18256 69.9936 4.15528 68.2612C4.14164 67.4315 4.8077 66.7664 5.64653 66.7915C6.0989 66.8053 6.55128 66.7618 7.00365 66.7458C6.97637 67.1207 6.92636 67.4978 6.92636 67.8726C6.91954 69.861 6.79679 69.9936 4.8077 69.9456C4.33486 69.9342 4.15755 70.1376 4.16892 70.5924C4.18256 71.1066 4.16892 71.6209 4.17119 72.1351C4.17119 72.558 3.98478 72.7591 3.54605 72.7408C2.9982 72.7202 2.4458 72.7111 1.90022 72.7545C1.74337 72.766 1.48194 72.9717 1.47512 73.1019C1.43193 73.8036 1.44102 74.5098 1.47058 75.2138C1.47512 75.3212 1.66608 75.5086 1.77292 75.5132C2.54809 75.536 3.32782 75.5497 4.10072 75.5063C4.58492 75.4789 4.66448 75.1886 4.49854 74.6995C4.34396 74.2447 4.26439 73.7624 4.18483 73.2848C4.11891 72.8939 4.33032 72.7317 4.70995 72.7362C5.39192 72.7431 6.07389 72.7454 6.75587 72.7362C7.16278 72.7294 7.34691 72.9282 7.34691 73.3213C7.34691 73.8173 7.33327 74.3133 7.35146 74.8069C7.36964 75.3189 7.12413 75.5406 6.63766 75.5429C6.14437 75.5452 5.65107 75.5223 5.16232 75.568C4.97819 75.5863 4.67358 75.7532 4.65766 75.8811C4.57355 76.5371 4.55082 77.2022 4.53491 77.8673C4.52582 78.1987 4.69631 78.4044 5.06458 78.377C5.6488 78.3335 6.23302 78.3061 6.81497 78.2581C7.18324 78.2284 7.34009 77.993 7.34236 77.6387C7.34464 77.1428 7.36964 76.6468 7.34009 76.1531C7.31054 75.6914 7.53559 75.5406 7.94023 75.5383C8.41306 75.536 8.88817 75.5383 9.361 75.5337C9.86112 75.5292 10.1362 75.3166 10.1089 74.7681C10.0839 74.2561 10.1044 73.7396 10.1021 73.2253C10.1021 72.4825 9.81565 72.2311 9.09731 72.3774C8.86316 72.4254 8.63584 72.526 8.41988 72.6357C7.73109 72.9785 6.99229 72.5785 6.94455 71.8106C6.91727 71.3558 6.92181 70.8964 6.92863 70.4393C6.94 69.8107 7.11504 69.6233 7.74246 69.6005C8.21529 69.5822 8.6904 69.589 9.16323 69.5936C9.51331 69.5959 9.68608 69.4496 9.67926 69.0817C9.66789 68.5286 9.67244 67.9777 9.67926 67.4246C9.68381 66.9424 9.46103 66.7504 8.97683 66.7687C8.31759 66.7938 7.6538 66.7687 6.99001 66.7641L6.98319 66.7596ZM58.6904 18.8089C59.5792 18.8181 60.4703 18.8432 61.3592 18.8272C61.7093 18.8204 61.9593 18.7106 61.6683 18.265C61.4797 17.977 61.366 17.6296 61.2728 17.2936C61.0568 16.5211 61.732 15.6434 62.5185 15.6412C62.8209 15.6412 63.1323 15.6023 63.4256 15.6572C63.6665 15.7029 64.0303 15.808 64.0894 15.9749C64.303 16.5897 64.4349 17.2365 64.5395 17.8833C64.5622 18.0296 64.3917 18.313 64.253 18.3632C63.7188 18.5507 63.1687 18.7335 62.6117 18.7975C61.907 18.8798 61.7502 18.9758 61.7365 19.6957C61.7275 20.1711 61.7275 20.6488 61.7275 21.1242C61.7275 21.451 61.5979 21.6087 61.2478 21.5836C60.8886 21.5584 60.5272 21.5676 60.168 21.5813C58.9518 21.6247 58.92 21.659 58.92 22.8635C58.92 23.0737 58.92 23.2817 58.92 23.492C58.92 24.3148 58.4835 24.7536 57.6447 24.7719C57.3424 24.7788 57.0377 24.7719 56.7354 24.7742C56.3399 24.7742 56.158 24.9685 56.1716 25.3753C56.1876 25.8507 56.1739 26.3283 56.1762 26.8037C56.1762 27.5237 56.2603 27.6128 56.99 27.622C57.6106 27.6288 58.2335 27.622 58.8927 27.622C58.8041 28.5636 59.6929 29.2607 59.2087 30.3303H56.3876C56.4058 30.7189 56.4035 30.9611 56.4308 31.2011C56.4808 31.6194 56.5808 32.0353 56.6013 32.4559C56.624 32.945 56.4081 33.1873 55.8602 33.1964C55.2783 33.2055 54.694 33.3404 54.1212 33.4615C54.0212 33.4821 53.9075 33.7084 53.8984 33.8455C53.8688 34.282 53.887 34.7209 53.8848 35.1597C53.8848 36.2339 53.7779 36.3367 52.6708 36.339C52.1685 36.339 51.6661 36.339 51.1159 36.339C51.1159 37.1138 51.1455 37.7606 51.1 38.4029C51.0841 38.6268 50.9295 38.924 50.7477 39.0314C50.4385 39.2142 50.0634 39.2942 49.7065 39.3742C49.4633 39.4291 49.1928 39.4611 48.9564 39.4062C48.5745 39.3171 48.4199 39.4565 48.3949 39.8107C48.3335 40.6564 48.2789 41.5043 48.2221 42.35C47.4333 42.3317 46.6468 42.2951 45.8602 42.3134C45.7465 42.3157 45.5488 42.5671 45.5397 42.7134C45.5033 43.3168 45.526 43.9247 45.5238 44.5327C45.5238 44.8709 45.6511 45.0698 46.0193 45.0652C46.5854 45.0583 47.1514 45.0583 47.7174 45.0652C48.0721 45.0698 48.2448 44.8961 48.2426 44.551C48.238 43.8127 48.2221 43.0745 48.213 42.3363C48.9609 42.2791 49.7065 42.1969 50.4544 42.1763C50.9159 42.1649 51.0978 41.9934 51.0841 41.5318C51.0659 40.9055 51.0887 40.277 51.1 39.6485C51.1069 39.2988 51.2523 39.0931 51.6411 39.0999C52.1889 39.1114 52.739 39.0748 53.2869 39.0931C53.6779 39.1068 53.8961 39.3262 53.887 39.7445C53.8802 40.181 53.8575 40.6221 53.9007 41.0564C53.9257 41.3169 54.0643 41.566 54.1666 41.8632C52.9846 41.9294 51.7956 41.5683 50.9341 42.6814C51.5888 43.1019 51.3865 43.7396 51.4342 44.3201C51.4751 44.8275 51.2069 44.9989 50.7772 45.0149C50.3226 45.0332 49.8679 45.0286 49.4156 45.0218C48.9064 45.0126 48.6449 45.2161 48.6768 45.7692C48.7063 46.32 48.6768 46.8731 48.6859 47.4239C48.6904 47.7187 48.5676 47.833 48.2789 47.8216C47.9198 47.8079 47.5583 47.7964 47.2014 47.8261C46.3308 47.8993 45.9352 48.3427 45.9352 49.2135C45.9352 49.5746 45.9193 49.938 45.9398 50.2991C45.9671 50.8042 45.7556 51.0213 45.2487 51.003C44.594 50.9825 43.9393 50.9985 43.2096 50.9985C43.2096 51.7961 43.2346 52.5161 43.1914 53.2314C43.1801 53.412 42.9846 53.6954 42.8232 53.7365C42.0593 53.94 41.2796 54.0748 40.459 54.2439C40.459 55.0027 40.459 55.7387 40.459 56.4746C40.459 56.8403 40.6408 56.9569 40.9977 56.9409C41.5456 56.9134 42.0957 56.9272 42.6436 56.9386C43.0778 56.9477 43.4278 57.1146 43.4983 57.5854C43.5665 58.0494 43.5983 58.5225 43.612 58.991C43.6256 59.4618 43.4233 59.7269 42.8982 59.7041C42.2435 59.6744 41.5865 59.6972 40.9886 59.6972C40.8818 60.6732 40.7841 61.5531 40.6886 62.433C40.0066 62.433 39.3246 62.4193 38.6449 62.4445C38.2608 62.4582 38.0903 62.2593 38.0221 61.9371C37.9061 61.3885 37.8129 60.8354 37.7129 60.2846C37.5947 59.6424 37.3719 59.5578 36.7718 59.7909C36.3535 59.9532 35.8966 60.0401 35.4488 60.0881C35.0532 60.1315 34.86 60.2892 34.86 60.6869C34.86 61.2011 34.86 61.7131 34.86 62.2273C34.86 62.689 35.0464 62.9176 35.542 62.9016C36.349 62.8741 37.156 62.8947 38.0357 62.8947C38.0357 63.6261 38.0312 64.2866 38.0357 64.9471C38.0425 65.6031 38.1744 65.7356 38.8041 65.6602C39.2678 65.6031 39.7429 65.5368 40.1771 65.3768C40.4021 65.2922 40.6954 65.002 40.7068 64.7894C40.75 64.0009 40.6886 63.2078 40.6681 62.417C41.4433 62.4239 42.2207 62.4559 42.9959 62.4307C43.4142 62.417 43.5961 62.5953 43.6074 62.9747C43.6233 63.5644 43.6142 64.154 43.6142 64.746C43.6142 65.0797 43.4483 65.2191 43.1141 65.21C42.6413 65.1962 42.1594 65.2602 41.6956 65.194C41.0659 65.1048 40.8613 65.4408 40.775 65.9596C40.7545 66.0899 40.7454 66.227 40.7613 66.3573C40.8341 67.0041 40.9182 67.6486 41.0068 68.3846C40.1044 68.3846 39.2064 68.3983 38.3085 68.364C38.2107 68.3594 38.0562 68.0692 38.0448 67.9023C38.0107 67.3332 38.0266 66.7618 38.0334 66.1905C38.038 65.8111 37.8788 65.6282 37.4901 65.6351C36.9423 65.6465 36.3921 65.6465 35.842 65.6351C35.4215 65.6259 35.2714 65.8339 35.2805 66.2316C35.2919 66.7641 35.2987 67.2989 35.2805 67.8315C35.2646 68.252 35.4351 68.4189 35.8488 68.4074C36.3967 68.3914 36.9468 68.4074 37.4969 68.4029C37.7947 68.4029 37.9834 68.4783 38.0448 68.8303C38.1766 69.5936 38.3608 70.3456 38.5313 71.1432C39.2019 71.1432 39.8429 71.1318 40.484 71.1478C40.9409 71.1592 41.2182 71.3603 41.1955 71.8837C41.1705 72.4528 41.2001 73.0265 41.1864 73.5979C41.1773 73.9407 41.2728 74.0596 41.6524 74.0139C42.2117 73.943 42.7845 73.9224 43.3483 73.9636C43.5529 73.9796 43.8347 74.1876 43.9189 74.3818C44.1166 74.8344 44.2644 75.3235 44.3417 75.8126C44.4758 76.6674 44.3508 76.7839 43.4983 76.7885C43.0255 76.7885 42.5504 76.7954 42.0775 76.7885C41.3524 76.7748 41.216 76.6354 41.216 75.9246C41.216 75.3212 41.216 74.7178 41.216 74.071C40.4362 74.0321 39.7406 73.9887 39.045 73.9659C38.6381 73.9521 38.4222 74.1167 38.4563 74.583C38.4972 75.1132 38.4858 75.6503 38.4585 76.1805C38.4358 76.6377 38.6518 76.7954 39.0678 76.7908C39.5406 76.7839 40.0157 76.8022 40.4885 76.7885C40.9818 76.7748 41.3615 76.9645 41.4728 77.4467C41.5774 77.8947 41.6206 78.3724 41.607 78.8318C41.5911 79.3689 41.8184 79.5471 42.3139 79.5312C42.8436 79.5152 43.3733 79.5312 43.9052 79.5312C44.2235 79.5312 44.3849 79.6614 44.3735 80.0134C44.3553 80.6031 44.3621 81.1927 44.3712 81.7847C44.3781 82.1504 44.1985 82.3058 43.8552 82.3058C43.4006 82.3058 42.9459 82.2898 42.4913 82.3149C41.9252 82.3447 41.6365 82.6578 41.6229 83.2223C41.6115 83.6794 41.6183 84.1365 41.6229 84.5936C41.6274 85.3044 41.8934 85.5993 42.6027 85.4644C44.7895 85.0484 46.9923 84.9936 49.2041 85.0439C49.3746 85.0484 49.5451 85.0507 49.7156 85.0439C49.8838 85.0347 50.0498 85.0096 50.2771 84.9844C50.2771 84.2942 50.268 83.6314 50.2794 82.9686C50.2908 82.3195 50.6863 81.9195 51.3296 81.8898C51.5365 81.8807 51.7456 81.8875 51.9548 81.8875C53.0232 81.8875 53.0277 81.8875 53.0232 82.9869C53.0141 84.7125 53.3801 85.1261 51.0318 85.0484C50.4908 85.0302 50.2976 85.3433 50.2817 85.8187C50.268 86.2758 50.3044 86.7352 50.2703 87.1877C50.2339 87.6654 50.4294 87.8391 50.8886 87.8254C51.4751 87.8071 52.0616 87.814 52.6504 87.8254C53.2778 87.8368 53.4551 88.0219 53.4574 88.6322C53.4597 89.1076 53.4165 89.5898 53.4778 90.0583C53.5051 90.2595 53.7324 90.584 53.8893 90.5955C54.6349 90.6526 55.3851 90.6206 56.1898 90.6206C56.1898 89.5738 56.2057 88.6825 56.1716 87.7934C56.1671 87.6745 55.9102 87.4551 55.7875 87.4665C55.3646 87.5077 54.9327 87.5831 54.5349 87.7294C53.8643 87.9785 53.2278 87.8002 53.1005 87.1306C52.9732 86.4723 53.0187 85.7684 53.0709 85.0919C53.0823 84.9433 53.4415 84.733 53.6574 84.7102C54.1826 84.6531 54.719 84.717 55.2442 84.6713C55.4192 84.6576 55.717 84.4656 55.7215 84.3491C55.7443 83.5171 55.7056 82.6852 55.6874 81.8533C56.3853 81.8647 57.0832 81.8738 57.7811 81.883C58.4494 81.8921 58.554 82.0041 58.6404 82.6578C58.7154 83.2292 58.8177 83.796 58.9495 84.3559C58.9791 84.4816 59.1769 84.6508 59.2974 84.653C59.9179 84.6622 60.5408 84.6348 61.1614 84.5913C61.2546 84.5845 61.3683 84.4565 61.4251 84.3582C61.8798 83.5583 61.6843 82.7058 61.5956 81.867C61.5865 81.7756 61.4183 81.6864 61.3092 81.627C60.7181 81.3116 60.1498 81.451 59.6042 81.7458C59.0314 82.0544 58.745 81.9904 58.6563 81.3916C58.5495 80.6671 58.5335 79.9265 58.5335 79.1906C58.5335 78.8683 58.7222 78.6512 59.1223 78.6741C59.6884 78.7061 60.2589 78.6786 60.825 78.6832C61.1955 78.6855 61.3887 78.5187 61.3865 78.137C61.3865 77.5656 61.3819 76.9942 61.3865 76.4228C61.391 76.0617 61.2182 75.9063 60.8659 75.9109C60.2976 75.9177 59.7293 75.9269 59.161 75.9086C58.7654 75.8949 58.6154 76.0731 58.6222 76.4525C58.6313 77.0033 58.6427 77.5587 58.6108 78.1073C58.5995 78.2878 58.5017 78.5507 58.3653 78.6215C57.7538 78.9301 57.1423 79.2203 56.399 79.1289C55.9148 79.0672 55.7352 78.8821 55.742 78.4272C55.7488 78.009 55.7465 77.5907 55.742 77.1702C55.7352 76.6674 55.4715 76.3931 54.9805 76.3771C54.3758 76.3588 53.7688 76.3634 53.1619 76.3771C52.7231 76.3862 52.4776 76.6308 52.564 77.0696C52.6572 77.5542 52.8209 78.0227 52.9573 78.4981C53.0959 78.9803 53.4551 79.1129 53.9075 79.1083C54.5054 79.1015 55.1032 79.1083 55.6965 79.1083V81.8601C54.9782 81.867 54.2576 81.8693 53.5392 81.8784C53.171 81.883 52.9891 81.755 53.0118 81.339C53.0437 80.7699 53.0118 80.1962 53.0141 79.6249C53.0141 79.2706 52.8504 79.1015 52.4958 79.106C51.8138 79.1106 51.1319 79.0923 50.4499 79.1129C49.8816 79.1312 49.7338 79.4603 49.902 79.9905C50.0793 80.5482 50.1703 81.1379 50.268 81.7184C50.3362 82.1321 50.1089 82.3058 49.7065 82.3012C49.0428 82.2944 48.3812 82.2921 47.7174 82.3012C47.2787 82.3081 47.115 82.0727 47.115 81.6658C47.115 81.1699 47.131 80.6739 47.1105 80.1802C47.09 79.682 47.3151 79.522 47.7925 79.5083C48.2539 79.4946 48.729 79.426 49.1655 79.282C49.4178 79.1997 49.7793 78.9415 49.7997 78.7312C49.8748 77.9656 49.8293 77.1862 49.8293 76.3634C49.0723 76.3634 48.3949 76.3497 47.7174 76.368C47.2764 76.3794 47.0991 76.1874 47.1128 75.7554C47.1264 75.2618 47.1332 74.7635 47.1128 74.2698C47.0923 73.7899 47.2696 73.5613 47.772 73.5865C48.263 73.6093 48.7586 73.6093 49.2496 73.5842C49.877 73.5499 50.0907 73.2048 49.8861 72.6288C49.8429 72.5077 49.8452 72.3683 49.8316 72.238C49.702 71.0244 49.4065 70.757 48.1971 70.7524C47.8948 70.7524 47.5901 70.7364 47.2878 70.7524C46.9195 70.773 46.7741 70.6084 46.7786 70.2496C46.7877 69.6782 46.7854 69.1068 46.7786 68.5354C46.7741 68.156 46.9355 67.98 47.3265 67.9892C47.8561 68.0029 48.3881 67.9869 48.9177 67.9892C49.3201 67.9937 49.5019 67.8018 49.4974 67.3995C49.4906 66.771 49.5224 66.1425 49.4929 65.5139C49.4678 64.9814 49.7452 64.8054 50.2021 64.794C50.6568 64.7848 51.1114 64.7848 51.566 64.7917C52.073 64.7986 52.3458 64.5997 52.3094 64.0443C52.2798 63.6078 52.3321 63.1667 52.2958 62.7324C52.2503 62.1862 52.4458 61.9576 53.0027 61.9965C53.4938 62.0308 53.9871 62.0011 54.4803 62.0033C54.8441 62.0056 55.0532 61.8548 55.0487 61.4662C55.0418 60.7806 55.0509 60.0949 55.0327 59.4093C55.0214 58.9704 54.5144 58.6276 54.178 58.8699C53.6256 59.2653 53.0368 59.2881 52.414 59.2424C52.0321 59.2127 51.8161 59.4024 51.8798 59.7841C51.9639 60.2915 52.0639 60.8011 52.2276 61.2857C52.3821 61.7405 52.2844 61.9942 51.8002 61.9988C50.9114 62.0079 50.0202 61.9782 49.1314 61.9668L49.1473 61.9851C49.1473 61.0731 49.1473 60.1612 49.1496 59.2493L49.1337 59.263C49.852 59.2561 50.5704 59.2401 51.291 59.2447C51.6911 59.247 51.882 59.087 51.8729 58.671C51.8593 58.0425 51.8934 57.414 51.8616 56.7877C51.8343 56.2392 52.073 56.0472 52.5913 56.0632C53.246 56.0838 53.9007 56.0678 54.6145 56.0678C54.6145 55.3227 54.6417 54.6576 54.6054 53.9971C54.5758 53.4577 54.7941 53.2931 55.3033 53.3183C55.958 53.3503 56.6149 53.3251 57.3401 53.3251C57.3401 52.4475 57.3287 51.6544 57.3446 50.859C57.3537 50.3928 57.5265 50.0843 58.0857 50.1162C58.7404 50.1528 59.3974 50.1254 60.0452 50.1254V47.3645H58.2903C56.9241 47.3645 56.9195 47.3645 56.9241 45.9954C56.9309 44.3498 56.7763 44.647 58.2653 44.6241C59.9907 44.599 59.8293 44.8686 59.7838 43.0791C59.7634 42.302 59.968 41.7672 60.7272 41.5546C61.0591 41.4609 61.416 41.4312 61.7638 41.4335C62.4867 41.4358 62.5413 41.5043 62.5458 42.2151C62.5504 42.7088 62.5595 43.2048 62.5435 43.6985C62.5322 44.0276 62.6345 44.1921 62.9891 44.1876C63.7279 44.1761 64.4644 44.1876 65.2032 44.183C65.6442 44.183 65.7602 43.9087 65.6806 43.5385C65.5692 43.0151 65.4101 42.5031 65.2919 41.982C65.2055 41.6049 65.0259 41.4015 64.6054 41.4175C63.9325 41.4426 63.2573 41.4243 62.5276 41.4243C62.5276 40.6884 62.5163 40.0256 62.5322 39.3628C62.5435 38.8851 62.3276 38.6794 61.8616 38.6817C61.1819 38.684 60.5022 38.6703 59.8225 38.6634L59.8429 38.684C59.7134 38.1834 59.577 37.6829 59.4542 37.1801C59.1996 36.131 59.3837 35.8499 60.2862 35.9185C60.6818 35.9482 61.0796 35.9185 61.4751 35.9253C61.9161 35.9322 62.123 35.7242 62.1162 35.2785C62.1071 34.746 62.1435 34.2135 62.1071 33.6832C62.073 33.1964 62.3299 33.1233 62.7186 33.1141C62.9846 33.1073 63.2528 33.0433 63.5142 32.9838C63.8097 32.9176 64.1053 32.8444 64.3871 32.7393C64.5508 32.6776 64.8122 32.545 64.8122 32.4422C64.8282 31.6125 64.7918 30.7806 64.7736 29.9509C65.6011 29.9624 66.4285 29.9829 67.2537 29.9692C67.3583 29.9692 67.5447 29.7749 67.5492 29.6675C67.5742 28.879 67.5629 28.0905 67.5629 27.2471H66.258C64.9214 27.2471 64.935 27.2471 64.9168 28.5659C64.91 29.0321 64.8304 29.4961 64.785 29.9624C64.0484 29.9784 63.3119 30.0286 62.5799 29.9829C62.414 29.9715 62.1616 29.6355 62.1366 29.4275C62.073 28.9019 62.123 28.3648 62.1139 27.8322C62.1071 27.4323 62.273 27.2357 62.6868 27.2449C63.2346 27.2586 63.787 27.2791 64.3326 27.2289C64.5122 27.2106 64.8191 26.9729 64.8168 26.8403C64.8077 26.2689 64.7509 25.6884 64.6213 25.133C64.519 24.6896 64.5849 24.4908 65.0532 24.4519C65.6533 24.4016 66.2558 24.3605 66.8559 24.3285C67.5219 24.2942 67.7493 23.9308 67.5265 23.3023C67.4106 22.9755 67.3333 22.6258 67.306 22.2807C67.2287 21.2522 67.2492 21.2522 68.2812 21.2407C68.8564 21.2339 69.4337 21.2019 70.0521 21.179V18.5849C70.709 18.5232 71.3274 18.4958 71.9343 18.3998C72.6163 18.2924 72.7686 18.0684 72.7709 17.369C72.7709 16.7245 72.7709 16.0823 72.7709 15.3852C73.055 15.3555 73.2914 15.3143 73.5301 15.3075C73.9848 15.296 74.4394 15.3029 74.8918 15.3006C75.3192 15.3006 75.5556 15.1338 75.526 14.6515C75.4965 14.1578 75.5147 13.6619 75.5215 13.1682C75.5306 12.6997 75.7215 12.4597 76.2467 12.4437C76.7627 12.4277 77.2901 12.3226 77.7788 12.1603C77.9766 12.094 78.2085 11.7763 78.2221 11.5592C78.2721 10.821 78.2335 10.0782 78.2289 9.33536L78.213 9.35364C78.8518 9.34907 79.4951 9.30336 80.1294 9.35364C80.8682 9.41307 81.0182 9.32164 81.0227 8.59941C81.0227 8.12402 81.0068 7.64634 81.0273 7.17095C81.0478 6.71384 80.8863 6.51043 80.4044 6.52871C79.7429 6.55614 79.0769 6.55614 78.4176 6.515C78.2585 6.50586 78.0016 6.30702 77.9789 6.16531C77.8925 5.58936 77.8538 5.00197 77.847 4.41688C77.8425 4.00548 77.6697 3.81806 77.2787 3.80435C76.7309 3.78607 76.1807 3.78835 75.6329 3.75407C75.2533 3.73121 75.1259 3.90263 75.1328 4.25689C75.1419 4.75285 75.1009 5.24881 75.1419 5.7402C75.1851 6.25902 74.9123 6.53557 74.4872 6.6567C74.003 6.79612 73.4983 6.91954 72.9982 6.93097C72.4572 6.94468 72.3026 7.16181 72.3321 7.66234C72.3594 8.13773 72.3162 8.61541 72.3435 9.08852C72.3731 9.56391 72.1707 9.72619 71.7161 9.72847C71 9.73304 70.2817 9.78104 69.5679 9.81075V6.99725H66.865C66.865 7.70348 66.8877 8.364 66.8582 9.02224C66.8354 9.51363 67.0082 9.69876 67.506 9.69647C68.1994 9.6919 68.8904 9.75818 69.5838 9.79475C69.5906 10.4987 69.6474 11.2049 69.5838 11.902C69.5588 12.1626 69.2996 12.5191 69.0632 12.6151C68.5472 12.8185 67.9811 12.9099 67.4287 12.9922C67.0855 13.0448 66.8627 12.8619 66.8673 12.4688C66.8741 11.8792 66.8604 11.2872 66.8718 10.6975C66.8786 10.309 66.6968 10.1422 66.324 10.1422C65.7943 10.1422 65.2623 10.149 64.7327 10.1422C64.3099 10.1353 64.103 10.3113 64.1189 10.7547C64.1348 11.2301 64.0984 11.7077 64.128 12.1831C64.1598 12.6928 63.9848 12.9259 63.4506 12.8894C62.9596 12.8551 62.464 12.9054 61.973 12.8757C61.5183 12.8505 61.3751 13.0425 61.391 13.4768C61.4137 14.1418 61.3819 14.8092 61.4024 15.4766C61.416 15.9177 61.2387 16.096 60.7977 16.0823C60.1044 16.0617 59.4087 16.0777 58.6677 16.0777C58.6677 17.0239 58.6677 17.897 58.6677 18.7678C57.8925 18.7838 57.1196 18.8112 56.3444 18.8135C55.9875 18.8135 55.7556 18.9163 55.7579 19.3186C55.7579 20.0408 55.7397 20.7653 55.7647 21.4876C55.7806 21.9881 56.0921 22.1367 56.524 21.9287C56.7695 21.8121 57.0446 21.7276 57.3151 21.7001C57.7084 21.6613 58.1107 21.7047 58.5063 21.675C58.6495 21.6636 58.8973 21.547 58.9041 21.467C58.9314 21.0739 58.9814 20.6419 58.8541 20.2854C58.6745 19.7894 58.4472 19.3369 58.7131 18.8112L58.6904 18.8089ZM10.5158 83.8874C11.2933 83.8874 11.957 83.8714 12.6186 83.8942C13.0573 83.9102 13.246 83.732 13.2369 83.2954C13.2255 82.7423 13.2164 82.1892 13.2505 81.6384C13.2596 81.467 13.3687 81.2545 13.5006 81.147C14.0575 80.6854 14.7259 80.6305 15.4147 80.6991C15.8398 80.7425 15.9989 80.5208 15.9989 80.1277C15.9989 79.5746 15.9852 79.0215 16.0034 78.4707C16.0171 78.0798 15.8534 77.9084 15.4692 77.9198C14.9395 77.9358 14.4099 77.9541 13.8802 77.9541C13.1937 77.9541 12.9209 77.705 12.8595 77.0148C12.8277 76.6559 12.8277 76.2925 12.8368 75.9314C12.8527 75.3303 12.7345 75.1955 12.1253 75.1841C11.7275 75.1772 11.3296 75.1772 10.9318 75.1841C10.343 75.1978 10.1157 75.4218 10.1021 76.0183C10.0907 76.5714 10.0703 77.1245 10.1089 77.6753C10.1407 78.1393 9.94296 78.2924 9.52013 78.2855C8.97001 78.2787 8.42216 78.2855 7.87203 78.2924C7.51058 78.2992 7.32191 78.4547 7.34236 78.8569C7.36964 79.3689 7.38101 79.8877 7.34009 80.3997C7.29463 80.9779 7.56287 81.1356 8.0789 81.115C8.64721 81.0922 9.21779 81.1356 9.78383 81.1036C10.3271 81.0739 10.5431 81.291 10.5226 81.8327C10.4976 82.4932 10.5158 83.1537 10.5158 83.8874ZM6.49445 56.9134C6.49445 57.2746 6.4899 57.6357 6.49445 57.9991C6.50126 58.3602 6.66721 58.5956 7.04684 58.543C7.46057 58.4859 7.89476 58.4356 8.26985 58.2688C8.91545 57.9831 9.24507 58.1316 9.27917 58.8424C9.29963 59.279 9.28826 59.7178 9.28599 60.1543C9.2769 61.4731 9.3951 61.2423 8.15846 61.2674C6.21938 61.3063 6.52172 60.9154 6.49445 63.0204C6.49445 63.0958 6.4899 63.1758 6.50581 63.249C6.61265 63.7175 6.85816 64.0398 7.38328 64.0443C8.00843 64.0489 8.63129 64.0443 9.25644 64.0558C9.54968 64.0603 9.65198 63.9278 9.64516 63.6375C9.63152 63.0478 9.63379 62.4582 9.64516 61.8685C9.65653 61.2445 10.0089 60.8811 10.6181 60.8629C11.0159 60.8514 11.4137 60.872 11.8116 60.8583C12.2594 60.8423 12.414 61.064 12.4026 61.4891C12.3867 62.0216 12.4162 62.5564 12.3935 63.0867C12.3776 63.4752 12.5254 63.6535 12.9118 63.6489C13.5165 63.6421 14.1235 63.6421 14.7281 63.6489C15.0327 63.6535 15.1851 63.5324 15.1828 63.2147C15.176 62.5862 15.1828 61.9576 15.1782 61.3314C15.176 61.016 15.0418 60.84 14.6918 60.8583C14.3144 60.8789 13.9348 60.8629 13.5551 60.8629C12.4413 60.8606 12.1071 60.5292 12.098 59.423C12.0904 58.556 12.5117 58.1217 13.3619 58.1202C14.96 58.1156 14.8713 58.3213 14.8577 56.6255C14.8463 55.133 15.0441 55.3501 13.5529 55.3387C12.0139 55.3273 12.0139 55.3364 12.0139 56.8974C12.0139 57.6989 11.6153 58.0996 10.8182 58.0996C9.78913 58.0996 9.27462 57.5869 9.27462 56.5615C9.27462 55.7448 8.86392 55.3364 8.04252 55.3364C7.01047 55.3364 6.4952 55.8636 6.49672 56.918L6.49445 56.9134ZM28.2539 31.5782V34.5129C28.9768 34.4534 29.6543 34.362 30.334 34.3506C30.8 34.3437 30.9841 34.1883 30.9682 33.7175C30.9455 33.0204 30.9614 32.321 30.9614 31.6262H33.712C33.712 32.3416 33.7279 33.0067 33.7074 33.6695C33.6915 34.1632 33.8825 34.3552 34.3803 34.3255C34.9282 34.2912 35.4783 34.3369 36.0262 34.3049C36.1626 34.2957 36.4035 34.1289 36.4058 34.0306C36.4353 33.0684 36.424 32.1039 36.424 31.0411C36.1785 31.1348 36.0352 31.208 35.8807 31.2423C35.3828 31.3565 34.885 31.5142 34.3826 31.5417C33.9461 31.5645 33.6574 31.3223 33.7052 30.7874C33.7484 30.2778 33.6984 29.7589 33.7188 29.247C33.7325 28.8973 33.5938 28.7784 33.2528 28.7876C32.6277 28.8059 32.0025 28.7967 31.3796 28.7899C30.6522 28.783 30.5499 28.6825 30.5476 27.9762C30.5454 27.4803 30.5385 26.9866 30.5476 26.4906C30.5545 26.1158 30.3908 25.917 30.0134 25.9147C29.4451 25.9124 28.8768 25.9147 28.3108 25.9147C27.9266 25.9147 27.7766 26.1158 27.7856 26.4929C27.7993 27.0254 27.8084 27.5603 27.7834 28.0905C27.7606 28.5636 27.9902 28.7487 28.4222 28.7579C28.8768 28.767 29.3315 28.7784 29.7838 28.7693C30.2248 28.7602 30.5295 28.991 30.6522 29.3681C30.8159 29.8641 30.9182 30.3852 30.9864 30.904C31.0478 31.3702 30.7886 31.5919 30.3135 31.5828C29.6543 31.5691 28.9927 31.5782 28.2539 31.5782ZM25.7284 43.0425C24.9214 43.6299 24.0484 43.4105 23.2096 43.4608C22.8322 43.4836 22.6936 43.2962 22.689 42.9579C22.6822 42.5008 22.6072 42.0254 22.7095 41.5935C22.8004 41.2072 23.0096 40.7181 23.3164 40.5444C23.7211 40.3159 24.2735 40.2976 24.7645 40.2884C25.2919 40.2793 25.4715 40.0164 25.4806 39.5593C25.4942 39.0268 25.4669 38.4943 25.4897 37.9617C25.5056 37.5915 25.326 37.5092 25.0077 37.5161C24.4031 37.5275 23.7961 37.5343 23.1914 37.5138C22.8232 37.5001 22.6822 37.6349 22.6913 38.0075C22.7072 38.7114 22.6936 39.4154 22.6913 40.1193C22.6913 40.5261 22.539 40.7501 22.0821 40.725C21.5547 40.6953 21.0205 40.741 20.4931 40.7113C20.0453 40.6861 19.8748 40.8758 19.8839 41.3078C19.8952 41.8403 19.8793 42.3728 19.8861 42.9054C19.8929 43.2939 19.7702 43.4973 19.3292 43.4676C18.7836 43.431 18.2312 43.4722 17.6834 43.4539C17.3128 43.4425 17.1651 43.6139 17.1651 43.9613C17.1651 44.6835 17.1491 45.408 17.1696 46.1303C17.1855 46.6331 17.5742 46.8754 17.9743 46.5897C18.4744 46.2331 19.0109 46.208 19.5724 46.2171C19.7861 46.2217 19.9998 46.2171 20.2839 46.2171C19.9384 45.2778 19.7088 44.4253 20.0521 43.4562C20.5817 43.4562 21.1273 43.4562 21.6729 43.4562C22.7709 43.4562 23.2551 44.0047 23.1391 45.1223C23.1255 45.2526 23.0778 45.3829 23.0709 45.5132C23.0437 45.952 23.1641 46.2491 23.6938 46.2217C24.203 46.1943 24.7168 46.1965 25.226 46.2217C25.7102 46.2468 25.8625 45.9908 25.8625 45.568C25.8625 44.9212 25.8716 44.2744 25.8579 43.6276C25.8534 43.4493 25.7806 43.2711 25.7261 43.0425H25.7284ZM11.7525 49.394C11.7161 49.5174 11.6911 49.5563 11.6956 49.5906C11.8297 50.4774 11.923 51.371 12.1207 52.2441C12.2344 52.7469 12.6436 52.6601 13.0368 52.5046C13.3915 52.3652 13.7688 52.1984 14.1348 52.1984C14.669 52.1961 14.8395 51.9835 14.8236 51.4853C14.8077 50.9733 14.8191 50.4568 14.8372 49.9448C14.8486 49.586 15.0146 49.394 15.4101 49.41C15.9193 49.4329 16.4353 49.4443 16.9423 49.3986C17.1219 49.3826 17.4287 49.1883 17.431 49.0695C17.4469 48.4227 17.4219 47.7713 17.3287 47.1336C17.3037 46.9622 16.9946 46.7154 16.8036 46.7039C16.0193 46.6559 15.2305 46.6834 14.4099 46.6834C14.4099 47.4285 14.3985 48.1141 14.4144 48.7975C14.4258 49.2386 14.2417 49.4146 13.8052 49.4032C13.1255 49.3849 12.4458 49.3986 11.7525 49.3986V49.394ZM102.707 51.0328C102.707 51.9378 102.689 52.788 102.716 53.6383C102.728 54.004 102.957 54.2554 103.351 54.1845C104.083 54.0519 104.812 53.8988 105.533 53.7114C105.851 53.6291 105.919 53.3343 105.842 53.0257C105.681 52.3721 105.515 51.7207 105.342 51.035H102.707V51.0328ZM29.5474 66.0647C29.6383 66.8875 29.7406 67.5823 29.777 68.2817C29.7929 68.604 29.8407 68.796 30.1976 68.8005C30.8022 68.8051 31.4092 68.8485 32.0116 68.8074C32.1889 68.796 32.4844 68.5674 32.4935 68.4211C32.5504 67.6258 32.5595 66.8258 32.5367 66.0282C32.5254 65.6259 32.0593 65.5139 31.4183 65.6785C30.9477 65.7996 30.4635 65.8613 29.9861 65.955C29.7884 65.9939 29.5929 66.051 29.5429 66.0647H29.5474ZM60.2362 56.0998C60.2362 55.1239 60.243 54.2736 60.2294 53.4234C60.2294 53.3023 60.1589 53.1492 60.068 53.0715C59.9566 52.9777 59.777 52.8795 59.6497 52.9023C59.0428 53.012 58.4449 53.1926 57.8357 53.2863C57.5015 53.3389 57.2992 53.4257 57.306 53.7937C57.3151 54.3834 57.2833 54.9776 57.3469 55.5604C57.3674 55.7547 57.6242 56.0632 57.7902 56.0747C58.5926 56.1295 59.4019 56.0998 60.2362 56.0998ZM25.5738 34.6751C25.3624 33.7221 25.2192 32.9518 25.0009 32.1999C24.9555 32.0422 24.6418 31.8822 24.4417 31.8639C23.8984 31.8182 23.3483 31.8639 22.8004 31.8434C22.4572 31.8296 22.3117 31.9759 22.3117 32.3028C22.3117 32.9678 22.2935 33.6306 22.3276 34.2935C22.3344 34.426 22.5299 34.6546 22.6458 34.6591C23.5801 34.6889 24.5144 34.6751 25.5761 34.6751H25.5738ZM75.9307 20.7036C75.9307 20.0545 75.9102 19.3163 75.9398 18.5804C75.9557 18.185 75.7852 18.0913 75.4397 18.0981C74.8168 18.1118 74.1939 18.0981 73.5688 18.1004C72.8027 18.1004 72.4799 18.4958 72.8209 19.1746C73.105 19.7391 73.2278 20.2854 73.2255 20.8979C73.2255 20.9848 73.4688 21.163 73.5779 21.147C74.328 21.0282 75.0714 20.8705 75.9307 20.7036ZM15.0418 86.6186C15.0418 86.6186 15.0418 86.6209 15.0418 86.6232C15.3055 86.6232 15.5715 86.6095 15.8352 86.6255C16.2512 86.6529 16.4694 86.4518 16.399 86.0541C16.2785 85.3707 16.1262 84.6896 15.9375 84.0222C15.9011 83.8965 15.6306 83.7685 15.4647 83.764C14.9623 83.748 14.4599 83.8074 13.9552 83.812C13.5665 83.8143 13.2687 83.9331 13.246 84.3628C13.221 84.8542 13.2096 85.3524 13.2573 85.8415C13.3028 86.3055 13.5915 86.5958 14.0803 86.6163C14.4008 86.63 14.7213 86.6186 15.0418 86.6186ZM3.76655 61.272C2.94136 61.272 2.18665 61.2445 1.43875 61.2948C1.28872 61.304 1.04775 61.5965 1.03866 61.7702C0.993195 62.5107 0.993195 63.2558 1.03866 63.994C1.05003 64.1655 1.28417 64.4283 1.45466 64.4672C2.25485 64.6386 2.97092 64.3826 3.60061 63.8821C3.68699 63.8135 3.75746 63.6672 3.75973 63.5552C3.77337 62.8353 3.76655 62.113 3.76655 61.272ZM75.1987 66.9355C75.9739 66.7756 76.599 66.6498 77.2196 66.515C77.6629 66.419 77.9721 66.2019 77.9539 65.6785C77.938 65.2237 77.9266 64.7666 77.9584 64.314C77.9925 63.8249 77.7425 63.6741 77.3196 63.6718C76.7922 63.6718 76.2626 63.6809 75.7352 63.6672C75.3078 63.6581 75.1078 63.8432 75.1169 64.2775C75.1282 64.8077 75.1078 65.3402 75.1214 65.8705C75.1305 66.2179 75.1714 66.5653 75.201 66.9355H75.1987ZM96.8195 39.8427C96.8195 40.853 96.8059 41.7992 96.8422 42.7431C96.8468 42.8345 97.1787 43.0036 97.3378 42.9808C97.9357 42.8939 98.5222 42.7157 99.12 42.6265C99.4224 42.5808 99.5633 42.4734 99.561 42.1717C99.561 41.5638 99.5656 40.9558 99.561 40.3479C99.561 39.9959 99.3678 39.8382 99.0246 39.8405C98.3267 39.845 97.6288 39.8405 96.8195 39.8405V39.8427ZM40.6386 28.4219C40.6386 28.4082 40.6408 28.3968 40.6431 28.383C40.9455 28.383 41.2569 28.4242 41.5479 28.3671C41.7115 28.3351 41.9593 28.1522 41.9684 28.0219C42.0321 27.2083 42.0321 26.3901 42.0662 25.5764C42.0798 25.2656 41.9207 25.1559 41.6502 25.197C41.0637 25.2884 40.4772 25.389 39.8952 25.5033C39.3997 25.6015 39.1951 25.9055 39.2837 26.4198C39.3178 26.6232 39.2814 26.838 39.2905 27.046C39.311 27.4574 39.1882 28.0356 39.4065 28.2391C39.6565 28.4722 40.2135 28.3739 40.6363 28.4196L40.6386 28.4219ZM87.6083 63.3221C87.3242 63.3221 87.04 63.3381 86.7581 63.3175C86.3444 63.2878 86.133 63.4684 86.1853 63.8798C86.258 64.4512 86.3353 65.0271 86.4694 65.5871C86.5604 65.9619 86.8127 66.1699 87.2651 66.1105C87.7106 66.051 88.1721 66.0693 88.6222 66.1013C89.0837 66.1356 89.3042 65.9368 89.3178 65.4957C89.3314 65.0591 89.3428 64.6203 89.3178 64.1838C89.2837 63.6238 88.9655 63.3404 88.404 63.3244C88.1403 63.3175 87.8743 63.3244 87.6083 63.3244V63.3221ZM107.847 40.6381C107.847 40.6381 107.827 40.6381 107.817 40.6381C107.842 40.9581 107.815 41.2964 107.911 41.5935C107.977 41.7992 108.193 42.0643 108.381 42.1031C108.984 42.2243 109.602 42.254 110.216 42.3134C110.327 42.3248 110.466 42.3431 110.55 42.2883C111.055 41.9592 111.009 41.4243 111 40.9238C110.991 40.4278 111.073 39.781 110.489 39.6165C109.816 39.4268 109.084 39.4154 108.377 39.4154C108.199 39.4154 107.967 39.7399 107.865 39.9616C107.779 40.149 107.847 40.4073 107.847 40.6358V40.6381ZM96.7581 48.4752C97.6356 48.5209 98.3903 48.5301 99.1382 48.6101C99.627 48.6626 99.9157 48.5118 99.8588 48.0204C99.7634 47.1953 99.5906 46.3794 99.4701 45.6663C98.7154 45.7006 97.9652 45.7212 97.2151 45.7806C97.0923 45.7897 96.8877 45.9588 96.8786 46.0663C96.8172 46.8525 96.7945 47.6433 96.7581 48.4729V48.4752ZM67.6265 25.7135C67.6265 26.0175 67.6197 26.3215 67.6265 26.6255C67.6402 27.2608 67.9902 27.4803 68.5381 27.1397C68.9723 26.87 69.3951 26.7466 69.902 26.8037C70.0362 26.8197 70.3112 26.63 70.3226 26.5135C70.3931 25.821 70.434 25.1239 70.4181 24.4291C70.4158 24.2965 70.1248 24.1205 69.9361 24.0611C69.7293 23.9948 69.486 24.0405 69.261 24.0405C68.1698 24.0405 67.6242 24.5982 67.6242 25.7135H67.6265ZM69.3246 32.7416C69.552 32.7416 69.7793 32.721 70.0021 32.7461C70.5499 32.8033 70.7568 32.545 70.734 32.0216C70.7181 31.6628 70.7363 31.3017 70.7295 30.9406C70.7159 30.3235 70.4044 29.9966 69.8066 29.9829C69.2974 29.9715 68.7859 30.0104 68.2812 29.9715C67.8266 29.9349 67.6856 30.1749 67.6424 30.552C67.6242 30.7029 67.6288 30.8537 67.6265 31.0068C67.5924 32.6227 67.7106 32.7439 69.3246 32.7439V32.7416ZM58.1948 8.88282C58.1948 8.46457 58.2312 8.04174 58.1744 7.63263C58.1562 7.49321 57.8879 7.26466 57.7652 7.28294C57.1196 7.38122 56.474 7.51378 55.8511 7.71034C55.6693 7.76748 55.4692 8.06917 55.451 8.27487C55.3965 8.8394 55.4465 9.41307 55.426 9.98217C55.4101 10.4461 55.6397 10.5855 56.0534 10.5604C56.4854 10.533 56.9195 10.5056 57.3515 10.4987C58.1698 10.485 58.1926 10.4667 58.1926 9.62562C58.1926 9.37878 58.1926 9.13194 58.1926 8.88511L58.1948 8.88282ZM66.8468 77.0422C66.8468 76.7771 66.8354 76.5097 66.8491 76.2445C66.8695 75.8423 66.699 75.6343 66.2921 75.6389C65.8193 75.6412 65.3465 75.6229 64.8782 75.6549C64.4076 75.6892 64.1189 75.9429 64.1212 76.4548C64.1234 77.0239 64.1371 77.593 64.1166 78.1621C64.103 78.5598 64.2962 78.7106 64.6531 78.7221C64.8236 78.7289 64.9918 78.7266 65.1623 78.7266C66.6036 78.7175 66.9309 78.6969 66.8445 77.0399L66.8468 77.0422ZM93.0164 51.7207C92.6777 51.7207 92.3367 51.7298 91.998 51.7184C91.5569 51.7024 91.3637 51.9264 91.4047 52.3424C91.4615 52.9069 91.5069 53.4783 91.6365 54.0268C91.7252 54.3993 91.9479 54.7193 92.4435 54.6325C92.8845 54.5571 93.3324 54.4839 93.7779 54.4702C94.1712 54.4588 94.3758 54.2988 94.4212 53.9171C94.4508 53.6726 94.494 53.4303 94.494 53.1857C94.5 52.1649 94.0068 51.6765 93.0141 51.7207H93.0164ZM76.749 72.3294V72.3248C77.1651 72.3248 77.5833 72.3568 77.9948 72.3066C78.138 72.2883 78.3835 72.0483 78.3653 71.95C78.2562 71.3283 78.1107 70.709 77.922 70.1079C77.8129 69.7605 77.5879 69.4931 77.131 69.5296C76.6422 69.5685 76.1489 69.5593 75.6579 69.5319C75.2805 69.5113 75.1373 69.7102 75.1282 70.0324C75.1123 70.6404 75.1169 71.2483 75.1237 71.8563C75.1259 72.174 75.276 72.3454 75.6147 72.334C75.9921 72.3203 76.3694 72.3317 76.749 72.3317V72.3294ZM107.815 34.1038C107.815 34.6683 107.849 35.3699 107.802 36.0647C107.774 36.467 107.899 36.6338 108.277 36.6384C108.9 36.6453 109.525 36.6339 110.148 36.6453C110.495 36.6521 110.618 36.4693 110.618 36.1516C110.618 35.4294 110.629 34.7071 110.614 33.9872C110.604 33.5347 110.323 33.3335 109.909 33.4592C109.266 33.6512 108.627 33.8546 107.815 34.1038ZM21.4751 79.1769C21.4751 78.7975 21.491 78.4158 21.4706 78.0387C21.4456 77.5473 21.2751 77.4719 20.8386 77.6799C20.5886 77.7987 20.318 77.9267 20.0498 77.9427C18.7177 78.0227 18.7177 78.009 18.7177 79.3414C18.7177 79.3803 18.7177 79.4169 18.7177 79.4557C18.7313 80.8728 18.5631 80.6831 19.9611 80.6899C21.4774 80.6991 21.4774 80.6899 21.4751 79.1769ZM34.7463 25.4804C34.7372 25.517 34.7281 25.5558 34.7168 25.5924C34.6031 25.5924 34.4917 25.5924 34.3781 25.5924C33.3596 25.5924 33.3528 25.5924 33.3846 26.6323C33.3937 26.9317 33.3846 27.2746 33.5188 27.5214C33.6938 27.8414 33.5961 28.4173 34.2053 28.4082C34.7691 28.4013 35.3351 28.4288 35.8943 28.3876C36.0716 28.3739 36.3717 28.1956 36.3808 28.0722C36.4331 27.4346 36.4194 26.7877 36.4012 26.1455C36.399 26.0472 36.2694 25.8987 36.1694 25.8667C35.7011 25.7204 35.2214 25.6061 34.7463 25.4804ZM70.0066 81.1539C70.0066 81.9721 70.0157 82.7515 70.0021 83.5286C69.9975 83.8302 70.1225 83.9285 70.409 83.924C71.1273 83.9148 71.8479 83.908 72.5663 83.9262C72.9573 83.9354 73.055 83.7823 72.9959 83.4097C72.8982 82.804 72.8641 82.1847 72.7436 81.5836C72.7118 81.419 72.4754 81.1813 72.323 81.1722C71.5911 81.1287 70.8545 81.1539 70.0066 81.1539ZM69.7111 75.6229C69.8566 76.56 69.9839 77.3782 70.1225 78.2878C70.7863 78.3152 71.4956 78.3472 72.2048 78.3701C72.6072 78.3838 72.7754 78.1872 72.7572 77.7736C72.7322 77.2045 72.7368 76.6354 72.7572 76.0663C72.7709 75.7097 72.6549 75.5452 72.2821 75.5429C71.6229 75.5383 70.9636 75.4835 70.3067 75.4857C70.0725 75.4857 69.8384 75.5932 69.7134 75.6252L69.7111 75.6229ZM103.628 42.6105C103.967 42.6105 104.31 42.6357 104.644 42.5968C104.771 42.5831 104.978 42.4323 104.985 42.334C105.042 41.5226 105.096 40.7067 105.074 39.8953C105.062 39.5433 104.878 39.2462 104.401 39.5525C104.148 39.7148 103.819 39.8062 103.516 39.8267C102.291 39.9136 102.289 39.8976 102.289 41.1204C102.289 41.1386 102.289 41.1592 102.289 41.1775C102.289 42.0811 102.734 42.5587 103.626 42.6105H103.628ZM91.6024 60.0423C92.514 60.0812 93.3392 60.1178 94.1644 60.1475C94.5485 60.1612 94.7577 60.0995 94.6236 59.5852C94.4872 59.0687 94.519 58.5042 94.4917 57.9602C94.4758 57.6334 94.3712 57.4163 94.0075 57.3911C93.4051 57.3523 92.8004 57.3248 92.2025 57.2426C91.857 57.1946 91.7343 57.3728 91.7161 57.6334C91.6615 58.3876 91.6411 59.1441 91.6024 60.0401V60.0423ZM34.86 54.1959C34.86 55.0142 34.8373 55.7707 34.8804 56.5226C34.8895 56.6666 35.1578 56.8974 35.3169 56.9089C35.9557 56.9546 36.6036 56.9523 37.2423 56.9089C37.3947 56.8997 37.6424 56.6666 37.6538 56.5226C37.6993 55.8804 37.6902 55.2313 37.6606 54.5868C37.6538 54.4519 37.4697 54.2165 37.3606 54.2142C36.5513 54.1822 35.742 54.1959 34.86 54.1959ZM73.4347 1.01142C73.1505 1.01142 72.8641 1.03428 72.5822 1.00685C72.1366 0.963424 71.9457 1.11198 72.0389 1.58509C72.1526 2.17248 72.2003 2.77357 72.3526 3.35181C72.3958 3.51866 72.6845 3.71521 72.8754 3.73121C73.4779 3.77921 74.0871 3.73578 74.6918 3.75407C75.0373 3.7655 75.1055 3.59637 75.0987 3.29925C75.0873 2.785 75.0919 2.27075 75.0964 1.75651C75.1009 1.24683 74.8918 0.967996 74.344 1.00914C74.0416 1.02971 73.7393 1.01371 73.4347 1.01371V1.01142ZM25.6965 74.7887C25.8738 74.7887 26.1216 74.7658 26.3649 74.7932C26.8718 74.8504 27.0218 74.6195 27.0127 74.135C26.9991 73.4539 27.0446 72.7728 27.0718 72.0917C27.0855 71.774 26.9855 71.55 26.6286 71.6026C26.2057 71.6666 25.7784 71.7352 25.3715 71.8586C24.2849 72.1854 24.2894 72.1969 24.2894 73.3808C24.2894 73.4379 24.2894 73.495 24.2894 73.5522C24.2894 74.3247 24.6615 74.7277 25.4056 74.7612C25.4806 74.7658 25.5556 74.7749 25.6988 74.7864L25.6965 74.7887ZM29.6952 74.375C30.684 74.375 31.6365 74.3841 32.589 74.359C32.6708 74.359 32.8254 74.119 32.8118 74.007C32.7299 73.3533 32.6367 72.6974 32.4844 72.0574C32.4458 71.8974 32.1798 71.7055 31.998 71.6803C31.4387 71.6072 30.8704 71.6209 30.3067 71.5775C29.9702 71.55 29.8134 71.6803 29.7997 72.0163C29.7725 72.734 29.7361 73.4516 29.6952 74.375ZM41.8297 22.4406C41.7547 21.5836 41.6911 20.7539 41.5956 19.9266C41.5865 19.8397 41.3751 19.7209 41.2546 19.714C40.5954 19.6774 39.9361 19.65 39.2769 19.6706C39.1428 19.6751 38.9155 19.8854 38.9041 20.0157C38.8495 20.6579 38.8541 21.3024 38.8382 21.947C38.8291 22.2989 38.9723 22.4566 39.3451 22.4475C40.1544 22.4269 40.9636 22.4406 41.832 22.4406H41.8297ZM55.035 66.2613C55.035 65.2938 54.5538 64.81 53.5915 64.81C53.5529 64.81 53.5165 64.81 53.4778 64.81C52.6852 64.81 52.2889 65.2145 52.2889 66.0236C52.2889 66.1196 52.2889 66.2133 52.2889 66.3093C52.3026 67.6623 52.0571 67.6669 53.6347 67.6623C55.2919 67.6555 55.01 67.74 55.0327 66.2636L55.035 66.2613ZM35.717 77.1451C35.717 77.961 35.7079 78.7883 35.7306 79.6157C35.7329 79.7026 35.933 79.8511 36.0443 79.8557C36.8582 79.8763 37.6743 79.8786 38.4881 79.8603C38.8132 79.8534 38.9405 79.6934 38.8245 79.3255C38.6608 78.8066 38.5176 78.2718 38.4608 77.7347C38.4131 77.2845 38.1971 77.1451 37.8038 77.1451C37.1446 77.1451 36.4831 77.1451 35.7147 77.1451H35.717ZM78.2767 76.5668C78.2767 75.6434 77.8152 75.1818 76.8923 75.1818C75.3078 75.1841 75.5056 75.0469 75.5033 76.5897C75.501 78.1164 75.3374 77.9518 76.8695 77.9541C77.8061 77.9557 78.2752 77.4932 78.2767 76.5668ZM99.9475 52.6349C99.9475 51.774 99.536 51.3436 98.7131 51.3436C97.6735 51.3436 97.1544 51.8571 97.156 52.884C97.156 54.1777 97.1696 54.2005 98.4335 54.1891C99.8316 54.1754 99.9702 54.5433 99.9475 52.6372V52.6349ZM4.50081 79.922C4.50081 79.5791 4.50536 79.2363 4.50081 78.8935C4.49172 78.2855 4.20074 78.1278 3.62106 78.3518C3.24371 78.4981 2.83907 78.6421 2.44352 78.6535C1.96614 78.6672 1.79792 78.8729 1.79565 79.3026C1.7911 79.8351 1.8002 80.3677 1.79338 80.9002C1.78883 81.3002 1.95023 81.4944 2.37078 81.4784C2.90045 81.4579 3.43239 81.4556 3.95978 81.4784C4.39397 81.4967 4.52809 81.2956 4.50536 80.8933C4.4849 80.5711 4.50081 80.2465 4.50081 79.922ZM17.5492 49.4329C17.5492 50.2305 17.5265 50.9688 17.5674 51.707C17.5765 51.867 17.7947 52.1435 17.9289 52.1504C18.6972 52.1938 19.4701 52.1709 20.2908 52.1709V49.4329H17.5515H17.5492ZM65.2192 38.6497V35.9665H62.564V38.6497H65.2192ZM47.1059 15.1178C47.1059 14.1777 46.6634 13.7076 45.7784 13.7076C44.3576 13.7076 44.3508 13.7076 44.3599 15.1063C44.369 16.6491 44.1394 16.496 45.7511 16.5005C46.6543 16.5036 47.1059 16.0427 47.1059 15.1178ZM80.6749 65.0157C80.6749 65.3197 80.6886 65.6236 80.6704 65.9253C80.6499 66.2682 80.7863 66.403 81.1296 66.3916C81.657 66.3733 82.1889 66.3573 82.714 66.3961C83.2869 66.4373 83.5119 66.2156 83.4278 65.6442C83.396 65.4202 83.4233 65.1894 83.4233 64.9608C83.4165 63.4432 83.587 63.6032 82.0548 63.5987C81.1334 63.5971 80.6727 64.0695 80.6727 65.0157H80.6749ZM86.1512 60.4423C86.9968 60.4423 87.7311 60.4423 88.4676 60.4423C88.7609 60.4423 88.9132 60.3143 88.9041 59.9898C88.8882 59.3818 88.9359 58.7716 88.8768 58.1682C88.8586 57.9877 88.5904 57.7042 88.4153 57.686C87.8175 57.6265 87.206 57.6357 86.6058 57.6814C86.4467 57.6928 86.1807 57.9168 86.1716 58.0539C86.1284 58.8242 86.1512 59.599 86.1512 60.4423ZM67.281 82.8818C67.281 82.5961 67.2628 82.3104 67.2855 82.027C67.3174 81.6316 67.156 81.467 66.7672 81.483C66.4081 81.4967 66.0489 81.4784 65.6897 81.4853C64.5667 81.5059 64.4394 81.2179 64.4508 82.7241C64.4644 84.5342 64.3735 84.1891 65.9398 84.2097C67.5561 84.2302 67.2583 84.2645 67.2833 82.8795L67.281 82.8818ZM28.6199 43.0219C28.6199 43.8676 28.5995 44.6424 28.6404 45.4126C28.6472 45.5429 28.9177 45.7509 29.0768 45.7623C29.677 45.8034 30.2839 45.7692 30.8864 45.7829C31.2182 45.7897 31.3842 45.648 31.3865 45.3212C31.391 44.6949 31.4092 44.0687 31.3706 43.4448C31.3615 43.2985 31.1569 43.0471 31.0318 43.0402C30.2476 43.0036 29.4588 43.0219 28.6199 43.0219ZM43.4006 90.9977C44.9441 91 44.7941 91.1051 44.7872 89.6332C44.7804 88.0631 44.9873 88.2276 43.4074 88.2231C42.4799 88.22 42.0162 88.6809 42.0162 89.6058C42.0162 90.5307 42.4776 90.9954 43.4006 91V90.9977ZM58.4881 16.0708C58.4881 15.2183 58.5063 14.4435 58.4699 13.671C58.4653 13.543 58.238 13.3305 58.1016 13.3236C57.481 13.2871 56.8536 13.2711 56.2376 13.3305C56.058 13.3465 55.7761 13.6162 55.7579 13.7944C55.6965 14.375 55.692 14.9715 55.7579 15.552C55.7806 15.7417 56.0739 16.0343 56.2626 16.048C56.9718 16.1074 57.6879 16.0708 58.4858 16.0708H58.4881ZM102.739 45.5452V48.041H105.374V45.4789C104.603 45.4789 103.887 45.4766 103.171 45.4812C103.041 45.4812 102.912 45.52 102.741 45.5452H102.739Z" fill="#822B33" stroke="#822B33" stroke-width="2" mask="url(#path-1-inside-1_10_199)"/>
</g>
<defs>
<clipPath id="clip0_10_199">
<rect width="110" height="90" fill="white"/>
</clipPath>
</defs>
</svg>
