<svg width="42" height="66" viewBox="0 0 42 66" fill="none" xmlns="http://www.w3.org/2000/svg">
<rect x="18" y="60" width="6" height="6" fill="#822B33"/>
<rect x="18" y="54" width="6" height="6" fill="#822B33"/>
<rect x="18" y="48" width="6" height="6" fill="#822B33"/>
<rect x="18" y="42" width="6" height="6" fill="#822B33"/>
<rect x="18" y="36" width="6" height="6" fill="#822B33"/>
<rect x="18" y="30" width="6" height="6" fill="#822B33"/>
<rect x="18" y="24" width="6" height="6" fill="#822B33"/>
<rect x="24" y="18" width="6" height="6" fill="#822B33"/>
<rect x="30" y="12" width="6" height="6" fill="#822B33"/>
<rect x="24" y="6" width="6" height="6" fill="#822B33"/>
<rect x="30" width="6" height="6" fill="#822B33"/>
<rect x="30" y="24" width="6" height="6" fill="#822B33"/>
<rect x="18" y="18" width="6" height="6" fill="#822B33"/>
<rect x="12" y="12" width="6" height="6" fill="#822B33"/>
<rect x="18" y="6" width="6" height="6" fill="#822B33"/>
<rect x="24" y="12" width="6" height="6" fill="#822B33"/>
<rect x="6" y="24" width="6" height="6" fill="#822B33"/>
<rect x="6" width="6" height="6" fill="#822B33"/>
<rect x="18" width="6" height="6" fill="#822B33"/>
<rect x="12" y="6" width="6" height="6" fill="#822B33"/>
<rect x="6" y="12" width="6" height="6" fill="#822B33"/>
<rect x="12" y="18" width="6" height="6" fill="#822B33"/>
<rect x="24" y="48" width="6" height="6" fill="#822B33"/>
<rect x="30" y="42" width="6" height="6" fill="#822B33"/>
<rect x="36" y="36" width="6" height="6" fill="#822B33"/>
<rect y="36" width="6" height="6" fill="#822B33"/>
<rect x="12" y="48" width="6" height="6" fill="#822B33"/>
<rect x="6" y="42" width="6" height="6" fill="#822B33"/>
</svg>
