<svg width="78" height="66" viewBox="0 0 78 66" fill="none" xmlns="http://www.w3.org/2000/svg">
<rect x="30" y="30" width="6" height="6" fill="#79804E"/>
<rect x="36" y="24" width="6" height="6" fill="#8C945B"/>
<rect x="36" y="36" width="6" height="6" fill="#8C945B"/>
<rect x="36" y="42" width="6" height="6" fill="#79804E"/>
<rect x="36" y="48" width="6" height="6" fill="#79804E"/>
<rect x="36" y="60" width="6" height="6" fill="#79804E"/>
<rect x="42" y="54" width="6" height="6" fill="#79804E"/>
<rect x="48" y="48" width="6" height="6" fill="#8C945B"/>
<rect x="48" y="42" width="6" height="6" fill="#8C945B"/>
<rect x="60" y="36" width="6" height="6" fill="#AFDCFB"/>
<rect x="54" y="36" width="6" height="6" fill="#8C945B"/>
<rect x="66" y="36" width="6" height="6" fill="#F3BFEC"/>
<rect x="72" y="36" width="6" height="6" fill="#AFDCFB"/>
<rect x="66" y="30" width="6" height="6" fill="#AFDCFB"/>
<rect x="66" y="42" width="6" height="6" fill="#AFDCFB"/>
<rect x="30" y="54" width="6" height="6" fill="#79804E"/>
<rect x="24" y="48" width="6" height="6" fill="#8C945B"/>
<rect x="24" y="42" width="6" height="6" fill="#8C945B"/>
<rect x="18" y="36" width="6" height="6" fill="#8C945B"/>
<rect x="12" y="36" width="6" height="6" fill="#F3BFEC"/>
<rect x="6" y="36" width="6" height="6" fill="#822B33"/>
<rect x="6" y="42" width="6" height="6" fill="#F3BFEC"/>
<rect x="6" y="30" width="6" height="6" fill="#F3BFEC"/>
<rect y="36" width="6" height="6" fill="#F3BFEC"/>
<rect x="42" y="30" width="6" height="6" fill="#79804E"/>
<rect x="48" y="24" width="6" height="6" fill="#8C945B"/>
<rect x="54" y="18" width="6" height="6" fill="#822B33"/>
<rect x="60" y="18" width="6" height="6" fill="#AFDCFB"/>
<rect x="60" y="24" width="6" height="6" fill="#822B33"/>
<rect x="60" y="12" width="6" height="6" fill="#822B33"/>
<rect x="66" y="18" width="6" height="6" fill="#822B33"/>
<rect x="36" y="18" width="6" height="6" fill="#8C945B"/>
<rect x="36" y="12" width="6" height="6" fill="#822B33"/>
<rect x="36" y="6" width="6" height="6" fill="#F3BFEC"/>
<rect x="36" width="6" height="6" fill="#822B33"/>
<rect x="42" y="6" width="6" height="6" fill="#822B33"/>
<rect x="30" y="6" width="6" height="6" fill="#822B33"/>
<rect x="24" y="24" width="6" height="6" fill="#8C945B"/>
<rect x="18" y="18" width="6" height="6" fill="#AFDCFB"/>
<rect x="12" y="18" width="6" height="6" fill="#822B33"/>
<rect x="6" y="18" width="6" height="6" fill="#AFDCFB"/>
<rect x="12" y="12" width="6" height="6" fill="#AFDCFB"/>
<rect x="12" y="24" width="6" height="6" fill="#AFDCFB"/>
</svg>
