<svg width="30" height="66" viewBox="0 0 30 66" fill="none" xmlns="http://www.w3.org/2000/svg">
<rect x="12" y="60" width="6" height="6" fill="#8C945B"/>
<rect x="12" y="54" width="6" height="6" fill="#79804E"/>
<rect x="12" y="48" width="6" height="6" fill="#79804E"/>
<rect x="12" y="42" width="6" height="6" fill="#8C945B"/>
<rect x="12" y="36" width="6" height="6" fill="#AFDCFB"/>
<rect x="12" y="12" width="6" height="6" fill="#AFDCFB"/>
<rect x="18" y="30" width="6" height="6" fill="#AFDCFB"/>
<rect x="18" y="6" width="6" height="6" fill="#AFDCFB"/>
<rect x="18" y="36" width="6" height="6" fill="#AFDCFB"/>
<rect x="18" y="12" width="6" height="6" fill="#AFDCFB"/>
<rect x="6" y="36" width="6" height="6" fill="#AFDCFB"/>
<rect x="6" y="12" width="6" height="6" fill="#AFDCFB"/>
<rect x="6" y="30" width="6" height="6" fill="#AFDCFB"/>
<rect x="6" y="6" width="6" height="6" fill="#AFDCFB"/>
<rect x="12" y="24" width="6" height="6" fill="#AFDCFB"/>
<rect x="12" width="6" height="6" fill="#AFDCFB"/>
<rect x="12" y="6" width="6" height="6" fill="#822B33"/>
<rect x="12" y="30" width="6" height="6" fill="#822B33"/>
<rect x="12" y="18" width="6" height="6" fill="#AFDCFB"/>
<rect x="18" y="54" width="6" height="6" fill="#79804E"/>
<rect x="24" y="48" width="6" height="6" fill="#8C945B"/>
<rect x="6" y="54" width="6" height="6" fill="#79804E"/>
<rect y="48" width="6" height="6" fill="#8C945B"/>
</svg>
