<svg width="30" height="59" viewBox="0 0 30 59" fill="none" xmlns="http://www.w3.org/2000/svg">
<rect x="12" y="47" width="6" height="6" fill="#79804E"/>
<rect x="12" y="53" width="6" height="6" fill="#79804E"/>
<rect x="12" y="41" width="6" height="6" fill="#79804E"/>
<rect x="12" y="35" width="6" height="6" fill="#8C945B"/>
<rect x="12" y="30" width="6" height="6" fill="#8C945B"/>
<rect x="12" y="18" width="6" height="6" fill="#AFDCFB"/>
<rect x="24" y="18" width="6" height="6" fill="#AFDCFB"/>
<rect x="12" y="12" width="6" height="6" fill="#822B33"/>
<rect x="12" y="6" width="6" height="6" fill="#AFDCFB"/>
<rect x="6" y="12" width="6" height="6" fill="#AFDCFB"/>
<rect x="18" y="12" width="6" height="6" fill="#AFDCFB"/>
<rect x="24" y="6" width="6" height="6" fill="#AFDCFB"/>
<rect y="6" width="6" height="6" fill="#AFDCFB"/>
<rect x="6" width="6" height="6" fill="#F3BFEC"/>
<rect x="18" width="6" height="6" fill="#F3BFEC"/>
<rect x="18" y="24" width="6" height="6" fill="#F3BFEC"/>
<rect x="6" y="24" width="6" height="6" fill="#F3BFEC"/>
<rect y="18" width="6" height="6" fill="#AFDCFB"/>
<rect x="18" y="41" width="6" height="6" fill="#79804E"/>
<rect x="24" y="35" width="6" height="6" fill="#79804E"/>
<rect x="6" y="41" width="6" height="6" fill="#79804E"/>
<rect y="35" width="6" height="6" fill="#79804E"/>
</svg>
