<svg width="42" height="60" viewBox="0 0 42 60" fill="none" xmlns="http://www.w3.org/2000/svg">
<rect x="18" y="54" width="6" height="6" fill="#79804E"/>
<rect x="18" y="48" width="6" height="6" fill="#79804E"/>
<rect x="18" y="42" width="6" height="6" fill="#79804E"/>
<rect x="18" y="36" width="6" height="6" fill="#8C945B"/>
<rect x="18" y="30" width="6" height="6" fill="#8C945B"/>
<rect x="18" y="24" width="6" height="6" fill="#822B33"/>
<rect x="24" y="18" width="6" height="6" fill="#822B33"/>
<rect x="30" y="12" width="6" height="6" fill="#822B33"/>
<rect x="24" y="6" width="6" height="6" fill="#822B33"/>
<rect x="30" width="6" height="6" fill="#F3BFEC"/>
<rect x="30" y="24" width="6" height="6" fill="#F3BFEC"/>
<rect x="18" y="18" width="6" height="6" fill="#822B33" fill-opacity="0.8"/>
<rect x="12" y="12" width="6" height="6" fill="#822B33" fill-opacity="0.8"/>
<rect x="18" y="6" width="6" height="6" fill="#822B33" fill-opacity="0.8"/>
<rect x="24" y="12" width="6" height="6" fill="#822B33" fill-opacity="0.8"/>
<rect x="6" y="24" width="6" height="6" fill="#F3BFEC"/>
<rect x="6" width="6" height="6" fill="#F3BFEC"/>
<rect x="18" width="6" height="6" fill="#822B33"/>
<rect x="12" y="6" width="6" height="6" fill="#822B33"/>
<rect x="6" y="12" width="6" height="6" fill="#822B33"/>
<rect x="12" y="18" width="6" height="6" fill="#822B33"/>
<rect x="24" y="48" width="6" height="6" fill="#79804E"/>
<rect x="30" y="42" width="6" height="6" fill="#8C945B"/>
<rect x="36" y="36" width="6" height="6" fill="#79804E"/>
<rect y="36" width="6" height="6" fill="#79804E"/>
<rect x="12" y="48" width="6" height="6" fill="#79804E"/>
<rect x="6" y="42" width="6" height="6" fill="#8C945B"/>
</svg>
