<svg width="244" height="202" viewBox="0 0 244 202" fill="none" xmlns="http://www.w3.org/2000/svg">
<g clip-path="url(#clip0_18_2387)">
<path d="M139.2 48.44C140.45 48.42 141.69 48.4 142.94 48.39C145.107 48.3833 146.197 47.2733 146.21 45.06C146.223 42.8467 147.36 41.7267 149.62 41.7C151.88 41.6733 153.003 40.5867 152.99 38.44C152.99 37.94 153.02 37.44 152.99 36.94C152.9 35.62 153.37 35.03 154.82 34.96C159.61 34.71 159.61 34.65 159.73 29.72C159.73 29.55 159.75 29.39 159.73 29.22C159.61 27.8 160.33 27.4 161.67 27.33C166.97 27.04 166.96 27.01 167.09 32.24C167.09 32.32 167.07 32.42 167.09 32.49C167.48 33.31 167.83 34.79 168.28 34.81C170.11 34.92 173.21 35.13 173.56 34.32C174.37 32.44 174.06 29.96 173.72 27.8C173.65 27.37 171.4 27.02 170.19 27.1C168.02 27.25 167.13 26.59 167.33 24.33C167.5 22.41 166.8 20.3 170.16 20.5C174.13 20.73 174.14 20.5 174.11 16.46C174.11 15.96 174.21 15.42 174.06 14.97C173.89 14.48 173.48 13.72 173.16 13.7C171.35 13.64 169.44 13.46 167.78 14C167.22 14.18 167.3 16.34 167.09 17.6C167.08 17.68 167.08 17.77 167.09 17.85C167.35 19.82 166.51 20.63 164.54 20.32C164.05 20.24 163.54 20.31 163.04 20.31C160.847 20.31 159.743 19.2433 159.73 17.11C159.717 14.7367 158.53 13.5533 156.17 13.56C155.5 13.56 154.77 13.39 154.19 13.62C153.62 13.85 152.91 14.42 152.8 14.95C151.89 19.43 152.66 20.37 157.14 20.56C157.31 20.56 157.47 20.58 157.64 20.57C158.91 20.5 159.47 21.1 159.41 22.37C159.37 23.2 159.36 24.04 159.41 24.86C159.51 26.42 158.96 27.07 157.27 27.07C152.77 27.09 152.77 27.17 152.72 31.82C152.72 32.24 152.8 32.68 152.68 33.06C152.52 33.56 152.24 34.41 151.96 34.43C150.24 34.55 148.45 34.69 146.8 34.32C146.39 34.23 146.25 32.27 146.24 31.17C146.18 27.01 146.21 27.16 142.25 26.97C139.81 26.86 139.09 27.65 139.18 30.05C139.35 34.48 139.22 34.53 134.57 34.63C133.14 34.66 132.48 35.04 132.39 36.58C132.1 41.27 132.05 41.27 127.18 41.34C127.1 41.34 127.01 41.35 126.93 41.34C125.16 41.1 124.65 41.94 124.63 43.63C124.58 48.01 124.52 48.1 120.18 48.07C118.26 48.06 117.67 48.79 117.8 50.57C117.9 51.94 117.82 53.31 117.82 54.72C116.81 54.78 116.24 54.84 115.66 54.85C112.333 54.9033 110.78 56.6167 111 59.99C111 60.07 110.97 60.19 111 60.23C111.55 60.77 112.06 61.68 112.67 61.76C114.27 61.98 115.93 61.83 117.62 61.83V69.46C115.87 69.46 114.3 69.49 112.74 69.45C111.47 69.42 110.93 69.96 110.98 71.24C111.04 72.86 110.99 74.48 110.99 75.95C108.51 76.25 105.56 75.79 104.7 76.92C103.64 78.32 104.31 81.04 104.23 83.19L104.31 83.11C103.56 83.1 102.81 83.09 102.07 83.08C97.13 83.03 97.19 83.03 97.4 87.99C97.47 89.64 98.13 90.19 99.69 90.1C101.14 90.01 102.59 90.08 104.02 90.08V96.59C102.33 96.59 100.84 96.52 99.37 96.62C98.77 96.66 97.71 97.03 97.69 97.3C97.56 99.43 97.4 101.62 97.81 103.69C97.91 104.18 100.08 104.3 101.31 104.53C103.92 105.03 104.75 103.78 104.45 101.35C104.33 100.37 104.33 99.34 104.49 98.37C104.57 97.84 105 97.1 105.44 96.95C109.15 95.7 110.98 96.98 110.99 100.74C110.99 100.82 110.99 100.91 110.99 100.99C110.99 104.54 110.99 104.51 114.55 104.57C115.58 104.59 117.42 104.72 117.5 105.08C117.84 106.75 117.86 108.55 117.57 110.22C117.5 110.62 115.76 110.9 114.78 110.92C110.99 111.01 110.99 110.96 111 114.79C111 115.29 110.82 115.91 111.05 116.26C111.48 116.9 112.13 117.85 112.71 117.86C118.77 117.98 124.84 117.96 130.91 117.89C131.47 117.89 132.36 117.3 132.52 116.81C133.82 112.81 132.47 110.96 128.41 110.96C128.16 110.96 127.91 110.92 127.66 110.96C125.32 111.36 124.65 110.32 124.76 108.06C124.92 104.56 124.79 104.55 128.26 104.55C129.09 104.55 130.01 104.77 130.73 104.49C131.46 104.2 132.45 103.46 132.55 102.81C133.38 96.88 133.14 96.65 127.34 96.59C126.92 96.59 126.43 96.72 126.11 96.54C125.62 96.27 124.93 95.81 124.89 95.38C124.75 93.68 124.83 91.97 124.83 90.07C126.11 90.07 127.01 90.09 127.92 90.07C133.02 89.94 132.59 91.3 132.65 85.02C132.67 83.45 132.01 82.99 130.56 83.06C128.65 83.15 126.74 83.12 124.83 83.14L124.91 83.22V76.45C126.01 76.45 126.83 76.47 127.64 76.45C133.33 76.3 132.52 77.7 132.65 71.22C132.68 69.7 131.97 69.4 130.68 69.44C128.8 69.5 126.91 69.45 125 69.45V61.83C127.08 61.83 128.98 61.79 130.87 61.84C132.14 61.87 132.68 61.37 132.64 60.08C132.58 58.47 132.63 56.85 132.63 55.31C133.35 55.18 133.59 55.11 133.83 55.1C138.97 54.86 138.93 54.87 139.28 59.9C139.32 60.55 139.83 61.58 140.34 61.73C144.71 63.03 146.36 61.72 146.23 57.23C146.23 56.98 146.32 56.64 146.2 56.5C145.69 55.91 145.18 55.04 144.53 54.91C142.95 54.57 140.54 55.17 139.87 54.31C139 53.19 139.51 51.01 139.41 49.29C139.39 48.96 139.34 48.63 139.3 48.3L139.22 48.38L139.2 48.44ZM139.24 159.66C140.82 159.64 142.41 159.52 143.98 159.64C145.78 159.77 146.35 158.99 146.23 157.3C146.13 155.91 146.21 154.52 146.21 152.97C147.21 152.9 147.94 152.8 148.67 152.8C153.58 152.76 152.95 153.24 152.99 148.58C152.99 147.78 153.07 146.98 153.12 145.99C154.78 145.99 156.19 145.93 157.59 146C159.21 146.08 159.85 145.41 159.74 143.79C159.64 142.33 159.72 140.86 159.72 139.28H166.86C166.93 140 167.05 140.64 167.06 141.28C167.19 146.36 167.37 146.53 172.44 145.98C172.52 145.98 172.64 146.01 172.68 145.97C173.16 145.52 173.94 145.12 174.04 144.59C174.93 140.02 174.22 139.15 169.66 139.01C169.33 139 168.92 139.11 168.68 138.95C168.2 138.63 167.47 138.2 167.44 137.77C167.31 135.73 167.38 133.68 167.38 131.43C168.88 131.43 170.03 131.47 171.18 131.42C171.99 131.38 173.46 131.34 173.5 131.1C173.83 129.27 174.04 127.38 173.88 125.54C173.84 125.11 172.24 124.53 171.35 124.51C167.34 124.39 167.5 124.44 167.3 121.16C167.14 118.61 167.99 117.6 170.52 117.99C171.09 118.08 171.81 118.21 172.24 117.95C172.95 117.52 173.67 116.89 174.03 116.17C174.33 115.56 174.19 114.69 174.09 113.96C173.67 110.72 175.98 111.47 177.8 111.29C179.97 111.07 180.73 111.83 180.64 114.07C180.48 118.01 180.62 118.02 184.53 118C185.03 118 185.6 118.15 186.01 117.96C186.59 117.68 187.36 117.23 187.49 116.71C188.57 112.46 187.53 111.13 183.21 111.01C182.79 111 182.31 111.1 181.98 110.92C181.54 110.68 180.99 110.28 180.87 109.85C179.79 106.02 180.87 104.63 184.82 104.6C184.99 104.6 185.16 104.58 185.32 104.6C187.15 104.87 187.66 103.93 187.59 102.29C187.52 100.58 187.57 98.87 187.57 97.13H194.06C194.11 97.95 194.16 98.52 194.17 99.1C194.3 105.42 193.03 104.49 200 104.63C201.66 104.66 202.12 103.99 202.17 102.42C202.33 96.77 202.38 96.77 196.65 96.65C196.32 96.65 195.91 96.76 195.67 96.61C195.19 96.3 194.53 95.91 194.42 95.43C193.41 91.21 194.28 90.13 198.5 90.13C199.08 90.13 199.67 90.18 200.24 90.11C200.79 90.04 201.78 89.88 201.79 89.7C201.96 87.74 202.1 85.75 201.88 83.8C201.84 83.47 200.04 83.17 199.04 83.15C194.07 83.08 194.13 83.12 194.3 78.36C194.35 76.94 194.84 76.44 196.21 76.49C198.09 76.56 199.98 76.51 202.21 76.51V69.84H208.75C208.75 71.62 208.66 73.26 208.8 74.89C208.85 75.45 209.43 76.4 209.83 76.43C211.7 76.6 213.6 76.5 215.74 76.5C215.74 74.64 215.66 73.16 215.76 71.68C215.87 70.09 215.31 69.37 213.65 69.48C212.18 69.58 210.71 69.5 208.97 69.5C208.97 68.35 208.97 67.53 208.97 66.72C208.95 62.04 208.94 61.95 213.57 61.92C215.4 61.91 215.89 61.19 215.77 59.54C215.67 58.16 215.75 56.76 215.75 55.13C217.48 55.13 218.88 55.06 220.28 55.15C221.97 55.25 222.62 54.65 222.62 52.87C222.62 48.56 222.7 48.52 227.05 48.4C228.55 48.36 229.34 47.98 229.35 46.28C229.38 40.34 229.23 41.29 224.83 41.4C223.08 41.44 222.37 40.86 222.56 39.12C222.64 38.38 222.61 37.62 222.56 36.88C222.48 35.54 222.97 35 224.42 34.95C229.27 34.78 229.27 34.72 229.32 29.95C229.32 29.7 229.34 29.45 229.32 29.2C229.19 27.78 229.9 27.38 231.24 27.32C236.55 27.05 236.52 27.01 236.73 32.46C236.76 33.23 237.06 34.6 237.38 34.65C239.16 34.9 241.02 35.06 242.76 34.72C243.26 34.62 243.67 32.78 243.69 31.73C243.79 26.42 243.99 26.98 239.04 27C238.41 27 237.26 26.57 237.23 26.26C237.09 24.54 237 22.75 237.41 21.11C237.52 20.68 239.52 20.47 240.59 20.6C243.26 20.94 243.87 19.76 243.77 17.34C243.62 13.56 243.74 13.55 240.16 13.55C237.873 13.55 236.72 14.6833 236.7 16.95C236.7 17.61 236.86 18.36 236.62 18.92C236.39 19.47 235.76 20.2 235.26 20.24C233.39 20.4 231.51 20.3 229.47 20.3C229.41 19.06 229.35 18.17 229.34 17.27C229.32 14.7833 228.107 13.5433 225.7 13.55C223.48 13.55 222.36 14.78 222.34 17.24C222.34 17.82 222.47 18.47 222.26 18.97C222.05 19.48 221.52 20.19 221.09 20.23C219.4 20.38 217.69 20.29 215.76 20.29C215.76 19.08 215.77 18.26 215.76 17.44C215.7 13.47 216.44 13.72 211.86 13.49C209.22 13.36 208.58 14.27 208.72 16.74C208.92 20.31 208.76 20.32 205.35 20.31C203.23 20.31 202.167 19.2167 202.16 17.03C202.16 16.37 202.14 15.7 202.16 15.04C202.18 13.33 200.86 13.35 199.89 13.62C198.01 14.13 195.08 11.97 194.32 14.95C193.1 19.72 194.02 20.57 198.87 20.58C199.54 20.58 200.24 20.47 200.85 20.65C201.29 20.78 201.83 21.26 201.94 21.68C202.99 25.77 201.98 27.06 197.87 27.06C197.12 27.06 196.31 26.89 195.64 27.13C195.08 27.33 194.37 27.94 194.27 28.48C193.21 34.01 193.98 34.93 199.51 35C199.93 35 200.43 34.87 200.74 35.05C201.22 35.34 201.89 35.81 201.93 36.26C202.07 37.88 201.99 39.52 201.99 41.39C200.71 41.39 199.81 41.37 198.91 41.39C193.91 41.5 194.2 40.22 194.19 46.51C194.19 47.92 194.75 48.45 196.12 48.41C197.94 48.35 199.75 48.4 201.79 48.4V54.91C199.85 54.91 198.03 54.98 196.21 54.89C194.68 54.82 194.12 55.46 194.19 56.94C194.27 58.47 194.21 60.02 194.21 61.73C192.3 61.73 190.81 61.75 189.33 61.73C188.85 61.73 188.37 61.6 187.61 61.49C187.61 59.85 187.72 58.29 187.56 56.75C187.49 56.11 186.93 55.12 186.42 55C181.7 53.86 180.47 54.9 180.63 59.69C180.63 59.77 180.64 59.86 180.63 59.94C180.45 61.52 181.27 61.98 182.71 61.93C184.18 61.87 185.65 61.92 187.21 61.92V69.54C185.88 69.54 184.72 69.64 183.59 69.52C181.4 69.3 180.27 69.97 180.61 72.4C180.78 73.6 180.64 74.84 180.64 76.35C178.95 76.35 177.56 76.41 176.17 76.33C174.49 76.23 173.69 76.81 173.84 78.61C173.96 80.06 173.86 81.53 173.86 83.16C172.89 83.16 172.32 83.16 171.76 83.16C166.76 83.19 166.52 83.4 167.22 88.36C167.31 89.03 168.27 89.76 168.99 90.11C169.6 90.4 170.47 90.26 171.21 90.15C174.43 89.67 173.78 91.93 173.89 93.77C174 95.69 173.77 96.86 171.29 96.74C167.16 96.54 167.15 96.71 167.14 100.91C167.14 101.24 167.11 101.58 167.14 101.91C167.35 103.75 166.57 104.39 164.71 104.34C158.92 104.21 159.88 104.88 159.78 99.43C159.78 98.93 159.85 98.4 159.7 97.95C159.56 97.53 159.17 96.89 158.87 96.88C157.06 96.8 155.16 96.58 153.48 97.07C152.94 97.23 152.84 99.41 152.81 100.67C152.72 104.32 152.76 104.14 149.35 104.37C146.71 104.55 145.89 103.55 146.25 101.11C146.35 100.46 146.4 99.74 146.22 99.13C145.97 98.3 145.52 96.89 145.09 96.86C143.25 96.74 140.12 96.49 139.77 97.3C138.95 99.18 139.26 101.67 139.59 103.84C139.66 104.27 141.88 104.68 143.07 104.58C145.61 104.38 146.14 105.5 146.08 107.78C146.02 109.87 145.94 111.23 143.2 111.1C139.27 110.91 139.26 111.1 139.28 115.12C139.28 115.54 139.12 116.07 139.32 116.34C139.76 116.97 140.3 117.64 140.95 117.97C141.48 118.24 142.25 118.03 142.92 118.03C145.14 118.03 146.253 116.933 146.26 114.74C146.27 111.33 146.28 111.49 149.62 111.29C152.18 111.13 153.17 112.02 152.78 114.53C152.7 115.02 152.8 115.53 152.78 116.02C152.71 117.51 153.38 118.15 154.88 118.04C155.87 117.97 156.89 117.92 157.87 118.09C158.41 118.18 159.15 118.63 159.33 119.09C160.6 122.47 159.24 124.64 155.81 124.43C153.29 124.27 152.68 125.21 152.74 127.55C152.83 131.31 153.46 131.36 148.95 131.18C146.63 131.09 145.93 131.78 145.99 134.08C146.11 138.85 145.99 138.93 141.23 139.01C139.63 139.04 139.2 139.64 139.28 141.08C139.36 142.55 139.3 144.02 139.3 145.82C137.44 145.82 135.88 145.88 134.33 145.8C132.91 145.73 132.39 146.31 132.46 147.7C132.54 149.25 132.48 150.81 132.48 152.45C131.78 152.54 131.38 152.61 130.98 152.64C128.96 152.81 125.93 152.25 125.16 153.32C124.13 154.75 124.85 157.44 124.82 159.59L124.91 159.5C123.33 159.49 121.75 159.56 120.17 159.45C118.47 159.33 117.71 159.91 117.87 161.7C117.99 163.14 117.89 164.6 117.89 166.09C115.55 166.21 112.97 165.6 111.94 166.59C110.87 167.62 111.27 170.2 111.08 172.11C110.91 173.78 111.82 174.28 113.35 174.2C114.8 174.12 117.45 174 117.49 174.2C118.4 180.14 118.35 180.11 112.95 180.69C112.3 180.76 111.33 181.36 111.18 181.9C109.96 186.15 111.15 187.68 115.43 187.63C115.6 187.63 115.76 187.61 115.93 187.63C117.61 187.84 118.15 186.99 118.07 185.44C118 184.05 118.06 182.66 118.06 181.25C118.79 181.12 119.18 181.01 119.58 180.99C124.5 180.71 124.47 180.72 124.78 185.53C124.83 186.23 125.33 187.45 125.71 187.49C127.68 187.69 129.69 187.64 131.67 187.52C132.02 187.5 132.52 186.78 132.63 186.31C133.66 181.82 132.76 180.67 128.28 180.66C127.61 180.66 126.88 180.82 126.3 180.59C125.75 180.37 125.01 179.78 124.95 179.29C124.78 177.68 124.89 176.04 124.89 174.18C126.9 174.18 128.56 174.06 130.19 174.21C132.23 174.39 132.84 173.49 132.72 171.6C132.61 169.98 132.7 168.35 132.7 166.72H139.31C139.31 168.78 139.16 170.62 139.39 172.41C139.48 173.06 140.45 174.04 141.08 174.1C146.31 174.59 146.31 174.54 146.28 169.28C146.28 168.86 146.44 168.33 146.24 168.06C145.75 167.39 145.17 166.43 144.5 166.32C142.98 166.06 141.38 166.24 139.94 166.24C139.72 165.87 139.57 165.73 139.57 165.59C139.5 163.6 139.45 161.61 139.39 159.62L139.31 159.7L139.24 159.66ZM7.01 159.33C7.01 158.23 7.01 157.26 7.01 156.29C7.01 153.843 5.79 152.62 3.35 152.62C2.68 152.62 2 152.55 1.36 152.67C0.93 152.75 0.21 153.09 0.2 153.35C0.11 155.24 -0.04 157.19 0.35 159C0.44 159.43 2.54 159.41 3.72 159.62C4.66 159.79 6.35 159.87 6.4 160.18C6.67 161.95 6.73 163.82 6.4 165.57C6.33 165.96 4.4 166.14 3.32 166.17C0.02 166.25 0.02 166.21 0.01 169.46C-0.01 174.06 -0.00999975 174.13 4.4 174.11C6.1 174.11 6.93 174.57 6.71 176.37C6.64 176.94 6.76 177.54 6.71 178.11C6.51 180.21 7.24 181.08 9.54 180.98C14.08 180.8 13.45 180.88 13.4 184.85C13.37 186.83 13.95 187.89 16.1 187.61C16.67 187.54 17.27 187.66 17.84 187.6C19.54 187.43 20.34 188.08 20.16 189.86C20.08 190.68 20.35 191.6 20.07 192.33C19.82 192.98 19.11 193.63 18.45 193.91C17.81 194.18 16.97 194.07 16.23 193.97C13.96 193.65 13.21 194.74 13.41 196.84C13.47 197.42 13.47 198.01 13.41 198.58C13.23 200.43 14.06 201.07 15.88 201.03C20.85 200.92 20.44 201.46 20.45 196.72C20.45 196.39 20.33 195.97 20.49 195.74C20.85 195.2 21.31 194.38 21.79 194.34C23.73 194.18 25.7 194.27 27.72 194.27C27.8 195.23 27.88 195.8 27.9 196.37C28.01 201.29 28.41 201.68 33.34 200.94C33.91 200.85 34.74 200.06 34.83 199.49C35.62 194.73 35.1 194.05 30.37 194.03C28.38 194.03 28.05 193.17 28.08 191.46C28.16 186.39 28.18 187.39 23.99 187.3C23.82 187.3 23.65 187.28 23.49 187.3C21.08 187.67 20.3 186.66 20.41 184.25C20.58 180.64 20.43 180.67 16.73 180.58C15.8 180.56 14.15 180.34 14.08 179.98C13.77 178.31 13.68 176.5 14.03 174.85C14.12 174.42 16.03 174.2 17.12 174.16C20.44 174.06 20.47 174.12 20.46 170.88C20.46 165.41 20.88 166.16 15.84 166.23C14.1 166.25 13.62 165.59 13.71 164.06C13.76 163.23 13.78 162.39 13.71 161.57C13.57 160 14.35 159.63 15.79 159.58C20.26 159.43 20.21 159.38 20.53 154.77C20.58 154.1 21.28 152.97 21.77 152.91C23.71 152.69 25.7 152.82 27.92 152.82C27.92 154.2 27.92 155.27 27.92 156.33C27.92 159.6 27.92 159.62 31.18 159.59C35.16 159.55 34.9 160.25 34.91 155.87C34.91 155.45 34.87 155.04 34.91 154.62C35.07 153.12 34.46 152.49 32.92 152.59C31.39 152.68 29.85 152.61 28.12 152.61C28.12 150.68 28.1 149.2 28.12 147.71C28.12 147.23 28.25 146.75 28.36 145.98C29.99 145.98 31.56 146.09 33.09 145.93C33.72 145.86 34.69 145.28 34.81 144.77C35.92 140.02 34.98 138.89 30.21 139.01C30.13 139.01 30.04 139.01 29.96 139.01C28.49 138.87 27.8 139.46 27.88 141C27.96 142.47 27.9 143.95 27.9 145.54C26.99 145.64 26.36 145.76 25.72 145.78C20.71 145.92 20.76 145.91 20.4 141.06C20.35 140.36 19.73 139.23 19.19 139.1C14.45 137.96 13.25 139 13.42 143.8C13.42 143.88 13.42 143.97 13.42 144.05C13.28 145.44 13.94 146.03 15.31 146C16.85 145.97 18.39 146 19.9 146V152.63C18.34 152.63 17.01 152.7 15.69 152.61C13.95 152.49 13.27 153.21 13.4 154.94C13.5 156.39 13.42 157.85 13.42 159.34H7.04L7.01 159.33ZM58.93 201.3C58.95 201.21 58.98 201.11 59 201.02C59.42 201.02 59.84 200.97 60.25 201.02C62.41 201.32 63.17 200.47 63.11 198.25C62.99 193.99 63.11 193.99 58.74 193.99C57.99 193.99 57.23 193.92 56.5 194.03C56.07 194.09 55.35 194.43 55.34 194.68C55.24 196.57 54.97 198.55 55.43 200.33C55.58 200.92 57.71 201 58.94 201.31L58.93 201.3ZM104.43 170.1C104.43 167.493 103.15 166.193 100.59 166.2C99.93 166.2 99.23 166.11 98.62 166.31C98.17 166.46 97.63 166.94 97.5 167.38C96.07 172.3 97.6 174.3 102.46 174.18C103.83 174.14 104.47 173.72 104.43 172.34C104.41 171.6 104.43 170.85 104.43 170.11V170.1ZM101.26 54.91C98.7133 54.91 97.4367 55.9833 97.43 58.13C97.4233 60.6433 98.5033 61.9 100.67 61.9C103.177 61.9 104.433 60.83 104.44 58.69C104.44 56.1767 103.38 54.9167 101.26 54.91ZM208.93 6.84999C209.73 6.90999 210.3 6.99999 210.87 6.98999C216.36 6.89999 215.65 7.91999 215.78 2.12999C215.82 0.459994 215.2 -0.0400061 213.61 -6.05686e-06C207.83 0.139994 208.87 -0.720006 208.77 4.87999C208.76 5.44999 208.86 6.00999 208.93 6.84999ZM104.44 197.62C104.44 195.207 103.223 193.997 100.79 193.99C98.5567 193.99 97.4367 195.08 97.43 197.26C97.43 199.753 98.4667 201.003 100.54 201.01C103.14 201.01 104.44 199.88 104.44 197.62ZM156.06 61.9C159.71 61.9 159.74 61.9 159.71 58.75C159.7 56.85 160.38 54.65 156.96 54.85C152.74 55.1 152.73 54.9 152.72 58.2C152.72 60.6667 153.833 61.9 156.06 61.9ZM187.58 3.46999C187.58 1.16999 186.403 0.0199939 184.05 0.0199939C181.737 0.0199939 180.58 1.20333 180.58 3.56999C180.58 7.00999 180.58 7.03999 183.67 6.99999C187.67 6.94999 187.57 7.78999 187.58 3.46999ZM45.05 193.99C42.6633 193.99 41.4667 195.057 41.46 197.19C41.4533 199.737 42.51 201.013 44.63 201.02C47.1633 201.02 48.4333 199.963 48.44 197.85C48.44 195.283 47.31 194 45.05 194V193.99ZM3.46 139.02C1.15333 139.02 0 140.27 0 142.77C0 144.923 1.17 146 3.51 146C5.84333 146 7.01 144.827 7.01 142.48C7.01 140.167 5.82667 139.013 3.46 139.02ZM117.98 197.33C117.98 195.103 116.66 193.99 114.02 193.99C112 193.99 110.993 195.187 111 197.58C111 199.873 112.13 201.02 114.39 201.02C116.79 201.02 117.99 199.79 117.99 197.33H117.98ZM184.34 13.58C181.84 13.5733 180.587 14.68 180.58 16.9C180.573 19.3467 181.557 20.57 183.53 20.57C186.223 20.57 187.573 19.5 187.58 17.36C187.58 14.84 186.5 13.5767 184.34 13.57V13.58ZM240.13 6.99999C242.537 6.99999 243.74 5.84999 243.74 3.54999C243.74 1.19666 242.56 0.0199939 240.2 0.0199939C237.873 0.0199939 236.71 1.21666 236.71 3.60999C236.71 5.87666 237.85 7.00666 240.13 6.99999ZM73.06 193.99C70.78 193.997 69.6433 195.287 69.65 197.86C69.6567 199.967 70.9533 201.017 73.54 201.01C75.6133 201.01 76.6467 199.763 76.64 197.27C76.64 195.07 75.4433 193.973 73.05 193.98L73.06 193.99ZM86.39 201.01C88.8233 201.01 90.0433 199.87 90.05 197.59C90.05 195.19 88.7233 193.99 86.07 193.99C83.06 193.99 83.03 194.02 83.03 197.54C83.03 199.853 84.15 201.007 86.39 201V201.01ZM104.43 114.62C104.4 112.8 105.05 110.76 101.8 110.95C97.45 111.21 97.43 111.01 97.43 114.5C97.43 117.96 97.46 117.99 100.54 118C103.133 118 104.43 116.873 104.43 114.62ZM97.43 183.86C97.42 187.56 97.44 187.59 100.35 187.61C103.063 187.623 104.427 186.543 104.44 184.37C104.447 181.883 103.333 180.637 101.1 180.63C98.6667 180.623 97.4467 181.703 97.44 183.87L97.43 183.86Z" fill="#822B33"/>
</g>
<defs>
<clipPath id="clip0_18_2387">
<rect width="243.79" height="201.3" fill="white"/>
</clipPath>
</defs>
</svg>
