<svg width="325" height="344" viewBox="0 0 325 344" fill="none" xmlns="http://www.w3.org/2000/svg">
<path d="M146.944 175.141V166.673C145.151 166.598 143.585 166.334 142.095 166.504C138.681 166.881 137.756 165.315 137.775 162.147C137.832 156.678 140.699 154.378 145.698 156.603C146.811 157.093 147.547 159.62 147.528 161.204C147.472 164.448 148.132 166.032 151.905 166.013C155.622 166.013 157.15 164.844 156.64 161.167C155.98 156.509 158.791 155.849 162.375 156.339C166.412 156.886 167.79 155.528 167.771 151.247C167.771 146.589 165.054 147.098 162.262 147.287C158.715 147.513 156.338 147.174 156.47 142.44C156.584 138.423 157.885 137.066 161.696 137.518C163.375 137.707 165.092 137.556 167.431 137.556C167.356 131.238 166.129 123.714 176.581 126.656C176.788 125.147 177.109 124.223 176.977 123.374C176.222 118.49 178.09 116.321 183.127 117.132C186.447 117.66 186.617 115.529 186.561 113.096C186.504 110.588 187.032 107.684 183.014 108.137C178.769 108.608 176.656 107.42 176.92 102.573C177.128 99.0092 178.411 97.6702 181.731 98.104C185.466 98.6132 186.655 97.0856 186.636 93.3705C186.636 89.7308 185.165 88.8445 181.844 88.8634C180.297 88.8634 177.486 87.7507 177.392 86.8832C177.071 84.0733 176.883 80.5468 178.316 78.4912C179.203 77.2277 183.353 77.586 185.693 78.3026C186.636 78.6044 187.089 81.8292 187.032 83.715C186.938 87.1284 188.126 88.4296 191.654 88.4296C195.163 88.4296 196.653 87.185 196.22 83.7527C195.672 79.2833 197.031 76.8128 202.105 77.586C205.388 78.0763 205.973 75.983 205.954 73.2108C205.916 70.4198 205.709 67.9116 202.011 68.4585C197.37 69.1374 195.88 67.2327 196.163 62.6878C196.37 59.463 197.351 57.9732 200.653 58.4635C204.69 59.067 206.577 57.5395 205.935 53.2963C205.445 50.0338 206.878 48.7326 210.199 49.0343C212.161 49.2229 214.179 48.8834 216.16 48.7703C216.386 47.7331 216.688 47.0919 216.613 46.5261C215.953 41.4909 217.367 38.6999 223.178 39.5297C224.027 39.6428 226.008 37.4364 226.14 36.154C226.876 29.2707 226.743 29.2518 233.875 28.6295C234.308 28.5918 234.742 28.3466 234.931 28.2712C237.478 25.499 232.365 19.2568 240.421 19.0682C248.703 18.8797 244.1 25.2727 246.307 28.4032H254.155C254.306 26.9699 254.683 25.7253 254.494 24.5749C253.759 19.8792 256.173 19.0305 260.21 19.2191C265.568 19.4643 267.719 22.1233 265.7 27.2151C265.304 28.1957 263.021 28.8746 261.569 28.9312C255.136 29.2141 253.362 31.2508 255.305 37.4552C255.645 38.5679 258.343 39.5108 260.003 39.5862C266.096 39.8691 265.927 39.7182 265.983 45.5078C266.021 48.7326 264.7 49.4492 261.776 49.4681C254.325 49.5058 254.249 49.7321 255.588 58.1241C257.022 58.2184 258.55 58.407 260.078 58.4447C265.549 58.5767 267.889 61.4055 265.512 66.2521C264.757 67.7796 260.833 68.1756 258.343 68.2511C257.117 68.2888 255.192 66.6292 254.721 65.328C254.098 63.5742 254.57 61.4055 254.57 59.1802C252.532 59.0482 251.155 59.0481 249.797 58.8784C246.439 58.4258 245.137 59.9156 245.59 63.1404C246.156 67.195 244.59 69.0997 240.383 68.4397C236.516 67.8362 236.101 70.0615 236.082 73.192C236.063 76.2659 236.723 77.8689 240.232 77.6992C241.892 77.6237 244.892 78.3215 245.043 79.0947C245.571 81.9234 245.911 85.2614 244.798 87.7318C244.269 88.9011 240.326 88.9011 237.987 88.7313C237.176 88.6748 236.384 86.6003 235.837 85.3368C235.554 84.6768 235.686 83.7716 235.78 83.0172C236.289 79.3587 234.799 78.1706 231.083 78.114C227.328 78.0575 226.31 79.5284 226.781 82.8098C227.423 87.3358 225.951 89.7686 220.933 89.0142C217.386 88.4862 217.33 90.8812 217.273 93.446C217.217 96.2747 217.481 98.236 221.216 98.1606C226.253 98.0474 228.555 101.763 226.479 106.326C226.102 107.175 224.631 107.892 223.593 108.042C216.802 108.948 216.783 108.891 217.688 116.925C221.65 117.679 228.536 115.077 226.894 123.846C226.272 127.203 224.348 126.599 222.235 126.939C214.142 128.183 217.745 121.451 216.122 117.868H206.784C206.633 118.848 206.275 119.753 206.388 120.602C207.067 125.373 205.445 127.655 200.294 126.939C195.635 126.297 196.974 129.975 196.88 132.332C196.767 134.878 196.05 138.027 200.521 137.575C206.407 136.99 206.614 137.631 206.199 144.043C206.124 145.175 204.2 146.664 202.822 147.136C201.294 147.683 199.446 147.268 197.201 147.268C197.068 149.003 197.012 150.493 196.823 151.983C196.408 155.226 197.748 156.433 201.049 156.452C202.766 156.452 205.784 157.452 205.935 158.394C206.369 160.789 206.35 164.222 204.916 165.693C203.671 166.975 200.162 166.541 197.842 166.032C197.031 165.862 196.352 163.166 196.37 161.638C196.427 158.168 195.54 156.584 191.579 156.659C187.9 156.716 186.768 158.13 187.164 161.412C187.692 165.712 185.598 167.013 181.637 166.504C179.411 166.221 177.166 166.636 177.581 169.54C178.448 175.499 175.487 176.932 170.336 176.272C169.77 176.197 169.148 176.536 168.488 176.706C168.318 177.385 168.091 177.97 168.054 178.573C167.507 186.041 167.525 186.173 160.168 186.89C156.81 187.21 157.112 189.322 157.112 191.548C157.112 193.773 156.848 196.187 160.243 196.074C160.866 196.055 161.507 196.074 162.13 196.074C167.714 196.13 169.638 198.638 167.733 203.938C167.375 204.956 165.073 205.937 163.771 205.842C159.074 205.484 156.055 206.333 157.055 212.028C157.47 214.404 156.206 215.46 153.792 215.328C151.962 215.215 150.113 215.309 147.962 215.309V224.305C157.395 222.061 158.206 227.831 157.036 235.111C159.187 235.243 160.715 235.375 162.243 235.393C167.62 235.488 170.11 238.543 167.582 243.182C166.714 244.785 162.526 244.898 159.847 245.011C158.829 245.049 157.131 243.333 156.791 242.126C156.263 240.297 156.659 238.203 156.659 236.016H148.434C146.151 239.127 150.811 245.558 142.548 245.407C134.511 245.256 139.662 238.901 136.756 236.035H129.191C129.059 237.015 128.757 237.939 128.871 238.788C129.493 243.465 128.041 246.03 122.815 245.219C119.098 244.634 119.325 247.274 119.287 249.707C119.249 252.196 119.212 254.705 122.815 254.29C127.097 253.78 129.229 255.082 128.927 259.909C128.72 263.285 127.72 265.058 124.23 264.53C120.136 263.907 118.834 265.737 119.268 269.527C119.721 273.356 117.702 274.657 114.193 274.129C109.817 273.469 107.666 274.977 108.383 279.692C109.005 283.784 107.138 285.557 103.025 284.991C99.1201 284.444 98.8183 286.764 98.7428 289.838C98.6862 293.119 99.7804 294.251 103.101 294.138C104.799 294.081 107.892 295.137 108.024 296.023C108.383 298.4 108.307 302.115 106.855 303.171C105.157 304.397 101.742 303.718 99.271 303.095C98.5541 302.907 98.1202 300.059 98.2334 298.475C98.4787 294.873 96.5733 294.402 93.6115 294.383C90.6307 294.383 88.5933 294.948 89.1027 298.494C89.7629 302.963 87.6878 304.453 83.4619 303.831C82.4244 303.68 81.3113 303.982 79.8587 304.114V312.449C83.5374 313.864 90.5553 310.224 89.1781 318.861C88.7442 321.577 87.933 322.35 85.1976 322.765C76.7837 324.047 79.8021 317.409 78.7456 313.467H70.4449C70.294 314.788 69.9167 316.013 70.0676 317.183C70.6336 321.482 69.03 323.048 64.5967 322.765C58.9748 322.406 57.0317 320.2 58.8805 314.863C59.2012 313.958 60.8614 313.128 61.9933 312.977C64.276 312.694 66.6341 312.883 69.313 312.883V303.812C67.4453 303.812 65.7475 303.623 64.0873 303.85C59.6351 304.472 58.5409 302.53 58.5409 298.305C58.5409 293.968 60.8236 293.874 63.9175 294.006C66.936 294.138 70.6524 293.081 70.0299 298.362C69.8601 299.871 70.1431 301.417 70.2374 303.208H78.6136C78.7645 302.077 79.1418 301.002 78.9909 300.003C78.2929 295.269 80.1228 293.232 84.9523 294.006C88.5933 294.59 88.4801 292.139 88.5367 289.63C88.5933 286.82 88.3858 284.425 84.6316 285.01C79.821 285.746 79.0286 283.294 78.8966 279.051C78.7645 274.525 80.4435 272.997 84.5939 273.657C87.9707 274.204 88.5744 272.45 88.5367 269.622C88.5178 266.755 88.6122 264.398 84.4995 264.492C79.5757 264.605 76.9723 260.569 79.4625 256.27C80.2926 254.855 83.7261 254.459 85.9333 254.554C87.0086 254.591 88.5178 256.722 88.8763 258.137C89.5177 260.645 88.0462 263.983 92.7814 264.002C96.3658 264.002 98.6107 263.379 98.1014 259.174C97.6109 255.119 99.7615 253.837 103.478 254.327C107.157 254.818 107.987 252.913 107.911 249.594C107.836 246.52 107.1 245.03 103.61 245.124C98.4975 245.294 96.3658 242.164 98.3655 237.411C98.7994 236.374 101.063 235.488 102.422 235.544C106.251 235.714 108.194 234.903 107.987 230.415C107.798 226.568 107.496 223.89 102.648 224.738C98.7051 225.417 98.0259 223.154 97.9504 219.741C97.875 215.95 99.3087 214.989 102.931 214.913C106.911 214.838 109.024 215.818 108.307 220.137C107.591 224.474 110.326 224.474 113.42 224.474C116.533 224.474 119.249 224.399 118.57 220.099C117.872 215.724 120.117 214.498 124.022 215.045C127.38 215.517 128.324 213.97 128.324 210.764C128.324 207.521 127.72 205.465 123.966 206.012C119.947 206.597 118.419 205.126 118.457 200.883C118.495 196.639 120.419 195.715 123.985 196.13C126.946 196.488 128.569 195.3 128.229 192.208C127.739 187.832 129.172 185.758 133.964 186.286C135.115 186.418 137.398 184.721 137.605 183.589C138.888 176.253 138.737 176.235 146.906 175.216L146.944 175.141ZM185.429 138.103C185.938 137.65 186.428 137.179 186.938 136.726C186.391 133.501 186.315 130.05 184.995 127.203C184.636 126.429 179.052 126.599 178.335 127.806C177.071 129.937 176.619 133.916 177.864 135.745C179.014 137.443 182.806 137.386 185.447 138.084L185.429 138.103ZM205.935 106.949C206.407 107.382 206.897 107.816 207.369 108.231C210.368 107.59 213.708 107.514 216.179 106.006C217.085 105.44 216.745 100.103 215.594 99.4618C213.444 98.2737 209.406 97.8777 207.746 99.1601C206.105 100.442 206.444 104.233 205.916 106.93L205.935 106.949ZM162.036 175.499C165.243 175.782 167.808 175.895 167.771 171.218C167.733 167.069 166.111 166.258 162.47 166.39C159.149 166.504 156.81 166.541 156.961 171.048C157.093 174.914 158.546 176.14 162.036 175.518V175.499ZM146.906 235.111V225.059H138.548V235.111H146.906ZM236.572 29.3272C235.12 39.8691 235.95 40.8309 244.835 39.0959V29.3272H236.572ZM119.325 229.698C119.061 232.904 118.797 235.695 123.551 235.488C127.078 235.337 128.739 234.545 128.342 230.735C128.022 227.737 129.116 224.55 123.909 224.569C119.608 224.569 118.74 226.228 119.325 229.698ZM206.52 109.645C206.18 109.098 205.822 108.57 205.482 108.024C202.709 108.344 199.427 107.91 197.389 109.287C196.257 110.06 196.257 114.643 197.465 116.076C198.559 117.396 202.86 117.849 204.143 116.774C205.784 115.397 205.803 112.097 206.539 109.627L206.52 109.645ZM201.03 98.0097C204.218 98.4812 206.029 97.7268 205.992 93.9174C205.954 90.4663 205.181 88.8256 201.313 88.8822C197.917 88.9388 196.578 89.9006 196.71 93.4082C196.823 96.501 197.201 98.764 201.049 97.9908L201.03 98.0097ZM196.087 142.138C197.031 138.763 195.465 137.763 191.975 137.763C188.598 137.763 186.957 138.329 186.976 142.308C187.013 146.136 188.466 146.966 191.918 146.985C195.408 146.985 196.88 145.872 196.087 142.138ZM143.057 187.059C139.869 186.362 137.85 187.135 138.152 191.227C138.36 194.056 138.152 196.356 142.227 196.168C145.453 196.017 147.623 195.828 147.302 191.736C147.076 188.945 147.491 186.135 143.057 187.059ZM196.106 103.196C196.785 99.7635 195.446 98.4246 191.862 98.5C188.73 98.5755 186.806 99.0469 187.032 102.837C187.202 105.761 187.183 107.91 191.22 107.778C194.616 107.665 196.804 107.213 196.106 103.177V103.196ZM103.289 264.586C99.7615 263.7 98.6673 265.473 98.7051 269.112C98.7428 272.507 99.8181 273.676 103.327 273.657C106.723 273.62 108.081 272.695 107.968 269.169C107.874 266.057 107.44 263.832 103.27 264.586H103.289ZM138.454 215.064C141.737 214.913 144.378 214.781 146.83 214.668V206.276H138.454V215.083V215.064ZM245.59 58.1618C244.986 54.9936 245.137 51.8065 243.685 49.7698C242.93 48.7137 237.968 48.8269 237.327 49.9018C236.006 52.0517 236.327 55.201 235.95 58.1618H245.609H245.59ZM187.126 146.419C183.014 147.4 179.826 147.381 177.883 148.927C176.826 149.757 177.034 154.34 178.203 155.283C179.75 156.527 184.089 156.867 184.995 155.773C186.523 153.906 186.315 150.625 187.126 146.419ZM218.273 48.8457C217.764 49.2983 217.273 49.7698 216.764 50.2224C217.386 52.9003 217.386 56.0685 218.914 58.0486C219.707 59.067 224.027 58.803 225.31 57.596C226.555 56.4268 226.913 52.146 225.895 51.2785C224.027 49.6755 220.876 49.5812 218.254 48.8457H218.273Z" fill="#822B33"/>
<path d="M206.388 312.713C206.369 313.958 206.312 315.221 206.312 316.466C206.294 322.406 204.388 324.085 198.672 322.388C197.502 322.048 196.427 319.427 196.352 317.805C196.201 314.712 195.899 312.921 191.975 313.015C188.409 313.09 186.825 313.788 186.957 317.673C187.013 319.276 185.787 322.086 184.712 322.312C182.467 322.802 178.731 322.765 177.807 321.445C176.581 319.672 177.335 316.428 177.524 313.845C177.543 313.467 179.071 313.015 179.939 312.902C187.24 311.921 187.372 311.789 185.825 304.038C184.259 303.963 182.561 303.718 180.882 303.812C178.109 303.963 176.977 302.944 176.92 300.04C176.826 294.383 179.863 292.044 185.164 294.213C186.032 294.571 186.843 295.986 186.994 297.023C188.107 304.227 188.164 304.321 195.691 302.869C197.408 299.72 193.427 293.157 201.898 293.779C209.519 294.326 204.52 300.191 207.388 303.227C208.237 303.265 209.765 303.227 211.255 303.435C215.179 304.001 217.33 302.85 216.669 298.437C216.066 294.402 218.405 293.855 221.763 293.874C225.178 293.874 227.291 294.552 226.743 298.55C226.555 299.908 226.706 301.323 226.706 303.058H235.289C236.327 299.173 233.724 292.101 242.402 293.874C248.42 295.099 243.835 300.059 246.533 302.982H254.004C255.777 299.795 251.721 294.006 259.758 293.647C268.228 293.27 265.096 299.229 266.36 303.114H274.661C275.529 299.078 272.907 292.591 281.453 293.798C288.225 294.741 283.377 300.097 286.697 303.208C287.037 303.208 288.546 303.208 290.018 303.416C293.338 303.887 294.432 302.511 294.394 299.248C294.319 294.496 298.846 291.724 302.657 294.439C304.053 295.439 304.072 298.833 304.053 301.134C304.053 302.02 302.28 303.34 301.091 303.623C299.356 304.057 297.413 303.737 295.187 303.737V312.336C296.3 312.487 297.488 312.77 298.677 312.807C303.94 312.996 305.977 315.485 303.959 320.407C303.431 321.709 300.205 322.388 298.205 322.406C296.922 322.406 294.734 320.841 294.507 319.691C293.13 312.543 293.281 312.525 285.961 313.543C285.792 313.788 285.49 314.033 285.471 314.297C284.855 319.829 281.66 322.595 275.887 322.595C270.718 322.595 265.512 322.331 260.361 322.67C255.871 322.972 253.872 321.52 254.532 316.9C254.683 315.863 254.381 314.75 254.249 313.411H246.194C244.307 316.73 248.438 323.802 239.666 322.765C232.441 321.916 237.685 316.277 234.61 313.467H227.177C227.045 314.58 226.8 315.768 226.781 316.956C226.63 322.633 225.97 323.312 220.046 322.463C218.82 322.293 216.783 320.426 216.896 319.615C217.764 313.43 214.5 312.487 209.538 313.109C208.482 313.241 207.35 312.958 206.256 312.864C206.143 310.695 206.407 308.413 205.784 306.414C205.445 305.302 203.615 303.925 202.483 303.944C200.615 303.944 197.634 304.529 197.125 305.717C195.106 310.431 197.125 312.883 202.238 312.826C203.634 312.826 205.03 312.751 206.444 312.713H206.388ZM265.134 304.302C255.155 302.586 253.532 304.019 255.796 312.298C265.606 313.958 266.21 313.449 265.134 304.302ZM236.27 312.43H244.779V304.189H236.27V312.43ZM274.737 303.076C275.661 307.282 275.51 310.582 277.076 312.374C278.038 313.467 282.339 313.015 283.849 311.733C285.037 310.714 285.169 306.15 284.094 305.339C282.113 303.85 278.944 303.944 274.737 303.076ZM216.481 303.133C217.424 307.301 217.349 310.488 218.877 312.43C219.688 313.486 224.272 313.279 225.253 312.091C226.517 310.582 226.894 306.226 225.819 305.321C223.97 303.774 220.669 303.963 216.481 303.133Z" fill="#822B33"/>
<path d="M156.621 313.411H148.396C147.698 316.504 147.434 319.578 146.17 322.18C145.774 322.991 142.303 323.198 140.869 322.463C135.851 319.842 136.19 316.051 140.284 312.996C141.661 311.959 144.472 312.826 146.887 312.826C147.038 310.922 147.057 309.564 147.245 308.206C147.736 304.736 146.359 303.416 142.793 303.623C141.227 303.718 138.322 302.85 138.209 302.077C137.832 299.607 137.549 295.91 138.963 294.684C140.473 293.383 143.963 294.213 146.547 294.458C146.981 294.496 147.472 296.25 147.566 297.249C147.736 299.079 147.604 300.927 147.604 302.926C150.83 303.322 154.452 302.718 156.018 304.246C157.583 305.773 157.112 309.413 157.602 312.581C159.187 312.657 160.847 312.789 162.526 312.826C167.45 312.902 170.299 316.9 167.469 320.879C166.318 322.501 162.243 322.406 159.489 322.406C158.527 322.406 157.074 320.502 156.716 319.219C156.225 317.503 156.602 315.561 156.602 313.43L156.621 313.411Z" fill="#822B33"/>
<path d="M69.8978 279.126C70.8977 283.728 68.898 284.991 64.3703 285.067C59.6351 285.142 58.6919 283.369 58.5598 279.051C58.4089 274.166 60.4463 273.469 64.6533 273.431C69.0489 273.374 70.8599 274.732 69.9167 279.145L69.8978 279.126Z" fill="#822B33"/>
<path d="M280.057 10.1293C275.51 11.0345 275.057 8.58295 274.888 5.07528C274.661 0.549251 276.963 0.19094 280.604 0.0212142C285.15 -0.16737 285.131 2.35966 285.245 5.60332C285.377 9.67674 283.66 11.0534 280.057 10.1105V10.1293Z" fill="#822B33"/>
<path d="M319.466 10.1671C315.014 11.2043 314.637 8.56409 314.656 5.15071C314.656 1.96363 315.033 -0.129659 319.164 0.0212085C322.862 0.153218 324.899 0.662397 324.786 5.09413C324.692 9.05441 323.749 11.0911 319.485 10.1671H319.466Z" fill="#822B33"/>
<path d="M280.113 342.924C276.284 343.603 274.85 342.132 274.85 338.134C274.85 334.212 276.17 333.08 280.019 333.08C283.773 333.08 285.358 333.967 285.301 338.021C285.245 341.849 284.113 343.679 280.132 342.943L280.113 342.924Z" fill="#822B33"/>
<path d="M279.887 28.9312C275.887 29.7421 274.944 27.8563 274.831 24.0469C274.699 19.766 276.661 19.2945 280.17 19.2003C284.037 19.106 285.263 20.4072 285.32 24.292C285.377 28.5163 283.566 29.5347 279.887 28.9312Z" fill="#822B33"/>
<path d="M5.66165 322.482C1.90747 323.066 -0.0733823 322.142 0.00207866 317.899C0.0586744 314.184 0.96421 312.543 5.0391 312.732C8.43485 312.883 10.7364 313.015 10.51 317.447C10.3402 321.03 9.81201 323.425 5.68052 322.482H5.66165Z" fill="#822B33"/>
<path d="M25.7908 312.921C29.7903 312.091 30.8467 313.901 30.9599 317.748C31.0731 321.935 29.262 322.633 25.6588 322.689C21.8291 322.746 20.452 321.539 20.4708 317.597C20.4708 313.562 21.98 312.147 25.8097 312.921H25.7908Z" fill="#822B33"/>
<path d="M103.497 312.921C107.76 312.015 108.326 314.316 108.477 317.899C108.666 322.274 106.44 322.52 103.025 322.67C98.9314 322.84 98.1014 321.086 98.0259 317.409C97.9316 313.147 99.9313 312.26 103.497 312.902V312.921Z" fill="#822B33"/>
<path d="M128.663 317.692C129.606 322.331 126.927 322.538 123.532 322.689C119.495 322.878 118.627 321.162 118.514 317.465C118.381 313.166 120.457 312.77 123.947 312.732C127.814 312.675 129.663 313.826 128.682 317.692H128.663Z" fill="#822B33"/>
<path d="M137.417 136.952C141.567 137.688 145.114 137.405 147.151 139.027C148.34 139.97 148.132 145.156 146.793 146.231C145.076 147.607 140.246 147.909 139.152 146.627C137.53 144.722 138.001 141.026 137.417 136.934V136.952Z" fill="#822B33"/>
<path d="M88.9329 239.976C89.7252 244.106 87.9896 245.294 84.1222 245.256C80.4435 245.238 78.8777 244.37 78.9343 240.316C78.9909 236.506 80.0473 235.186 83.9713 235.261C87.5934 235.337 89.895 235.846 88.9329 239.957V239.976Z" fill="#822B33"/>
<path d="M49.5988 317.447C50.3912 321.294 48.9574 322.727 44.9014 322.708C41.0151 322.708 39.6568 321.577 39.77 317.635C39.8643 314.184 40.4492 312.449 44.4486 312.713C47.8066 312.921 50.5987 312.902 49.5988 317.447Z" fill="#822B33"/>
<path d="M245.477 5.15071C246.137 8.90354 244.816 10.4311 240.742 10.3934C236.836 10.3745 235.61 9.12984 235.667 5.28272C235.705 1.6619 236.44 -0.0730772 240.591 0.00235663C244.439 0.0777904 246.231 1.17158 245.496 5.13185L245.477 5.15071Z" fill="#822B33"/>
</svg>
