<svg width="260" height="364" viewBox="0 0 260 364" fill="none" xmlns="http://www.w3.org/2000/svg">
<path d="M33.6314 179.302C33.6114 180.052 33.6914 180.812 33.5514 181.542C33.4014 182.382 33.2214 183.802 32.7914 183.902C31.5614 184.212 30.1814 184.072 28.8814 183.902C28.6014 183.862 28.3114 182.972 28.2414 182.442C28.1414 181.552 28.2114 180.652 28.2114 179.812C24.3614 178.992 24.2014 179.042 23.8014 182.492C23.6014 184.182 22.6014 184.132 21.3514 184.172C19.9614 184.212 19.0614 183.902 19.1014 182.312C19.1214 181.492 19.1014 180.672 19.1014 179.742C18.3414 179.612 17.7614 179.382 17.2414 179.462C15.0414 179.772 14.1414 178.912 14.4714 176.692C14.6814 175.262 13.9014 174.912 12.5614 174.802C11.6514 174.732 10.3214 174.272 10.0314 173.612C9.67141 172.802 9.84141 171.122 10.4214 170.682C11.1914 170.102 12.6314 170.152 13.7114 170.342C14.1214 170.412 14.5914 171.612 14.5914 172.302C14.5914 173.802 14.8914 174.642 16.6514 174.582C18.1814 174.532 19.3214 174.362 19.0914 172.432C18.8814 170.682 19.7214 170.142 21.4314 170.142C23.1214 170.142 23.9914 170.632 23.8014 172.402C23.6014 174.292 24.7014 174.552 26.2514 174.582C27.8314 174.612 28.3714 173.942 28.1914 172.502C27.9514 170.562 28.9314 169.922 30.6814 170.192C32.7714 170.512 33.4114 169.662 33.4014 167.592C33.4014 165.622 32.7914 164.812 30.8214 165.082C28.9614 165.342 28.1814 164.662 28.1314 162.622C28.0814 160.292 29.3614 160.412 30.9714 160.332C32.8614 160.242 33.8614 160.762 33.5914 162.822C33.4114 164.182 34.0214 164.952 35.4214 164.762C37.9414 164.422 38.4514 165.772 38.2214 167.862C38.0414 169.482 38.5414 170.232 40.4114 170.242C42.4014 170.242 42.6414 169.222 42.5314 167.742C42.3814 165.742 42.9014 164.462 45.2714 164.782C46.9814 165.012 47.2214 163.892 47.0614 162.592C46.8014 160.492 48.0614 160.362 49.6614 160.342C51.3014 160.312 52.2714 160.742 51.9914 162.582C51.6714 164.662 52.8714 164.802 54.5214 164.852C56.3314 164.902 57.2114 164.392 56.9314 162.472C56.6814 160.762 57.5914 160.322 59.1314 160.362C61.7914 160.432 64.4514 160.382 67.1114 160.382C71.0314 160.382 71.1314 160.252 70.3314 156.132C68.7114 155.432 65.3314 157.072 65.9714 153.002C66.2114 151.482 66.9214 151.202 68.2814 151.072C72.0814 150.692 70.3914 153.762 71.1414 155.512H75.0714C75.1614 154.962 75.3414 154.482 75.2914 154.032C75.0214 151.752 75.9214 150.732 78.2614 151.122C80.0514 151.412 80.7214 150.562 80.4814 148.862C80.2214 147.062 81.0614 146.552 82.7514 146.632C84.3014 146.702 85.6314 146.692 85.3914 148.842C85.2414 150.202 85.4214 151.182 87.3314 151.192C89.2014 151.192 89.7214 150.482 89.5214 148.842C89.3214 147.212 90.0114 146.522 91.6314 146.652C92.3614 146.712 93.1114 146.652 94.0714 146.652C94.1414 145.772 94.3114 145.052 94.2414 144.352C94.0114 142.192 94.6214 141.022 97.0914 141.322C98.8614 141.542 98.6814 140.112 98.7714 138.932C98.8714 137.552 98.3414 136.792 96.9414 137.012C94.3014 137.432 94.1614 135.912 94.2314 133.912C94.2914 132.252 95.1714 132.072 96.5014 132.072C97.8814 132.072 99.0414 132.142 99.0514 133.942C99.0514 134.832 99.1414 135.722 99.2014 136.712H103.721C103.831 136.182 104.041 135.702 104.001 135.252C103.791 133.062 104.301 131.702 106.951 132.052C108.581 132.262 108.431 130.942 108.501 129.842C108.581 128.432 107.941 127.772 106.591 127.952C104.331 128.252 103.981 127.042 103.991 125.152C103.991 123.512 104.551 122.802 106.181 123.042C108.121 123.332 108.561 122.392 108.551 120.612C108.551 118.852 108.121 117.872 106.191 118.122C104.011 118.402 104.071 116.952 104.021 115.442C103.971 113.912 104.381 113.132 106.121 113.212C107.651 113.282 108.871 113.212 108.901 115.352C108.931 118.212 109.211 118.292 113.051 117.502C112.371 114.042 113.911 112.482 117.381 113.182C118.281 109.482 118.151 109.182 114.891 108.952C112.981 108.822 113.161 107.602 113.101 106.332C113.031 104.972 113.321 103.982 114.961 104.142C116.781 104.322 117.991 104.062 117.861 101.702C117.771 100.022 117.191 99.4123 115.621 99.6523C113.361 99.9923 113.101 98.7523 113.061 96.8723C113.021 94.8823 113.681 94.1223 115.631 94.3523C116.761 94.4823 118.001 94.4323 117.781 92.8023C117.401 90.0523 118.691 89.2323 121.171 89.5523C121.391 89.5823 121.641 89.4223 121.861 89.3523C122.661 86.0123 122.571 85.7923 119.401 85.4623C117.411 85.2523 117.921 83.8323 117.821 82.6823C117.721 81.4823 117.901 80.4823 119.481 80.5623C120.291 80.6023 121.111 80.5623 121.971 80.5623C122.081 79.9323 122.251 79.5123 122.201 79.1323C121.841 76.4623 123.001 75.4823 125.611 75.8523C127.891 76.1723 127.511 74.4823 127.611 73.0823C127.731 71.4523 127.161 70.8723 125.501 70.9023C124.201 70.9323 122.321 71.7123 122.201 69.1523C122.101 67.0423 122.561 65.6823 125.061 66.0523C126.981 66.3323 127.741 65.6023 127.631 63.5623C127.521 61.4623 126.131 61.9223 124.981 61.9423C123.401 61.9723 122.281 61.8323 122.181 59.7723C122.081 57.5423 122.871 56.6723 125.041 57.0023C127.201 57.3423 127.781 56.3323 127.611 54.3123C127.461 52.5423 126.331 52.6823 125.151 52.6523C122.571 52.5823 121.081 50.1423 122.461 47.9823C122.811 47.4323 124.001 47.2523 124.831 47.1923C126.251 47.0823 127.631 47.3823 127.621 45.1123C127.611 42.9723 126.421 42.8223 124.881 42.9623C122.981 43.1323 122.171 42.4223 122.181 40.4223C122.181 38.6623 122.831 37.9323 124.521 38.1323C126.591 38.3723 127.951 37.9423 127.611 35.4023C127.411 33.9323 128.141 33.2323 129.661 33.4223C131.301 33.6223 132.061 33.0823 132.041 31.2323C132.021 29.4323 131.151 29.0723 129.711 29.2523C127.461 29.5223 127.571 28.0023 127.601 26.5423C127.631 25.0723 127.281 23.3223 129.741 23.6023C131.221 23.7723 132.061 23.3523 132.041 21.5823C132.021 19.9423 131.451 19.2423 129.851 19.4523C128.001 19.7023 127.431 18.6923 127.611 17.1023C127.861 14.9823 126.791 14.5023 124.961 14.7123C123.261 14.9023 122.041 14.6023 122.181 12.3723C122.291 10.6723 122.651 9.72234 124.621 9.83234C126.351 9.93234 128.111 9.66234 127.871 12.2923C127.811 12.9323 127.951 13.5823 128.021 14.3823H131.801C131.881 13.6723 131.831 13.0723 132.021 12.5523C132.351 11.6423 132.631 10.2523 133.281 10.0223C134.221 9.68234 136.011 9.81234 136.451 10.4323C137.051 11.2823 136.891 12.8223 136.691 13.9923C136.631 14.3423 135.331 14.6823 134.601 14.6723C133.131 14.6523 132.221 14.8623 132.281 16.6723C132.331 18.2123 132.531 19.3523 134.441 19.1123C136.221 18.8923 136.951 19.5523 136.951 21.4723C136.951 23.3523 136.321 24.1123 134.491 23.8723C132.341 23.5923 132.331 24.9823 132.291 26.5223C132.251 28.1123 132.591 29.1723 134.471 28.9323C136.301 28.7023 137.111 29.4623 136.911 31.3323C136.831 32.0723 136.951 32.8223 136.981 33.5723C136.151 33.5823 135.311 33.6823 134.491 33.5923C132.861 33.4223 132.271 34.0723 132.291 35.7023C132.331 38.2923 133.101 38.6823 136.601 37.6323C136.701 36.2723 136.801 34.8823 136.901 33.4823C137.311 33.4523 137.731 33.4023 138.141 33.4023C140.315 33.369 141.465 34.4323 141.591 36.5923C141.611 37.0023 141.711 37.4023 141.791 37.9123C142.401 37.9723 142.971 38.1023 143.521 38.0723C145.041 37.9823 146.101 38.1923 146.021 40.1623C145.951 41.8523 145.851 43.0423 143.621 42.9723C141.431 42.9023 141.191 43.6223 141.941 46.9123C142.231 46.9723 142.551 47.0823 142.871 47.1023C145.991 47.3323 146.491 47.8923 145.901 51.0423C145.791 51.6423 145.021 52.4623 144.441 52.5723C141.201 53.2123 141.111 53.2823 141.941 56.7423C143.321 57.5423 146.091 55.7323 146.081 59.3923C146.061 62.9323 143.501 61.5223 141.991 62.0623C141.111 65.4323 141.231 65.7223 144.381 66.0123C146.391 66.2023 145.881 67.6323 145.961 68.7823C146.051 69.9323 145.991 71.0223 144.361 70.9423C143.541 70.9023 142.731 70.9423 141.581 70.9423C141.581 72.0623 141.641 72.9623 141.571 73.8423C141.441 75.3423 142.051 76.0823 143.571 75.8423C145.761 75.5123 145.941 76.7823 146.021 78.5123C146.111 80.5323 145.171 80.9823 143.461 80.7723C141.831 80.5623 141.491 81.4523 141.561 82.8623C141.631 84.1223 141.671 85.2923 143.411 85.0623C145.381 84.8023 146.011 85.6723 146.031 87.6223C146.051 89.6723 145.061 90.0123 143.401 89.8823C142.921 89.8423 142.441 89.9723 141.771 90.0423V94.0023C142.051 94.1323 142.291 94.3423 142.481 94.3123C145.071 93.9323 146.431 94.7623 145.991 97.6323C145.691 99.6223 147.171 99.4123 148.421 99.4323C149.801 99.4523 151.131 99.5723 151.061 97.4823C151.021 96.1323 150.441 94.1623 152.971 94.3723C153.881 94.4423 155.411 94.6423 155.541 95.1023C155.891 96.3123 155.801 97.7423 155.521 99.0023C155.441 99.3523 154.091 99.6623 153.351 99.5923C151.511 99.4223 151.311 100.402 151.331 101.862C151.351 103.272 151.481 104.392 153.331 104.132C155.101 103.882 155.891 104.522 155.841 106.462C155.791 108.242 155.291 109.162 153.391 108.912C151.631 108.682 151.381 109.692 151.321 111.172C151.251 112.902 152.021 113.432 153.551 113.222C155.341 112.982 155.951 113.792 155.811 115.492C155.721 116.652 155.631 118.082 157.441 117.832C160.201 117.452 160.771 118.842 160.471 121.162C160.411 121.642 160.521 122.142 160.561 122.762C161.191 122.852 161.741 123.022 162.281 123.002C163.801 122.962 165.081 122.962 165.051 125.132C165.021 127.052 164.611 128.232 162.381 127.912C160.811 127.682 160.451 128.522 160.411 129.972C160.371 131.632 160.981 132.262 162.591 132.072C163.881 131.922 164.831 132.162 165.011 133.792C165.371 137.042 165.441 137.032 168.981 136.562C169.261 135.162 169.261 133.582 169.951 132.412C170.261 131.882 172.121 131.752 172.981 132.132C175.891 133.422 175.691 135.332 173.231 136.872C172.411 137.382 170.991 136.952 169.911 136.952C169.021 140.832 169.231 141.222 172.631 141.282C174.301 141.312 174.861 142.032 174.791 143.562C174.751 144.452 174.791 145.352 174.791 146.422C175.681 146.502 176.311 146.562 176.951 146.612C177.601 146.662 178.251 146.702 179.031 146.752C179.141 147.202 179.361 147.602 179.311 147.962C179.031 150.242 179.731 151.402 182.291 151.172C182.821 151.122 183.641 152.252 184.001 153.002C184.301 153.612 184.121 154.452 184.161 155.482C185.421 155.542 186.601 155.592 187.801 155.652C188.741 153.902 187.081 150.572 190.901 151.042C192.511 151.242 192.531 151.122 193.441 155.532H197.721C197.821 154.942 197.831 154.372 198.011 153.852C198.331 152.932 198.541 151.512 199.171 151.262C200.111 150.892 201.791 150.972 202.401 151.592C203.021 152.232 202.931 153.792 202.741 154.882C202.671 155.302 201.501 155.822 200.831 155.812C199.211 155.802 198.161 155.932 198.201 158.032C198.241 159.952 198.961 160.582 200.741 160.352C202.341 160.142 203.081 160.832 202.891 162.482C202.731 163.912 203.001 164.862 204.841 164.812C206.461 164.762 207.431 164.422 207.221 162.572C206.981 160.522 208.221 160.342 209.851 160.312C211.531 160.282 212.151 160.962 211.961 162.532C211.741 164.312 212.561 164.792 214.251 164.812C216.041 164.832 216.701 164.172 216.461 162.472C216.151 160.302 217.531 160.292 219.081 160.322C220.571 160.352 222.061 160.202 221.781 162.422C221.571 164.062 222.091 165.012 223.931 164.762C226.151 164.462 226.651 165.692 226.531 167.602C226.451 168.922 226.281 170.172 228.441 170.232C230.631 170.292 230.721 169.182 230.681 167.622C230.641 166.152 230.601 164.782 232.761 164.732C234.711 164.682 235.871 165.172 235.541 167.342C235.191 169.722 236.271 170.332 238.511 170.212C241.741 170.032 245.001 170.182 248.241 170.162C249.881 170.162 250.061 171.182 250.051 172.502C250.051 173.802 249.871 174.742 248.241 174.882C245.001 175.172 244.981 175.282 245.621 179.072C247.161 179.832 250.611 177.942 250.061 182.032C249.871 183.422 249.461 184.012 247.971 184.192C243.961 184.662 245.561 181.422 244.961 179.572H240.421C239.831 181.362 241.241 184.842 237.051 184.182C233.911 183.682 236.141 181.092 234.981 179.782C231.701 178.892 231.421 179.032 230.971 182.432C230.781 183.842 230.051 184.412 228.791 184.092C227.911 183.872 226.361 183.172 226.401 182.862C226.951 178.692 224.101 179.382 221.691 179.392C221.651 178.492 221.571 177.592 221.591 176.692C221.631 175.332 221.051 174.852 219.671 174.832C216.561 174.782 216.271 175.152 216.991 179.312H221.771C221.771 179.972 221.691 180.652 221.771 181.302C222.011 183.392 221.301 184.502 219.031 184.152C217.191 183.872 216.411 184.642 216.641 186.522C216.901 188.522 215.561 188.572 214.111 188.572C212.731 188.572 211.581 188.452 211.711 186.612C211.761 185.892 211.631 185.162 211.581 184.482C208.011 183.842 208.091 183.862 207.451 186.982C207.321 187.602 206.281 188.552 205.751 188.492C203.141 188.192 202.551 189.422 202.851 191.672C203.081 193.412 202.231 194.012 200.521 193.982C198.981 193.952 198.021 193.682 197.941 191.822C197.791 188.182 197.361 187.962 193.231 188.962C193.181 189.572 193.041 190.232 193.091 190.872C193.261 192.942 192.831 194.272 190.281 194.012C189.721 193.952 188.491 194.972 188.531 195.402C188.831 198.222 187.311 198.642 185.071 198.402C184.851 198.382 184.611 198.532 184.091 198.702C184.831 202.312 183.191 203.872 179.451 203.072C179.381 204.032 179.261 204.682 179.311 205.322C179.441 206.982 178.861 207.882 177.071 207.682C175.371 207.492 174.561 208.212 174.761 209.962C174.981 211.822 173.931 212.182 172.341 212.152C168.471 212.092 164.591 212.132 160.421 212.132C160.421 213.322 160.481 214.212 160.411 215.092C160.291 216.572 160.851 217.342 162.391 217.112C164.661 216.762 164.961 218.022 165.031 219.892C165.111 222.182 163.661 221.942 162.241 221.922C161.581 221.922 160.911 221.902 160.251 221.882C160.251 221.062 160.171 220.232 160.251 219.412C160.381 217.902 159.731 217.382 158.251 217.392C155.611 217.392 155.211 218.122 156.271 221.802H160.341C160.371 222.462 160.481 223.132 160.421 223.792C160.251 225.612 160.701 226.702 162.841 226.392C164.701 226.122 165.021 227.232 165.031 228.822C165.031 230.552 164.371 231.162 162.651 231.162C161.031 231.162 160.011 230.822 160.241 228.962C160.451 227.272 159.841 226.592 158.041 226.622C156.361 226.652 155.551 227.082 155.741 228.892C155.861 229.992 155.791 231.022 154.181 231.162C151.001 231.432 150.891 231.692 151.681 235.272C151.961 235.332 152.281 235.452 152.591 235.472C155.831 235.702 156.251 236.142 155.681 239.332C155.581 239.912 154.791 240.712 154.211 240.822C151.031 241.402 151.021 241.332 151.571 245.102C152.071 245.172 152.611 245.282 153.161 245.302C155.731 245.382 156.001 245.772 155.761 248.492C155.631 249.962 154.861 250.242 153.601 250.202C152.401 250.162 151.291 250.312 151.001 248.642C150.401 245.112 150.001 244.922 146.051 245.952C146.011 246.572 145.891 247.222 145.931 247.872C146.031 249.532 145.431 250.442 143.641 250.202C141.961 249.972 141.531 250.802 141.481 252.362C141.431 254.142 142.281 254.552 143.771 254.352C145.691 254.092 145.941 255.192 145.951 256.752C145.961 258.392 145.771 259.622 143.691 259.302C141.551 258.972 141.511 260.292 141.491 261.872C141.471 263.482 141.771 264.512 143.661 264.222C145.711 263.902 145.931 265.082 145.961 266.742C146.001 268.542 145.461 269.442 143.541 269.162C142.041 268.952 141.391 269.592 141.511 271.132C141.591 272.242 141.471 273.512 143.111 273.292C145.651 272.942 145.991 274.282 145.951 276.372C145.911 278.782 144.261 278.092 142.971 278.202C142.641 278.232 142.321 278.262 142.021 278.292C140.891 281.662 141.191 282.312 144.321 282.612C146.511 282.822 145.811 284.422 145.891 285.612C145.961 286.742 146.191 288.092 144.311 288.022C143.491 287.992 142.671 288.022 141.511 288.022C142.071 291.542 141.061 293.652 137.021 292.642V296.512C139.768 297.099 141.358 298.742 141.791 301.442C142.201 301.492 142.671 301.592 143.141 301.592C144.561 301.592 146.021 301.312 145.951 303.612C145.901 305.472 145.661 306.702 143.351 306.482C142.791 306.432 141.821 307.092 141.611 307.632C141.161 308.812 141.491 310.512 140.751 311.272C140.091 311.952 138.421 311.662 137.061 311.812C136.981 312.372 136.791 312.932 136.841 313.472C137.041 315.462 136.361 316.492 134.211 316.232C132.661 316.042 132.221 316.872 132.211 318.322C132.211 319.762 132.591 320.422 134.161 320.472C136.641 320.542 137.581 321.922 136.691 324.282C136.481 324.832 135.321 325.312 134.581 325.322C132.981 325.352 132.151 325.702 132.181 327.562C132.211 329.342 133.081 329.552 134.511 329.632C135.271 329.672 136.591 330.232 136.631 330.642C136.761 332.062 136.781 333.722 136.131 334.882C135.841 335.402 133.771 335.202 132.651 334.852C132.201 334.712 131.931 333.282 131.961 332.452C132.031 330.612 131.581 329.532 129.471 329.862C128.081 330.082 127.361 329.352 127.541 328.002C127.861 325.602 126.601 325.112 124.621 325.362C122.771 325.592 122.151 324.762 122.111 322.942C122.061 320.942 122.831 320.292 124.761 320.402C125.851 320.462 127.381 320.962 127.511 318.882C127.621 317.042 127.161 315.992 125.071 316.192C123.611 316.332 122.231 316.342 122.131 314.182C122.041 312.222 122.541 311.092 124.721 311.382C126.631 311.632 127.571 311.122 127.581 308.882C127.581 306.562 126.471 306.192 124.651 306.412C122.791 306.632 122.171 305.812 122.111 304.002C122.051 302.112 122.771 301.442 124.581 301.572C126.061 301.682 127.631 301.972 127.551 299.502C127.491 297.632 126.811 296.902 125.001 297.142C122.861 297.422 121.991 296.562 122.121 294.332C122.251 292.112 123.711 292.302 125.111 292.392C126.771 292.512 127.521 292.012 127.571 290.192C127.621 288.382 126.991 287.902 125.271 287.952C122.311 288.042 121.211 286.562 122.311 283.822C122.571 283.182 123.991 282.692 124.881 282.682C126.561 282.652 127.511 282.372 127.551 280.382C127.591 278.302 126.541 278.032 124.901 278.192C123.211 278.352 122.051 278.092 122.091 275.852C122.131 273.632 123.141 273.112 125.051 273.312C126.561 273.472 127.531 273.202 127.581 271.232C127.631 269.212 126.591 268.942 125.121 269.172C121.141 269.802 122.511 266.592 121.971 264.752C120.591 264.452 118.771 264.582 118.101 263.772C117.371 262.882 117.711 261.112 117.571 259.602C115.871 258.802 112.501 260.542 112.971 256.342C113.361 252.892 116.061 255.162 117.371 254.012C118.241 250.852 118.111 250.572 114.721 250.232C112.591 250.012 113.191 248.482 113.051 247.262C112.901 245.892 113.461 245.192 114.881 245.332C116.651 245.502 118.011 245.362 117.791 242.942C117.651 241.492 117.221 240.692 115.701 240.912C113.311 241.262 113.021 239.992 112.981 237.992C112.941 235.942 113.691 235.262 115.591 235.522C117.191 235.742 117.831 235.102 117.771 233.432C117.721 231.932 117.381 230.952 115.661 231.172C113.521 231.452 112.811 230.432 113.031 228.432C113.081 227.972 112.911 227.482 112.841 227.042C109.291 226.312 109.211 226.312 108.801 229.492C108.531 231.552 107.061 231.062 105.801 231.152C104.081 231.272 103.961 230.162 103.981 228.892C103.991 227.602 103.881 226.192 105.811 226.422C107.931 226.672 108.621 225.802 108.491 223.752C108.401 222.342 107.891 221.762 106.511 221.962C104.541 222.262 103.721 221.432 103.981 219.462C104.221 217.692 103.161 217.272 101.711 217.462C99.4214 217.762 98.4214 216.842 98.7314 214.522C98.9714 212.712 98.2814 211.842 96.3514 212.152C94.7314 212.412 94.0514 211.682 94.2014 210.042C94.3114 208.842 94.3214 207.522 92.5314 207.732C90.0814 208.012 89.1514 206.952 89.4614 204.582C89.5114 204.202 89.3514 203.792 89.2814 203.322C88.8014 203.242 88.3814 203.062 88.0014 203.122C85.7614 203.452 84.8714 202.662 84.9614 200.282C85.0914 196.982 82.4614 199.082 81.0014 198.122C80.8414 199.162 80.5914 199.802 80.6714 200.402C80.9714 202.692 79.9114 203.222 77.7914 203.152C76.0714 203.102 75.1614 202.852 75.2314 200.852C75.3014 199.112 75.4814 197.872 77.6814 198.162C78.4814 198.272 79.3114 198.112 80.0814 198.072C80.8714 194.292 80.8114 194.102 77.2114 194.002C74.9014 193.942 75.2014 192.372 75.3114 191.042C75.4814 188.962 74.5514 188.522 72.6714 188.552C70.4814 188.582 70.7714 190.012 70.8714 191.282C71.0414 193.332 70.2814 194.082 68.1814 194.022C66.0914 193.972 65.9714 192.802 65.9514 191.242C65.9314 190.112 66.4514 188.672 64.3614 188.552C62.4314 188.442 61.5114 189.012 61.8114 191.032C62.1414 193.342 61.1414 194.202 58.8414 194.002C57.4914 193.882 56.9614 193.412 56.8814 192.052C56.6414 188.212 56.6014 188.212 52.1514 188.872C52.0914 189.602 51.9414 190.402 51.9814 191.192C52.0714 192.902 51.8414 194.052 49.6214 194.022C47.6714 193.992 46.9614 193.362 47.0014 191.402C47.0414 189.542 47.0714 187.992 49.5914 188.342C51.1314 188.562 51.8214 188.002 51.8114 186.292C51.8014 184.592 51.1114 184.012 49.5714 184.202C47.5514 184.462 46.8514 183.502 47.0214 181.602C47.0714 181.032 46.9614 180.452 46.9114 179.682H43.1614C42.2414 181.222 44.0814 184.562 40.0514 184.262C36.4214 183.992 38.8814 181.022 37.3014 179.422C36.3014 179.422 34.9114 179.422 33.5214 179.422C33.4414 178.442 33.5614 177.392 33.2314 176.502C33.0014 175.862 32.2214 175.062 31.6114 174.992C28.3214 174.612 27.9114 175.252 28.7814 179.352H33.5914L33.6314 179.302ZM136.911 56.9823C136.841 56.2423 136.661 55.5023 136.731 54.7723C136.871 53.1223 136.171 52.6123 134.571 52.6123C132.841 52.6123 132.261 53.2423 132.251 54.9623C132.231 56.7023 133.011 57.1323 134.521 57.0023C135.351 56.9323 136.181 56.9323 137.011 56.9023C136.971 57.8923 136.831 58.8923 136.921 59.8723C136.971 60.4423 137.321 61.3923 137.651 61.4423C138.671 61.6023 140.211 61.8123 140.691 61.2623C141.301 60.5623 141.301 59.0823 141.091 58.0323C141.011 57.6123 139.671 57.3923 138.881 57.1923C138.251 57.0323 137.581 57.0423 136.921 56.9823H136.911ZM219.231 170.102C221.321 170.732 221.621 169.512 221.641 167.712C221.651 165.972 221.421 164.992 219.271 165.012C217.221 165.032 216.551 165.652 216.631 167.702C216.701 169.512 217.021 170.632 219.241 170.102H219.231ZM80.4214 167.712C80.7714 165.792 80.1214 165.032 78.0514 165.012C76.0214 164.992 75.4014 165.702 75.5214 167.602C75.6114 169.092 75.4714 170.392 77.7214 170.242C79.5414 170.122 80.9514 170.062 80.4214 167.712ZM172.091 170.132C174.361 170.672 174.411 169.242 174.491 167.562C174.581 165.592 173.831 165.042 171.891 165.022C169.751 164.992 169.491 165.942 169.451 167.722C169.411 169.712 170.101 170.522 172.081 170.132H172.091ZM127.521 261.942C127.841 260.122 127.421 259.062 125.241 259.232C123.641 259.352 122.301 259.202 122.441 261.542C122.541 263.292 122.691 264.422 124.871 264.232C126.431 264.092 128.091 264.382 127.531 261.942H127.521ZM125.131 217.032C127.111 217.502 127.571 216.492 127.631 214.592C127.711 212.332 126.641 212.122 124.771 212.052C122.721 211.982 122.491 212.892 122.451 214.572C122.411 216.492 123.001 217.442 125.121 217.032H125.131ZM127.501 120.472C128.111 118.332 126.841 118.122 125.041 118.072C123.121 118.022 122.461 118.612 122.431 120.622C122.401 122.732 123.251 123.082 125.081 123.082C126.941 123.082 128.021 122.702 127.501 120.472ZM148.531 240.562C150.411 240.972 151.041 240.122 151.071 238.162C151.091 236.192 150.441 235.622 148.501 235.642C146.651 235.672 145.871 236.072 145.901 238.112C145.931 240.032 146.431 240.952 148.531 240.562ZM136.671 167.842C136.811 166.262 136.811 164.982 134.611 165.032C132.871 165.072 132.171 165.652 132.281 167.372C132.371 168.772 132.021 170.242 134.311 170.232C136.171 170.232 136.991 169.672 136.671 167.842ZM57.1414 167.522C56.9514 169.162 57.1614 170.252 59.2614 170.252C61.2314 170.252 61.6214 169.402 61.5914 167.702C61.5714 166.102 61.4414 165.022 59.3614 165.032C57.4314 165.042 56.8114 165.782 57.1314 167.522H57.1414ZM202.671 167.282C203.171 165.522 202.171 165.082 200.401 165.042C198.291 164.992 198.281 166.222 198.231 167.762C198.171 169.552 198.751 170.222 200.641 170.242C202.841 170.262 202.801 169.002 202.671 167.282ZM113.371 167.512C113.211 169.102 113.331 170.252 115.461 170.242C117.381 170.242 117.881 169.482 117.831 167.732C117.791 166.172 117.731 165.022 115.641 165.032C113.751 165.042 113.061 165.752 113.371 167.512ZM51.7514 167.712C51.9614 166.112 51.7614 165.012 49.6514 165.032C47.7714 165.052 47.1914 165.752 47.2814 167.542C47.3514 169.072 47.3414 170.262 49.4714 170.242C51.4114 170.232 52.0214 169.472 51.7514 167.712ZM192.831 167.672C193.081 166.022 192.741 165.002 190.671 165.032C188.831 165.062 188.381 165.862 188.441 167.482C188.491 168.982 188.401 170.242 190.601 170.242C192.601 170.242 193.091 169.402 192.831 167.672ZM98.7014 167.592C98.9214 166.032 98.6014 165.032 96.5314 165.032C94.6114 165.032 94.3314 165.912 94.4114 167.472C94.4814 168.892 94.1714 170.252 96.4514 170.242C98.4614 170.242 98.9214 169.382 98.7014 167.592ZM124.921 137.012C123.451 136.752 122.401 137.012 122.441 139.132C122.481 141.172 123.491 141.322 125.131 141.372C126.991 141.432 127.571 140.802 127.631 138.952C127.701 136.852 126.531 136.872 124.921 137.012ZM124.811 104.082C126.571 104.392 127.621 104.062 127.601 101.882C127.581 99.9123 126.711 99.6123 125.031 99.6023C123.391 99.6023 122.391 99.7523 122.451 101.802C122.501 103.542 122.841 104.562 124.811 104.082ZM125.131 113.202C126.601 113.342 127.681 113.272 127.631 111.212C127.591 109.272 126.821 108.842 125.071 108.872C123.441 108.902 122.461 109.102 122.431 111.132C122.401 113.332 123.621 113.332 125.121 113.202H125.131ZM124.981 198.122C126.401 198.172 127.651 198.352 127.641 196.212C127.641 194.222 126.791 193.882 125.081 193.902C123.421 193.912 122.451 194.142 122.451 196.172C122.451 198.232 123.621 198.222 124.981 198.122ZM113.471 123.342C115.141 122.962 116.901 123.062 117.551 122.262C118.151 121.512 118.041 119.312 117.361 118.652C116.611 117.932 114.871 118.242 113.471 118.102V123.342ZM75.7914 155.632V160.602C77.4814 160.322 79.0814 160.392 80.2014 159.702C80.7114 159.382 80.7214 156.872 80.2114 156.552C79.0914 155.852 77.5014 155.922 75.7914 155.632ZM124.961 179.252C126.381 179.342 127.641 179.502 127.621 177.362C127.601 175.372 126.881 174.812 124.941 174.822C123.061 174.822 122.481 175.462 122.451 177.272C122.411 179.302 123.521 179.422 124.961 179.252ZM136.651 214.362C137.141 212.542 136.191 212.112 134.381 212.052C132.401 211.992 132.281 213.002 132.261 214.512C132.231 216.162 132.501 217.142 134.531 217.162C136.631 217.182 136.901 216.152 136.651 214.362ZM124.841 94.3123C126.481 94.5423 127.621 94.3523 127.601 92.2423C127.581 90.4023 126.941 89.7723 125.101 89.8323C123.521 89.8923 122.391 89.9023 122.451 92.0223C122.501 93.8123 122.921 94.7723 124.851 94.3123H124.841ZM137.021 287.932C138.521 287.672 140.321 287.882 140.981 287.102C141.611 286.362 141.551 284.142 140.881 283.432C140.181 282.692 138.401 282.962 137.021 282.792V287.932ZM141.301 212.192C141.631 213.992 141.691 215.562 142.301 216.872C142.471 217.242 145.021 217.152 145.171 216.762C145.691 215.402 145.641 213.832 145.821 212.192H141.291H141.301ZM136.481 47.1123C136.971 49.2923 137.081 50.8923 137.781 52.1723C137.991 52.5523 140.541 52.3623 140.851 51.8023C141.401 50.7723 141.601 48.8523 140.971 48.0923C140.341 47.3223 138.541 47.4923 136.481 47.1123ZM124.951 160.322C126.661 160.622 127.591 160.162 127.611 158.182C127.631 156.272 126.841 155.822 125.081 155.852C123.441 155.882 122.421 156.012 122.461 158.062C122.501 159.892 123.091 160.722 124.951 160.322ZM125.031 221.962C123.281 221.622 122.391 222.142 122.461 224.142C122.521 225.882 123.151 226.452 124.881 226.392C126.481 226.342 127.591 226.252 127.611 224.182C127.621 222.232 126.831 221.612 125.031 221.962ZM124.991 245.252C126.681 245.552 127.631 245.122 127.601 243.092C127.581 241.082 126.591 240.872 124.931 240.822C123.031 240.762 122.471 241.452 122.451 243.262C122.431 245.212 123.411 245.512 124.991 245.252ZM136.901 259.722C136.661 259.492 136.411 259.252 136.171 259.022C134.911 259.362 133.151 259.322 132.551 260.142C131.971 260.922 132.241 262.832 132.851 263.782C133.211 264.342 135.721 264.412 135.961 263.982C136.631 262.762 136.641 261.162 136.901 259.722ZM172.041 160.322C173.891 160.742 174.471 159.942 174.511 158.092C174.561 156.072 173.631 155.862 171.951 155.842C170.201 155.822 169.421 156.212 169.441 158.152C169.461 160.112 170.281 160.652 172.031 160.312L172.041 160.322ZM80.7514 179.522C80.3814 177.612 80.5414 175.832 79.7614 175.182C79.0214 174.562 76.9814 174.682 76.0914 175.302C75.4614 175.742 75.3614 178.382 75.7914 178.612C77.0214 179.272 78.6514 179.202 80.7514 179.522ZM132.341 120.392C132.141 121.852 132.151 123.142 134.331 123.072C135.851 123.022 136.981 122.952 136.711 120.982C136.541 119.702 137.281 118.002 134.851 118.082C133.271 118.142 131.931 118.192 132.331 120.392H132.341ZM174.771 179.682C174.371 177.632 174.521 175.842 173.741 175.182C173.001 174.562 171.051 174.742 170.041 175.302C169.471 175.622 169.291 178.192 169.671 178.392C170.961 179.092 172.571 179.192 174.781 179.682H174.771ZM136.201 311.572C136.441 311.332 136.681 311.092 136.921 310.852C136.631 309.402 136.601 307.812 135.911 306.592C135.671 306.172 133.141 306.282 132.811 306.842C132.211 307.822 131.981 309.722 132.571 310.522C133.161 311.332 134.941 311.262 136.201 311.572ZM136.941 71.3423C136.721 71.1223 136.491 70.9123 136.271 70.6923C134.971 71.0423 133.301 71.0423 132.501 71.8823C131.921 72.4823 132.111 74.4923 132.711 75.3223C133.151 75.9323 135.581 76.0823 135.791 75.7023C136.491 74.4223 136.601 72.8223 136.941 71.3423ZM117.611 99.8423C119.641 99.3323 121.401 99.3923 121.951 98.6023C122.531 97.7823 122.231 96.0023 121.711 94.9223C121.481 94.4523 119.031 94.3323 118.861 94.6823C118.221 96.0023 118.091 97.5723 117.601 99.8423H117.611ZM113.371 214.592C113.051 216.352 113.631 217.182 115.591 217.152C117.391 217.132 117.871 216.402 117.831 214.732C117.791 213.162 117.761 212.022 115.631 212.052C113.691 212.072 113.061 212.792 113.381 214.592H113.371ZM146.161 123.362C145.671 121.072 145.581 119.532 144.921 118.292C144.721 117.912 142.231 118.062 142.071 118.462C141.611 119.672 141.331 121.352 141.871 122.392C142.221 123.072 144.111 122.952 146.161 123.362ZM172.131 198.122C173.541 198.302 174.501 198.042 174.511 196.102C174.531 194.052 173.501 193.932 171.901 193.892C170.121 193.852 169.461 194.372 169.451 196.252C169.441 198.372 170.701 198.172 172.141 198.122H172.131ZM169.091 202.662C169.621 204.692 169.561 206.462 170.361 207.022C171.171 207.602 172.971 207.292 174.031 206.772C174.521 206.532 174.631 204.072 174.311 203.922C172.971 203.292 171.391 203.152 169.091 202.672V202.662ZM70.6214 167.502C70.7914 166.022 70.5514 165.062 68.6014 165.042C66.5714 165.022 66.3014 166.002 66.3214 167.642C66.3414 169.232 66.5114 170.252 68.5814 170.252C70.7914 170.252 70.7214 169.012 70.6214 167.512V167.502ZM155.521 167.692C155.591 166.222 155.631 165.072 153.561 165.032C151.421 164.992 151.301 166.092 151.351 167.672C151.391 169.052 151.271 170.222 153.361 170.242C155.491 170.262 155.671 169.202 155.521 167.692ZM216.671 179.932C216.431 179.672 216.191 179.412 215.951 179.162C214.651 179.512 213.101 179.562 212.151 180.342C211.671 180.742 211.861 182.882 212.481 183.452C213.111 184.042 215.161 184.142 215.631 183.612C216.391 182.752 216.361 181.202 216.671 179.942V179.932ZM211.731 167.692C211.821 166.262 211.911 165.062 209.831 165.032C207.811 165.012 207.451 165.972 207.561 167.632C207.641 168.982 207.431 170.202 209.551 170.242C211.671 170.272 211.911 169.272 211.741 167.692H211.731ZM128.031 146.552C125.701 146.932 124.101 146.992 122.711 147.582C122.401 147.712 122.461 150.292 123.021 150.612C124.001 151.192 125.841 151.422 126.671 150.852C127.481 150.292 127.471 148.552 128.031 146.552ZM155.361 212.372C153.751 212.622 151.261 210.652 151.331 214.152C151.361 215.802 151.151 217.432 153.691 217.102C157.381 216.632 154.651 213.962 155.361 212.372ZM122.211 234.932L122.931 235.712C124.431 235.412 126.051 235.322 127.371 234.662C127.731 234.482 127.621 231.952 127.051 231.602C126.081 231.002 124.201 230.762 123.411 231.342C122.581 231.942 122.571 233.682 122.201 234.932H122.211ZM125.121 188.292C126.631 188.452 127.611 188.282 127.631 186.292C127.661 184.122 126.491 184.162 124.961 184.142C123.471 184.122 122.461 184.212 122.451 186.192C122.431 188.322 123.571 188.462 125.121 188.292ZM122.161 80.9423C122.601 82.5723 122.571 84.3123 123.331 84.7723C124.241 85.3323 126.161 85.2623 126.991 84.6223C127.701 84.0723 127.471 82.3223 127.691 80.9423H122.161ZM104.401 217.442C106.011 216.992 107.761 217.002 108.211 216.252C108.771 215.312 108.701 213.372 108.041 212.552C107.491 211.872 105.701 212.202 104.401 212.072V217.442ZM183.731 158.072C184.041 156.322 183.231 155.852 181.531 155.832C179.781 155.822 179.271 156.432 179.281 158.122C179.291 159.792 179.771 160.432 181.531 160.422C183.291 160.412 183.971 159.792 183.721 158.072H183.731ZM125.291 254.312C126.771 254.522 127.641 254.182 127.641 252.252C127.641 250.062 126.391 250.192 124.901 250.152C123.311 250.102 122.491 250.482 122.451 252.322C122.391 254.582 123.791 254.362 125.291 254.312ZM78.1314 188.292C79.6514 188.522 80.5214 188.182 80.5214 186.252C80.5214 184.322 79.6214 184.142 78.0814 184.122C76.4214 184.102 75.4714 184.332 75.4914 186.372C75.5114 188.452 76.6814 188.392 78.1314 188.292ZM94.0414 203.072V198.092C92.5014 198.452 91.0114 198.452 90.0514 199.172C89.5414 199.552 89.5514 201.762 90.0514 202.112C91.0314 202.802 92.5214 202.772 94.0414 203.082V203.072ZM115.501 221.942C113.621 221.572 113.341 222.592 113.291 224.202C113.241 226.072 114.101 226.382 115.701 226.392C117.401 226.412 117.791 225.652 117.831 224.132C117.871 222.392 117.291 221.602 115.501 221.932V221.942ZM136.291 301.722C136.521 301.492 136.741 301.252 136.971 301.022C136.641 299.752 136.621 298.222 135.851 297.332C135.441 296.852 133.321 297.072 132.761 297.682C132.171 298.332 132.041 300.432 132.551 300.832C133.461 301.552 135.001 301.472 136.281 301.722H136.291ZM137.311 301.532C137.071 301.772 136.831 302.012 136.601 302.252C136.951 303.492 137.031 304.962 137.781 305.872C138.171 306.342 140.221 306.192 140.701 305.632C141.291 304.922 141.521 302.882 141.051 302.522C140.121 301.792 138.601 301.822 137.321 301.542L137.311 301.532ZM134.511 104.102C136.361 104.472 136.711 103.492 136.741 101.842C136.781 100.052 136.121 99.5823 134.411 99.5823C132.721 99.5823 132.261 100.242 132.271 101.802C132.281 103.392 132.561 104.482 134.511 104.092V104.102ZM148.381 104.402C146.961 104.272 145.881 104.382 145.901 106.402C145.921 108.292 146.781 108.592 148.351 108.582C149.941 108.562 151.071 108.442 151.041 106.352C151.021 104.312 149.831 104.312 148.371 104.402H148.381ZM202.661 177.012C203.051 175.262 202.111 174.872 200.441 174.832C198.591 174.792 198.291 175.672 198.211 177.252C198.111 179.252 199.221 179.262 200.691 179.312C202.391 179.382 202.961 178.692 202.651 177.002L202.661 177.012ZM136.611 70.2423C136.841 70.4723 137.061 70.6923 137.291 70.9223C138.571 70.6723 140.091 70.7423 141.021 70.0323C141.511 69.6623 141.391 67.5523 140.801 66.9223C140.231 66.3123 138.151 66.1223 137.721 66.6123C136.961 67.4823 136.941 69.0023 136.611 70.2523V70.2423ZM136.651 243.062C136.981 241.352 136.171 240.842 134.461 240.822C132.591 240.792 132.291 241.702 132.261 243.252C132.221 244.892 132.891 245.352 134.461 245.352C136.121 245.352 137.021 244.952 136.651 243.072V243.062ZM136.671 92.1423C136.971 90.3823 136.201 89.8523 134.471 89.8223C132.581 89.7923 132.281 90.6823 132.271 92.2523C132.261 93.8523 132.831 94.4023 134.461 94.4123C136.171 94.4123 137.001 93.9323 136.671 92.1523V92.1423ZM96.6114 160.302C98.4414 160.812 98.7814 159.712 98.7814 158.122C98.7814 156.692 98.5614 155.782 96.7614 155.842C95.1814 155.892 94.2914 156.132 94.4014 158.002C94.4914 159.472 94.5014 160.742 96.6214 160.312L96.6114 160.302ZM193.241 156.732C193.041 156.432 192.841 156.132 192.641 155.842C191.341 156.002 189.711 155.772 188.841 156.472C188.271 156.932 188.441 158.932 188.951 159.882C189.231 160.412 191.381 160.682 191.821 160.232C192.631 159.392 192.811 157.942 193.251 156.742L193.241 156.732ZM171.991 184.202C170.281 183.912 169.441 184.412 169.441 186.412C169.441 188.552 170.721 188.272 172.061 188.342C173.641 188.432 174.501 188.102 174.501 186.202C174.501 184.242 173.541 183.972 171.991 184.202ZM49.5214 179.252C51.0514 179.492 51.9014 179.092 51.8314 177.322C51.7714 175.812 51.6214 174.792 49.6914 174.832C48.0514 174.862 47.2814 175.282 47.2814 177.072C47.2814 178.782 47.7714 179.602 49.5314 179.252H49.5214ZM57.1214 176.942C56.9614 178.312 57.0614 179.452 58.9414 179.302C60.2314 179.202 61.7014 179.612 61.5814 177.432C61.5014 176.032 61.5814 174.772 59.5714 174.842C58.0814 174.892 56.8614 174.972 57.1214 176.942ZM117.761 139.052C118.091 137.382 117.261 136.932 115.701 136.952C114.221 136.972 113.181 137.032 113.271 139.022C113.351 140.642 113.711 141.412 115.501 141.382C117.181 141.352 118.011 140.832 117.751 139.052H117.761ZM127.561 47.5423C127.911 49.3023 128.011 50.8323 128.611 52.1423C128.781 52.5023 131.161 52.4523 131.301 52.0923C131.841 50.7523 131.881 49.2123 132.141 47.5423H127.561ZM154.971 123.262C155.221 123.042 155.481 122.822 155.731 122.612C155.461 121.162 155.391 119.612 154.781 118.322C154.611 117.962 152.131 118.032 151.901 118.512C151.361 119.582 151.071 121.292 151.601 122.222C152.031 122.972 153.801 122.952 154.981 123.272L154.971 123.262ZM145.511 104.022V99.8223C141.261 99.4223 140.921 99.8423 141.971 104.022H145.511ZM169.941 146.652C169.721 146.892 169.511 147.142 169.291 147.382C169.591 148.572 169.541 150.312 170.291 150.792C171.171 151.352 172.961 151.182 173.961 150.622C174.491 150.322 174.601 147.772 174.211 147.572C172.951 146.932 171.381 146.902 169.931 146.642L169.941 146.652ZM117.761 177.212C118.001 175.482 117.281 174.852 115.541 174.832C113.741 174.812 113.351 175.562 113.281 177.202C113.191 179.142 114.131 179.322 115.681 179.332C117.251 179.332 118.081 178.892 117.761 177.222V177.212ZM160.471 123.452H155.601C155.861 124.942 155.721 126.502 156.421 127.312C156.921 127.882 159.091 127.902 159.591 127.342C160.311 126.542 160.181 124.982 160.461 123.462L160.471 123.452ZM115.531 155.922C113.731 155.562 113.301 156.462 113.291 158.122C113.291 159.802 113.801 160.422 115.551 160.422C117.311 160.422 117.831 159.782 117.831 158.112C117.831 156.422 117.321 155.592 115.531 155.922ZM134.451 155.922C132.451 155.552 132.291 156.752 132.271 158.272C132.251 159.892 132.891 160.382 134.501 160.412C136.311 160.452 136.751 159.742 136.761 158.082C136.761 156.342 136.201 155.572 134.461 155.922H134.451ZM134.551 278.212C132.961 277.932 132.221 278.482 132.261 280.172C132.301 281.682 132.491 282.692 134.411 282.652C136.061 282.622 136.781 282.212 136.751 280.422C136.721 278.782 136.371 277.832 134.551 278.212ZM118.331 258.982H122.011V254.892C117.891 254.192 117.531 254.582 118.331 258.982ZM94.1714 178.752C94.4014 179.002 94.6314 179.252 94.8614 179.502C96.1214 179.192 97.6514 179.192 98.5314 178.442C99.0214 178.022 98.7714 176.042 98.1814 175.312C97.7314 174.752 95.6314 174.622 95.2914 175.072C94.5614 176.032 94.5014 177.502 94.1714 178.762V178.752ZM181.651 179.232C183.361 179.642 183.811 178.752 183.801 177.062C183.801 175.282 183.031 174.862 181.391 174.832C179.451 174.792 179.361 175.832 179.291 177.322C179.211 179.072 180.011 179.512 181.651 179.232ZM192.841 177.032C193.151 175.222 192.191 174.862 190.571 174.832C188.661 174.792 188.511 175.842 188.421 177.322C188.301 179.362 189.551 179.232 190.941 179.312C192.741 179.422 193.041 178.492 192.831 177.032H192.841ZM145.521 160.302V156.072H141.851V160.302H145.521ZM145.921 245.182C145.661 243.632 145.711 242.162 145.081 241.102C144.811 240.652 142.451 240.682 142.191 241.142C141.581 242.222 141.661 243.692 141.431 245.182H145.921ZM235.381 178.852C235.611 179.072 235.851 179.292 236.081 179.512C237.341 179.212 238.861 179.222 239.761 178.482C240.241 178.082 240.041 175.992 239.431 175.382C238.831 174.792 236.721 174.642 236.341 175.132C235.621 176.062 235.651 177.582 235.381 178.852ZM134.501 179.252C135.981 179.492 136.841 179.112 136.741 177.342C136.661 175.912 136.671 174.822 134.691 174.822C132.831 174.822 132.261 175.502 132.251 177.282C132.251 178.972 132.961 179.502 134.501 179.252ZM136.651 224.042C137.051 222.392 136.281 221.832 134.531 221.862C133.021 221.892 132.211 222.202 132.271 223.912C132.321 225.392 132.461 226.452 134.401 226.412C136.031 226.372 136.981 226.002 136.661 224.042H136.651ZM134.611 137.002C133.111 136.822 132.201 137.152 132.261 138.942C132.311 140.532 132.651 141.372 134.501 141.382C136.301 141.382 136.741 140.682 136.761 139.022C136.781 137.352 136.201 136.702 134.621 137.002H134.611ZM136.271 113.402C136.521 113.162 136.771 112.922 137.021 112.692C136.641 111.462 136.521 110.002 135.761 109.092C135.371 108.632 133.341 108.812 132.881 109.372C132.301 110.082 132.091 112.122 132.551 112.462C133.501 113.172 135.011 113.132 136.291 113.402H136.271ZM118.111 197.912C117.701 196.422 117.681 194.972 116.951 194.192C116.461 193.672 114.441 193.682 114.021 194.192C113.341 195.042 113.411 196.492 113.121 197.902H118.121L118.111 197.912ZM162.351 179.252C163.751 179.422 164.861 179.292 164.731 177.422C164.631 176.072 164.821 174.812 162.741 174.832C161.031 174.842 160.361 175.342 160.431 177.072C160.481 178.452 160.471 179.642 162.351 179.252ZM162.371 198.112C163.811 198.282 164.811 198.062 164.741 196.222C164.681 194.792 164.511 193.852 162.721 193.902C161.261 193.932 160.341 194.112 160.431 195.902C160.491 197.292 160.501 198.482 162.381 198.122L162.371 198.112ZM160.201 155.382C160.551 157.562 160.451 159.082 161.111 160.112C161.411 160.582 163.641 160.502 164.211 159.912C164.821 159.282 164.971 157.342 164.451 156.732C163.781 155.962 162.231 155.962 160.201 155.382ZM93.9814 202.702C94.4914 204.782 94.4614 206.302 95.2014 207.062C95.6814 207.552 97.6014 207.312 98.3014 206.722C98.8614 206.252 98.9714 204.122 98.5414 203.842C97.5314 203.172 96.0814 203.162 93.9814 202.702ZM184.081 197.932C183.661 196.442 183.641 194.972 182.901 194.192C182.411 193.672 180.331 193.722 179.951 194.242C179.301 195.132 179.431 196.582 179.211 197.932H184.071H184.081ZM141.391 222.012C141.691 223.542 141.741 225.002 142.341 226.182C142.541 226.572 144.821 226.552 145.021 226.162C145.601 224.982 145.621 223.522 145.891 222.012H141.401H141.391ZM37.7914 179.632C39.8714 179.182 41.4014 179.242 42.3014 178.512C42.7914 178.112 42.5814 176.122 42.0014 175.362C41.5614 174.792 39.4014 174.622 39.1414 175.022C38.4314 176.102 38.3314 177.572 37.7914 179.632ZM143.551 113.192C145.071 113.452 145.831 113.002 145.781 111.262C145.731 109.722 145.521 108.832 143.641 108.862C141.951 108.882 141.551 109.552 141.531 111.062C141.511 112.552 141.771 113.522 143.551 113.192ZM160.971 136.702C160.721 136.952 160.461 137.212 160.211 137.462C160.541 138.722 160.621 140.172 161.341 141.162C161.651 141.582 163.661 141.412 164.211 140.842C164.781 140.252 164.991 138.312 164.541 137.922C163.661 137.162 162.201 137.072 160.981 136.702H160.971ZM136.651 195.982C137.031 194.382 136.231 193.912 134.631 193.892C132.971 193.872 132.261 194.372 132.251 196.152C132.251 197.952 133.161 198.132 134.571 198.162C136.111 198.202 137.021 197.832 136.651 195.972V195.982ZM112.891 202.712C113.441 204.712 113.461 206.242 114.231 207.072C114.701 207.572 116.621 207.332 117.341 206.752C117.901 206.302 118.011 204.112 117.621 203.882C116.501 203.232 115.031 203.172 112.891 202.712ZM141.421 179.092H146.011C145.651 177.552 145.591 176.122 144.941 175.052C144.681 174.632 142.471 174.692 142.251 175.122C141.661 176.232 141.681 177.662 141.431 179.092H141.421ZM143.831 198.082C145.581 198.542 145.731 197.452 145.771 195.992C145.811 194.352 145.171 193.912 143.591 193.892C141.861 193.872 141.571 194.642 141.531 196.122C141.481 197.802 142.141 198.392 143.831 198.082ZM145.711 139.072C146.011 137.452 145.311 136.932 143.681 136.932C142.091 136.932 141.421 137.382 141.531 139.042C141.621 140.392 141.651 141.392 143.511 141.382C145.271 141.382 145.961 140.792 145.711 139.072ZM160.951 202.862C160.701 203.102 160.441 203.332 160.191 203.572C160.561 204.802 160.691 206.202 161.411 207.182C161.721 207.602 163.761 207.452 164.101 206.952C164.651 206.132 164.951 204.272 164.451 203.812C163.671 203.082 162.151 203.142 160.941 202.872L160.951 202.862ZM94.1514 197.642L94.9314 198.382C96.1714 198.052 97.6114 197.972 98.5714 197.262C98.9914 196.952 98.8014 194.962 98.2414 194.402C97.6614 193.842 95.7414 193.642 95.3614 194.102C94.6114 194.982 94.5214 196.432 94.1614 197.642H94.1514ZM137.191 202.802C135.111 203.152 133.611 203.072 132.581 203.722C132.131 204.002 132.281 206.112 132.861 206.822C133.321 207.392 135.371 207.582 135.761 207.122C136.521 206.232 136.611 204.772 137.191 202.792V202.802ZM162.541 151.052C164.251 151.412 164.671 150.572 164.741 149.022C164.821 147.222 164.081 146.832 162.431 146.792C160.661 146.752 160.411 147.542 160.421 149.022C160.431 150.572 160.851 151.432 162.551 151.052H162.541ZM136.851 287.842C134.971 288.532 132.631 286.492 132.301 289.722C132.141 291.282 132.401 292.392 134.481 292.392C137.971 292.382 136.281 289.942 136.851 287.852V287.842ZM134.701 146.872C133.121 146.662 132.181 147.022 132.261 148.922C132.321 150.452 132.731 151.142 134.401 151.142C136.021 151.142 136.821 150.812 136.761 148.962C136.711 147.442 136.431 146.532 134.711 146.862L134.701 146.872ZM115.451 146.882C113.841 146.602 113.301 147.262 113.281 148.902C113.261 150.722 114.021 151.132 115.651 151.142C117.261 151.142 117.781 150.562 117.831 148.962C117.901 147.082 117.051 146.642 115.451 146.882ZM137.051 235.812C136.611 233.802 136.641 232.282 135.911 231.352C135.521 230.862 133.421 230.992 132.821 231.592C132.211 232.182 132.031 234.372 132.481 234.672C133.511 235.382 135.031 235.382 137.051 235.812ZM145.921 235.342C145.651 233.832 145.691 232.382 145.061 231.312C144.801 230.872 142.481 230.902 142.201 231.372C141.571 232.422 141.641 233.882 141.401 235.342H145.921ZM141.581 148.772C141.451 150.272 141.671 151.202 143.541 151.152C145.111 151.112 145.811 150.782 145.781 149.082C145.751 147.632 145.611 146.712 143.781 146.802C142.321 146.872 141.261 147.012 141.581 148.762V148.772ZM70.7414 179.472C70.1114 177.582 72.0514 175.442 69.1114 174.902C67.3914 174.592 66.2914 175.012 66.3014 177.172C66.3314 180.572 68.7514 178.832 70.7414 179.462V179.472ZM155.821 198.392C154.891 196.482 157.081 194.192 153.801 193.922C152.021 193.772 151.231 194.322 151.321 196.242C151.471 199.472 153.741 197.652 155.821 198.392ZM117.721 104.112C118.101 105.972 118.041 107.422 118.721 108.282C119.111 108.772 121.201 108.712 121.641 108.182C122.221 107.472 122.431 105.502 121.931 105.062C121.131 104.362 119.611 104.472 117.721 104.112ZM87.2914 160.342C88.6514 160.572 89.6814 160.302 89.5214 158.492C89.4114 157.242 89.9214 155.752 87.6914 155.872C86.3114 155.952 85.1914 155.922 85.3814 157.772C85.5014 159.012 84.9814 160.652 87.3014 160.352L87.2914 160.342ZM136.211 66.2723L136.901 65.5423C136.621 64.3723 136.671 62.8423 135.941 62.1523C135.381 61.6323 133.561 61.8323 132.791 62.3823C132.251 62.7723 132.111 64.9023 132.541 65.2023C133.531 65.8923 134.961 65.9523 136.211 66.2623V66.2723ZM155.751 203.462L155.011 202.812C153.821 203.132 152.381 203.162 151.551 203.882C151.091 204.282 151.271 206.202 151.831 206.792C152.381 207.362 154.401 207.542 154.701 207.122C155.401 206.142 155.451 204.702 155.761 203.452L155.751 203.462ZM137.291 38.1823C137.081 38.4223 136.861 38.6723 136.651 38.9123C136.961 40.0923 136.941 41.6323 137.701 42.3323C138.241 42.8423 140.121 42.6023 140.841 42.0223C141.391 41.5723 141.491 39.4023 141.061 39.1323C140.031 38.4623 138.571 38.4623 137.291 38.1923V38.1823ZM128.061 320.772V324.902C132.231 325.352 132.761 324.672 131.501 320.772H128.061ZM202.141 188.562C202.391 188.342 202.641 188.122 202.891 187.892C202.621 186.702 202.701 185.162 201.971 184.442C201.421 183.902 199.581 184.062 198.791 184.602C198.241 184.982 198.051 187.142 198.461 187.442C199.451 188.152 200.891 188.222 202.151 188.552L202.141 188.562ZM23.6914 179.132C23.4214 177.632 23.4614 176.172 22.8314 175.122C22.5714 174.682 20.2014 174.752 19.9614 175.222C19.3814 176.302 19.5114 177.752 19.3414 179.132H23.6914ZM181.571 188.302C183.121 188.502 183.781 187.942 183.801 186.262C183.831 184.342 182.841 184.182 181.331 184.132C179.621 184.082 179.331 184.882 179.281 186.382C179.231 188.182 180.121 188.482 181.561 188.302H181.571ZM89.4814 177.352C89.6314 175.812 89.4314 174.812 87.4514 174.832C85.7314 174.852 85.3514 175.552 85.3414 177.052C85.3414 178.482 85.4814 179.412 87.3214 179.322C88.7814 179.252 89.8214 179.122 89.4814 177.352ZM94.8114 146.662C94.6114 146.902 94.4014 147.142 94.2014 147.392C94.4914 148.602 94.4614 150.122 95.2014 150.922C95.6514 151.412 97.6114 151.142 98.3014 150.542C98.8614 150.062 98.9614 147.942 98.5314 147.642C97.5314 146.962 96.0814 146.952 94.8014 146.672L94.8114 146.662ZM127.861 303.712C127.691 305.182 127.951 306.132 129.771 306.102C131.321 306.082 132.041 305.672 132.001 303.992C131.971 302.552 131.811 301.632 130.011 301.682C128.521 301.732 127.531 301.952 127.861 303.702V303.712ZM104.011 179.722C105.951 179.182 107.491 179.152 108.291 178.372C108.771 177.902 108.471 175.952 107.861 175.252C107.391 174.712 105.211 174.682 104.961 175.112C104.331 176.182 104.371 177.642 104.011 179.722ZM155.501 158.092C155.821 156.332 155.041 155.862 153.311 155.832C151.451 155.812 151.341 156.752 151.331 158.142C151.331 159.572 151.541 160.422 153.351 160.422C155.151 160.422 155.771 159.792 155.491 158.092H155.501ZM137.131 47.4123C136.591 45.4723 136.571 43.9523 135.791 43.1423C135.321 42.6623 133.371 42.9423 132.681 43.5523C132.141 44.0223 132.111 46.2023 132.541 46.4523C133.601 47.0823 135.061 47.0423 137.131 47.4023V47.4123ZM59.2214 188.282C60.6714 188.432 61.6014 188.212 61.6114 186.382C61.6114 184.582 60.9114 184.112 59.2614 184.132C57.7014 184.142 57.0714 184.602 57.0614 186.272C57.0614 187.952 57.6614 188.562 59.2214 188.292V188.282ZM211.641 178.952C210.951 177.552 213.321 174.982 209.761 174.842C207.611 174.762 207.481 175.922 207.571 177.472C207.751 180.722 210.051 178.702 211.641 178.942V178.952ZM96.5014 184.192C94.9114 183.862 94.3614 184.522 94.3914 186.172C94.4114 187.692 94.7314 188.412 96.4414 188.372C98.0414 188.332 98.8414 187.992 98.8014 186.162C98.7714 184.452 98.0714 183.952 96.5014 184.192ZM155.711 221.722C153.731 222.382 151.311 220.542 151.321 223.982C151.321 225.762 151.821 226.592 153.741 226.372C156.981 226.002 154.981 223.682 155.721 221.722H155.711ZM104.781 136.782C104.541 137.002 104.311 137.222 104.071 137.442C104.381 138.702 104.421 140.142 105.111 141.142C105.401 141.562 107.531 141.422 107.961 140.872C108.531 140.132 108.741 138.252 108.231 137.742C107.491 137.002 105.971 137.062 104.781 136.782ZM106.321 155.932C104.331 155.492 104.291 156.762 104.251 158.242C104.211 159.812 104.691 160.372 106.361 160.422C108.301 160.472 108.511 159.522 108.511 158.002C108.511 156.452 108.081 155.582 106.321 155.942V155.932ZM230.871 179.132C230.571 177.622 230.591 176.162 229.941 175.122C229.671 174.682 227.321 174.782 227.081 175.232C226.521 176.322 226.651 177.772 226.501 179.132H230.871ZM134.331 132.062C135.681 132.162 136.821 132.152 136.731 130.242C136.661 128.882 136.681 127.792 134.831 127.902C133.441 127.982 132.211 127.872 132.261 129.892C132.301 131.412 132.671 132.292 134.331 132.052V132.062ZM134.581 250.202C133.051 250.012 132.301 250.512 132.251 252.202C132.191 254.062 133.061 254.352 134.641 254.382C136.261 254.412 136.771 253.862 136.761 252.252C136.741 250.612 136.161 249.962 134.591 250.202H134.581ZM162.421 188.282C163.921 188.502 164.761 188.092 164.741 186.342C164.721 184.832 164.411 184.072 162.671 184.112C161.201 184.152 160.341 184.352 160.411 186.112C160.471 187.552 160.611 188.622 162.421 188.272V188.282ZM115.531 132.052C117.041 132.222 117.841 131.812 117.831 130.062C117.821 128.422 117.241 127.892 115.651 127.892C114.071 127.892 113.241 128.192 113.281 130.072C113.321 131.822 114.061 132.242 115.531 132.052ZM136.671 271.182C137.001 269.492 136.171 269.042 134.611 269.112C133.251 269.172 132.241 269.222 132.251 271.052C132.251 272.782 132.901 273.352 134.581 273.332C136.131 273.312 136.961 272.872 136.671 271.182ZM155.591 179.432C155.011 177.592 156.921 175.472 153.991 174.912C152.381 174.602 151.371 174.972 151.301 177.032C151.181 180.452 153.571 178.912 155.591 179.422V179.432ZM155.821 136.512C153.881 137.062 152.351 137.102 151.541 137.882C151.061 138.342 151.361 140.282 151.971 140.992C152.431 141.522 154.581 141.532 154.851 141.082C155.491 140.042 155.451 138.582 155.821 136.522V136.512ZM115.351 188.302C116.771 188.392 117.831 188.322 117.841 186.442C117.841 184.712 117.271 184.092 115.551 184.132C114.071 184.172 113.261 184.442 113.291 186.192C113.321 187.782 113.761 188.562 115.351 188.302ZM134.681 188.302C136.301 188.592 136.721 187.782 136.741 186.222C136.771 184.542 136.091 184.142 134.551 184.132C132.861 184.122 132.231 184.682 132.251 186.422C132.261 188.242 133.251 188.432 134.681 188.312V188.302ZM136.681 83.1123C136.821 81.8023 136.811 80.6223 134.901 80.7723C133.611 80.8723 132.151 80.5023 132.281 82.6423C132.361 83.9523 132.321 85.1423 134.161 85.1023C135.541 85.0723 136.931 85.1923 136.681 83.1123ZM143.641 188.282C145.351 188.612 145.801 187.772 145.781 186.192C145.761 184.752 145.401 184.092 143.791 184.122C142.281 184.152 141.471 184.392 141.521 186.162C141.571 187.692 141.881 188.622 143.641 188.282ZM192.321 188.562C192.561 188.332 192.801 188.102 193.051 187.872C192.791 186.692 192.871 185.152 192.141 184.442C191.601 183.912 189.761 184.082 188.981 184.632C188.431 185.022 188.251 187.152 188.671 187.462C189.641 188.172 191.081 188.242 192.321 188.572V188.562ZM106.311 198.102C107.931 198.362 108.551 197.712 108.531 196.072C108.501 194.512 108.001 193.902 106.371 193.892C104.741 193.892 104.241 194.462 104.241 196.042C104.241 197.602 104.631 198.442 106.311 198.102ZM155.311 147.112C153.801 147.402 151.501 145.462 151.341 148.712C151.251 150.502 151.741 151.282 153.731 151.132C157.061 150.872 154.901 148.562 155.311 147.112ZM89.8414 198.332C89.4314 196.472 89.4514 195.042 88.7714 194.152C88.4114 193.692 86.3114 193.812 85.8914 194.362C85.3314 195.102 85.1614 197.062 85.6714 197.482C86.4814 198.162 87.9914 198.022 89.8514 198.332H89.8414ZM112.931 127.812V123.102C111.501 123.332 109.961 123.172 109.141 123.862C108.591 124.332 108.601 126.502 109.171 127.012C109.941 127.712 111.491 127.552 112.921 127.802L112.931 127.812ZM104.411 151.432C105.981 151.012 107.431 151.002 108.231 150.272C108.731 149.822 108.601 147.672 108.101 147.362C107.141 146.782 105.711 146.972 104.411 146.832V151.432ZM155.721 184.612C155.491 184.352 155.271 184.102 155.041 183.842C153.841 184.232 152.451 184.382 151.511 185.122C151.091 185.452 151.231 187.462 151.721 187.782C152.551 188.322 154.411 188.612 154.841 188.122C155.551 187.322 155.471 185.822 155.721 184.612ZM89.4814 186.402C89.6814 184.942 89.4114 184.002 87.5614 184.132C86.2814 184.222 85.2414 184.162 85.3514 185.922C85.4214 187.222 85.2514 188.452 87.2114 188.352C88.5814 188.282 89.8014 188.312 89.4814 186.402ZM104.311 186.172C104.011 187.812 104.681 188.372 106.341 188.362C107.971 188.352 108.541 187.792 108.511 186.172C108.481 184.682 107.971 184.132 106.451 184.122C104.931 184.122 103.961 184.382 104.311 186.172ZM70.9014 188.662C70.5614 186.762 70.7014 185.242 70.0014 184.422C69.5714 183.912 67.6314 184.082 66.8514 184.632C66.3014 185.022 66.1414 187.182 66.5614 187.472C67.5514 188.162 68.9914 188.202 70.8914 188.662H70.9014ZM155.391 127.772C153.971 128.032 152.531 127.952 151.641 128.602C151.161 128.952 151.211 131.152 151.701 131.492C152.621 132.102 154.041 131.952 155.391 132.142V127.782V127.772ZM131.921 313.432C132.401 311.642 131.171 311.622 129.761 311.562C128.211 311.492 127.791 312.142 127.791 313.612C127.791 315.162 128.221 315.852 129.901 315.832C131.551 315.812 132.181 315.172 131.921 313.432ZM131.941 40.3223C132.271 38.5123 131.171 38.3523 129.741 38.3123C128.161 38.2723 127.811 38.9723 127.801 40.4023C127.791 41.9723 128.281 42.6123 129.931 42.6023C131.621 42.6023 132.171 41.8823 131.941 40.3123V40.3223Z" fill="#822B33"/>
<path d="M124.911 5.61235C122.481 6.11235 122.231 4.70235 122.171 2.75235C122.101 0.472353 123.131 0.0523525 125.161 0.00235246C127.521 -0.0576475 127.831 1.03235 127.881 3.01235C127.941 5.30235 126.971 5.99235 124.901 5.61235H124.911Z" fill="#822B33"/>
<path d="M125.091 344.152C123.321 344.382 122.091 344.152 122.151 341.802C122.201 339.602 123.221 339.292 125.101 339.262C127.111 339.232 127.861 339.842 127.901 341.932C127.941 344.162 126.791 344.382 125.091 344.162V344.152Z" fill="#822B33"/>
<path d="M136.831 2.90235C137.161 4.81235 136.621 5.73235 134.391 5.73235C132.021 5.73235 131.981 4.47235 131.951 2.74235C131.921 0.962351 132.351 0.0423506 134.421 0.00235056C136.701 -0.0476494 137.111 1.04235 136.821 2.90235H136.831Z" fill="#822B33"/>
<path d="M108.791 238.092C109.091 240.082 108.421 240.842 106.391 240.932C103.911 241.032 104.101 239.622 103.991 237.952C103.861 235.962 104.571 235.402 106.521 235.422C108.641 235.452 109.141 236.382 108.781 238.092H108.791Z" fill="#822B33"/>
<path d="M134.331 344.152C132.421 344.482 131.941 343.562 131.941 341.782C131.941 339.822 132.731 339.282 134.611 339.242C136.841 339.192 136.831 340.412 136.921 342.042C137.041 344.132 135.951 344.382 134.331 344.142V344.152Z" fill="#822B33"/>
<path d="M136.831 360.712C137.241 362.632 136.351 363.182 134.521 363.142C132.841 363.102 131.891 362.802 131.931 360.802C131.971 358.972 132.571 358.302 134.421 358.322C136.161 358.342 137.211 358.702 136.831 360.712Z" fill="#822B33"/>
<path d="M256.651 170.212C258.391 169.932 259.191 170.522 259.171 172.472C259.151 174.312 258.551 174.952 256.721 174.922C255.011 174.892 254.151 174.502 254.151 172.562C254.151 170.692 254.811 169.942 256.651 170.222V170.212Z" fill="#822B33"/>
<path d="M4.82143 172.622C5.15143 174.602 4.04143 174.882 2.35143 174.912C0.391426 174.952 0.0414278 173.992 0.00142781 172.312C-0.0485722 170.192 1.22143 170.222 2.74143 170.142C4.63143 170.042 5.02143 171.012 4.82143 172.612V172.622Z" fill="#822B33"/>
</svg>
